/* XPM */
static char *_8c3aed61fcd4426e8a9067684df6efcccrJH03e8769nAtU[] = {
/* columns rows colors chars-per-pixel */
"64 64 184 2 ",
"   c #000200",
".  c #01040C",
"X  c #040A08",
"o  c #0D0D0D",
"O  c #020611",
"+  c #020915",
"@  c #040E1D",
"#  c #131313",
"$  c #131B13",
"%  c #171818",
"&  c #1A1A1A",
"*  c #211E1D",
"=  c #1C261C",
"-  c #1F281F",
";  c #352A0D",
":  c #3F3210",
">  c #061325",
",  c #08162B",
"<  c #09192E",
"1  c #151820",
"2  c #0B1D34",
"3  c #0C1F39",
"4  c #0E213C",
"5  c #1B2638",
"6  c #232323",
"7  c #232D23",
"8  c #2C2C24",
"9  c #2A2B2A",
"0  c #312F29",
"q  c #2A352A",
"w  c #2B352B",
"e  c #33322A",
"r  c #3D3B2F",
"t  c #233134",
"y  c #333333",
"u  c #3B3933",
"i  c gray24",
"p  c #423411",
"a  c #504017",
"s  c #624F1E",
"d  c #464339",
"f  c #4D4B3C",
"g  c #504D3D",
"h  c #54523E",
"j  c #6F5A23",
"k  c #725C24",
"l  c #112643",
"z  c #122946",
"x  c #1C2A41",
"c  c #152C4C",
"v  c #162F50",
"b  c #173154",
"n  c #183255",
"m  c #173258",
"M  c #1B385E",
"N  c #2F374A",
"B  c #1D3A63",
"V  c #1E3D69",
"C  c #203F69",
"Z  c #3D4455",
"A  c #1F406E",
"S  c #21416D",
"D  c #3F4E6E",
"F  c #234573",
"G  c #2A4570",
"H  c #254877",
"J  c #234678",
"K  c #274B7C",
"L  c #284C7E",
"P  c #324D78",
"I  c #3B5178",
"U  c #434443",
"Y  c #4D4B47",
"T  c #4F4E4E",
"R  c #545243",
"E  c #585643",
"W  c #5C5A46",
"Q  c #55524B",
"!  c #5A574C",
"~  c #5E5B4A",
"^  c #585858",
"/  c #615E4B",
"(  c #63614E",
")  c #70614F",
"_  c #7A6A4E",
"`  c #666352",
"'  c #6A6654",
"]  c #6C6A56",
"[  c #646159",
"{  c #69655A",
"}  c #6E6B59",
"|  c #716E5C",
" . c #796A5A",
".. c #73715E",
"X. c #444D62",
"o. c #484D60",
"O. c #585B65",
"+. c #465473",
"@. c #5D6069",
"#. c #6F6A61",
"$. c #686868",
"%. c #706663",
"&. c #716D63",
"*. c #757361",
"=. c #7A7664",
"-. c #7C7967",
";. c #78746B",
":. c #7E7B6A",
">. c #7B7675",
",. c #7F7C72",
"<. c #866D2C",
"1. c #8D732F",
"2. c #927731",
"3. c #947831",
"4. c #947A3B",
"5. c #817E6D",
"6. c #857D72",
"7. c #847F7D",
"8. c #9E8135",
"9. c #A88939",
"0. c #B4933E",
"q. c #B99741",
"w. c #83806F",
"e. c #858272",
"r. c #898676",
"t. c #8A8877",
"y. c #8B857A",
"u. c #8E8B7B",
"i. c #918D7E",
"p. c #93907F",
"a. c #C29F47",
"s. c #C6A245",
"d. c #D3AD4A",
"f. c #DBB34D",
"g. c #E4BB51",
"h. c #E8BE52",
"j. c #EAC053",
"k. c #274C82",
"l. c #294E82",
"z. c #2A5086",
"x. c #2B538C",
"c. c #2D5792",
"v. c #2E5995",
"b. c #2F5B98",
"n. c #315E9D",
"m. c #5B77A9",
"M. c #75859E",
"N. c #938E81",
"B. c #929081",
"V. c #969083",
"C. c #969284",
"Z. c #999285",
"A. c #979288",
"S. c #9A9588",
"D. c #9B9589",
"F. c #9C958A",
"G. c #9E998B",
"H. c #9E9A8D",
"J. c #A19B8E",
"K. c #A39D91",
"L. c #A7A194",
"P. c #A9A196",
"I. c #ACA69B",
"U. c #AFA89D",
"Y. c #B0A79E",
"T. c #B1A99F",
"R. c #8795A6",
"E. c #8D9FBE",
"W. c #97A5B8",
"Q. c #B5ABA2",
"!. c #B9AEA6",
"~. c #B4B3A8",
"^. c #A5AFB9",
"/. c #A9B3BB",
"(. c #98A8C3",
"). c #ABB7C5",
"_. c #B9C3CD",
"`. c #C8CFCF",
"'. c #CCD6DC",
"]. c #D3DCE2",
"[. c #DDE5E7",
"{. c #E7F0F3",
"}. c #ECF5F6",
"|. c #F0F9F9",
/* pixels */
"} } | ` ' } } ] ] } } } | | | | | | | } } } ] ] ] ] ' ` ` ' ' ] | | | | | | | | | | | | | | | } } } ` ` ] } | | | *.*.] ' ' } ] ",
"} | ` | | *.*.} } | ....*.*.*.*.*.*.*.*.*...| | | | } } / ~ ~ / ` ` ' *.*.*.*.*.*.*.*.*.*.*.*.*.*.*.*.=.5.:.5.5.=.:.:.-.=.*...} ",
"| ` } =.e.e.u.t.t.t.t.t.t.t.t.t.t.t.t.t.t.t.t.t.t.t.*.e x.v.v.v.v.v.z.e e r.t.t.t.t.t.u.u.u.u.u.u.u.u.i.B.i.i.C.i.i.i.t.t.:.*.} ",
"..' *.e.e.e.u.t.t.t.t.B.B.B.B.S.F.S.G.G.H.H.H.H.S.N.  M J M M M M M M M M O &.&.&.&.&.&.r.V.Z.G.G.C.B.V.C.C.V.V.V.S.S.B.i.u.:...",
"` ..t.t.t.i.t.t.t.u.C.C.C.B.S.H.J.J.K.K.K.K.J.K.J.  B n.n.n.n.n.n.n.n.n.n.n.n.n.n.n.n.k.,.J.J.J.S.S.F.C.N.C.V.V.V.B.B.V.u.u.e.*.",
"` ..t.B.B.i.u.i.F.F.B.G.G.H.H.H.J.J.K.K.#.#.Q V K F B x.m c c S K c c c c H F v c c k.k.  F J u { { [ &.Z.Z.V.V.V.B.B.i.t.e.5.*.",
"| ..t.B.C.B.i.F.F.F.J.F.J.J.S.G.H.J.u.^ n.n.J k.n.F B x.z 3 3 B K 3 3 3 3 H F 3 3 3 k.k.  F b.n b.b.b.x.^ y.u.t.u.u.u.t.e...*.| ",
"..=.B.B.N.S.F.H.I.I.U.Q.I.U.U.Y.Y.H.+.b.n.z.B k.n.F B x.K H 4 4 4 4 b B 4 4 4 4 S K K S   F b.@ B K K K x.o.S.V.t.e.e.e.e.t.] ` ",
"..:.B.C.N.Z.F.I.I.U.Q.Q.Q.I.U.T.N.2 k.v.K K M k.n.F B x.K H c c c c m V c c c c S K K B   F x.  M K K K K V ,.i.t.e.t.t.*.*.' ` ",
"*.:.B.i.V.S.F.I.U.T.Q.Q.Q.Q.I.T.  n c.K K K H c v.F B x.4 @ @ B K @ @ @ @ H F @ @ @ K B M H @   M K K K K v.> B.u.t.:.-.*.*.' ` ",
"*.:.u.i.Z.F.S.U.U.T.Q.Q.Q.Q.Q.Q + n.x.K K K K z v.H B l.B m m S H m m m m H F m m m K B B K   2 S K K K K v.> t.e.*.*.*.} | ' ` ",
"*.:.u.i.Z.Z.Z.U.U.T.Q.Q.Q.Q.Q.Q + v.K K K K K K > n.B K k.K K K H K K K K K K K K K F c K 2   z K K K K K K @ :.-.*.*.} *.=.....",
"*.-.e.5.N.V.Z.U.T.T.Q.Q.Q.Q.N.0 + v.K K K K K K > n.B K k.K l.v.v.v.v.c.v.v.c.K K K F c K 2 @ S K K K K K m ] :.*.*.*.] *.i.:.| ",
"..-.t.i.e.e.Z.U.T.T.T.Q.Y.7.k.n.+ c.S S S S S H S 4 c.c c.x.b.V l l l l l l n x.z.z.< K v   @ S S S S F k.z 4 ` *.*.*...t.t...` ",
"5.=.t.u.N.5.5.U.T.T.T.T.T v.n.n.F 4 = $ q # - , . 4 c.F c l n H c 2 2 2 2 2 H B l l F K v   X q = 7 q + 4 > H 0 ] *...-.w.t...` ",
":.=.t.N.Z.Z.Z.N.N.Q.T.N.I E.v.k.H z $ q - q - $   4 c.K K K F B v.H M B B H n S K K K K v   7 - q $ 7 - 4 R.^.W.f ' =.=.e.w...` ",
":.*.t.N.N.Z.Z.Q.N.N.U.U n.(.).K K K m         s.a 4 c.K K H M n.c   & # o   K B B K K K v               n L L [.f -.-.-.e.e...` ",
":.*.t.N.N.Z.Z.Q.Q.N.! c.n.v.R._.K K S 2   k j.q.; 4 c.K K H M A y   i y 6 i 3 B B K K K v   j.s.      < S ^.}.W.K ` :.:.w.w...( ",
"-.*.u.N.Z.F.Z.I.I.P.$.v.m.}.[.[.K K K l   1.g.<.  4 n.x.K H M A i   i & # U 3 B B K K K v   p s.      c K '.|.k.K ] e.:.w.w.| ( ",
"-.e.u.N.Z.F.F.I.I.y.K n.m.'.K K K K K l   h.0.    4 n.x.K H M A 9   i y 6 6 3 B B K K z.B   p g.2.    K K M.}.].^.] e.e.w.w.| ( ",
"=.e.u.Z.Z.N.F.I.S.B n.n.(.).K K K K K l g.d.      4 n.c.L H B c.S   # # X z H M S K K x.V   ; d.9.  z K K K K '.~._ :.e.w.w.| ` ",
"=.e.u.Z.i.N.F.L.e B n.n.{.v.K K K K M a.j.d.      4 n.n.k.K H m x.v.v.v.v.K l H K K K x.V     <.g.k K K K K K F 8.2.=.t.w.w.| ` ",
"=.e.u.Z.N.Z.G.,.s d.%.F /.n.n.c.K F _ f.j.        4 n.n.n.K K K B m m m m m K K K K K x.V     <.j.q.m m _ 9.9.0.j.2.  t.e.e.` ( ",
"=.e.N.Z.N.Z.G.e , 4.h.j.g.: : : : : 0.g.;         4 n.n.n.K K K K K K K K K K K K K K x.V       0.j.j.j.g.g.g.g.q.k.3 u.t.t.` | ",
"*.e.N.Z.Z.Z.;.P n.v. .3.8.j.j.j.j.j.j.<.          > K n.n.H c c c c c c c c c c c H K F 4       j 3.3.3.) B B B H F [ u.u.t.` ( ",
"| e.N.Z.Z.Z.! b.n.n.v.v.H 4 >                   z 3 B n.b.H # y i q 7 6 6 6 6 6 # F K B   3         K K K K K z.P =.t.u.u.u.` ( ",
"| *.N.S.Z.F.N.N n.c.K K K K n                 M c l B l.k.H F F F F F F F F F F F H F <   2 S       K K K K K Z r.u.u.V.u.t.` ( ",
"=...e.Z.S.F.G.&.k.c.K K K K S <               B t < B K n.K K S B B B B B B B S K L F < 5   H   4 F K K K z.K } V.u.u.B.u.t.` ( ",
"=.:.5.e.Z.F.G.P.S.B n.n.n.l..                 . F F . + c.n.K n 6 U U q 9 9 6 b K K O . B H +   . + + + + @ i.Z.N.i.i.V.u.t.` ( ",
"=.:.u.e.S.S.Z.L.L.r.M J J J J 3   < M M M n b C M   z V V n.K S M M M M M M M S K m M c             K K M 6.Z.Z.Z.i.i.V.N.t.=.( ",
"=.:.t.e.r.Z.Z.I.I.r.K n.n.n.x.z   l K K K F b K K 4 k.X F < v.K K K K K K K K K c F X c v         > K z.F S.Q.Q.U.U.i.S.i.t.=.( ",
"=.5.t.u.:.e.e.I.I.K.@.v.n.v.K K   l K K K H M z z @ B S H + F v.v.v.v.v.v.v.v.H > x.z.M ,       c H K z.F S.Q.Q.T.U.i.S.i.t.*.( ",
"=.5.i.i.V.V.e.i.I.I.L.d n.z.z.z.+ v.K K K K M F K H S z z H z z z                           . m K K K x.F S.Q.Q.T.U.i.S.u.t.*.( ",
"=.t.N.B.V.V.V.i.U.I.L.H.4 4 4 4 + n.n.n.n.n.F k.n.v.K K K K K K K F F F F F C     S F F c   @ K K K K x.>.T.Q.Q.T.U.I.F.u.t.*.( ",
"=.u.B.B.i.i.i.i.V.T.I.I.I.H.i.i.u.! Q d d r   B J J J V M M M M M M M M M M M M M M M M M > + M S B M y.Q.Q.Q.Q.T.I.I.Z.u.t.*.( ",
"=.u.V.V.V.V.V.I.Z.Z.H.H.H.S.i.e.:.=.` ` ' ~ E             n.n.n.n.n.n.x.K K K K K K F       O o * K.!.P.Y.Q.Q.T.U.I.I.Z.u.t.*.( ",
"' u.i.V.i.Z.Z.J.J.H.H.S.V.i.r.=.=.` ( ` / ' X.K K F       K K K K K K K K K K K K K F       H { !.!.!.I.u.Z.Q.T.I.I.I.I.t.e.*.( ",
"` u.V.V.S.S.S.J.H.H.i.i.e.=.=.=.` ' ` / ( B n.z.K k.k.<   n.k.k.k.k.k.k.k.k.k.k.k.k.C   , F K C r.!.P.I.e.Z.H.I.I.I.I.I.t.t.*.( ",
"` 5.i.i.S.S.Z.S.i.t.*.*.*.*.} | ` / / | % n.c.K K K L x.3 m v.z.z.z.z.z.z.z.z.z.z.n   l F K K H o.K.I.Q.| i.J.I.I.I.I.P.t.5.*.( ",
"*.e.V.V.Z.Z.V.p.e.=.......| | ` / ' } X.n.x.K K K K K K n.  z z.L K K K K K K F 4   + B K K K K K m y.Q.] u.K.I.I.I.I.P.t.:.*.( ",
"*.e.i.V.Z.Z.p.*.*.*.| | | | ` / ' ] G n.k.K K K K K K K L F   @ x.n.n.n.n.n.x.+     v.K K K K K K K   Q.] P.I.I.J.I.I.I.t.:.*.( ",
"*.e.u.i.i.i.-.*.*.*.| | | ` / ] ] T x.c.K K K K K K K K K K K S ,             c F n.x.K K K K K K K K +./ I.I.I.t.I.I.Z.e.:.*.( ",
"] ..*.-.:.:.| *.*.*.| | ( / ..| 3 n.x.K K K K K K K K K K K K H N e.| ..5.e z n.n.n.K K K K K K K K K x.Q P.I.I.t.I.I.Z.r.:.*.( ",
"` | *.} } | | ......| ' / ` 6.d n.n.x.K K K K K K K K K K K S ^ 5.=.( 5.t.Z.;.K n.k.K K K K K K K K K K k.O.P.I.H.I.Z.u.r.:.*.( ",
"} | } } } | } | | | ' ` ` e.r.u n.b.z.L K K k.z.z.z.z.z.z.z.~ e.e.' ( e.N.S.U.y.F n.K K K K K K K K K K x.v.> I.P.I.Z.u.r.:.*.( ",
"` | } } } } } | | } ' ] | i.[ `.l B n.n.n.n.K l l l F n.m :.e.=.' | =.i.Z.U.U.Y.[ v.v.K K K K K K K K K K K @ I.I.I.F.i.r.:.*.( ",
"` } } } } } } } ` ( ~ *.i.i.[ x.x.  o o o o # # # # o Q t.e.} } ` ..t.K.P.U.Q.Q.Q.6.K x.k.K B B l o o o   b B u A.F.V.i.:.:.*.( ",
"/ ] } } } } } ' ~ / =.Z.Z.Z.} [.H X #         # & & # *.e.e.} ' } 5.t.U.Q.Q.Q.Q.Q.Q.          & & X     # & &   &.F.i.i.:.:.` W ",
"~ ' } } } } } } ` =.Z.Z.Z.H.#.W.v   # # o o o     # o } e.] ` ] -.t.i.Q.Q.Q.Q.Q.Q.Q.  o # & &     o o # # # o o [ S.i.i.:.:.` E ",
"~ ' | | | | ` W *.5.Z.Z.H.H.} 3 z n.J 2 & & & & & % 2 [ =.` | } e.i.Z.Q.Q.Q.Q.Q.Q.Q.4 n.S 2 2 & & & & 1 2 2 H K B :.i.t.:.:.` E ",
"W ' | | | ` ( *.-.Z.Z.J.J.u.+.n.n.b.k.K S S S S S S K c ` ' ] u.u.i.J.Q.Q.Q.Q.Q.Q.Q.4 n.x.K H S S S S F K K K K B ;.i.5.:.:.` E ",
"W ' | | ( ( *.-.5.Z.J.J.J.r.J n.n.v.K K K K K K K K K c ~ | ` -.5.u.Q.Q.Q.Q.Q.Q.Q.Q.4 n.x.K K K K K K K K K K K S $.u.5.:.:.` ( ",
"~ ' | ' ( ( -.5.Z.Z.J.J.J.r.J n.n.L K K K K K K K K K c ` ' *.e.t.H.K.K.Q.Q.Q.Q.Q.Q.4 n.x.K K K K K K K K K K K K c r.e.5.5.W ` ",
"~ ' | ' / 5.5.5.G.G.J.J.J.y.J n.K K K K K K K K K K K K 2 *.*.e.t.Z.J.P.J.Q.Q.Q.Q.Q.P.B x.K K K K K K K K K K K K c r.e.5.5.W ' ",
"W ' } ~ ` -.5.F.G.G.J.J.G.M n.n.K K K K K K K K K K K K 2 *.*.e.t.Z.H.K.J.J.J.F.Z.Z.u.B n.k.K K K K K K K K K K K c r.5.5.} W ' ",
"~ } ' ~ ..5.Z.G.J.J.K.K.S.M n.n.K K K K K K K K K K K K 2 *.*.5.t.Z.S.K.J.J.K.J.J.J.Z.B n.k.K K K K K K K K K K K S T t.=.*.' ' ",
"~ ] ' | :.5.Z.F.J.J.C.Z z M n.n.K K K K K K K K K K K c ] *.*.-.:.i.S.K.J.J.J.J.J.J.Z.B n.k.K L z.L K K K K K K K K , t.:.:.` ] ",
"W ` } } :.5.Z.Z.J.r.I n.b.M n.n.K K K K v.b.H 3 3 K C [ *.*.*.*.*.B.F.F.J.J.J.J.H.S.N.B n.n.b.n.n.n.b.b.b.z.K K K K , e.:.5.} ] ",
"W ` :.*.=.=.u.i.S.$.x.n.c.F V b.x.K k.b.k.c B K K c 4 Y e.e.-.t.t.u.B.B.V.i.u.u.u.u.r.B n.n.n.K K M c M K K K x.z.K , 5.5.5./ ] ",
"h h *.` =.=.u.u.x n.n.n.K K H 4 n.v.x.m H K K K K K H c =.5.-.-.t.u.u.V.B.u.i.i.u.u.5.B n.n.2 c.H K K K H H H @ V x., 5.5.5.` ] ",
"( W ' } ` ] D J F A x.c.K K K K . A B F K K K K K K K c *.5.*.*.=.=.5.u.u.t.e.e.t.t.e.O.x.z n.v.K K K K K K K K F m @ 5.5.| ( / ",
"/ ( ~ *.w.' K v.c.F c x.c.F F F F F F F F F F F F F F c 8 8 8 8 8 8 8 e e e e e e e e e P 4 n.v.L K K K K K K K K K , :.....( / ",
"' ' ( ( } ` ~ ~ ~ ~ ~ ~ ~ ~ ~ ~ ~ ~ ~ ~ ~ f g R R ~ ~ ` } | | / / ( ( ` ` ( ` ` ' ] ] } ` * m m c z z z z z z z z z + | | ] ~ ~ ",
"] ] ' ] } ' } } } } ` ` *.' ' ' ' ` ` ` ` W W / ~ ' ' *.......| ] ] ' ' ..| | | | | | | } ' ' W ` } ....*.=.' } } | ] ] ' ' W W "
};
