/* XPM */
static char *f5969ad086404eff98112996be3591ceGSritgcQB83ybjVu[] = {
/* columns rows colors chars-per-pixel */
"64 64 236 2 ",
"   c #020408",
".  c #0B0B0C",
"X  c #16130D",
"o  c #050B17",
"O  c #0C131D",
"+  c #151314",
"@  c #171717",
"#  c #1C1B1A",
"$  c #241A11",
"%  c #2A241B",
"&  c #332810",
"*  c #3A311C",
"=  c #081426",
"-  c #0E162A",
";  c #0B192D",
":  c #161A28",
">  c #0B1C34",
",  c #0E1F39",
"<  c #301A28",
"1  c #1F2023",
"2  c #0F2036",
"3  c #0E213C",
"4  c #192539",
"5  c #242323",
"6  c #282627",
"7  c #2B2B2B",
"8  c #372926",
"9  c #36342D",
"0  c #272B35",
"q  c #37233F",
"w  c #2C3038",
"e  c #353535",
"r  c #3A3735",
"t  c #39393A",
"y  c #4B0F10",
"u  c #75090E",
"i  c #463816",
"p  c #523619",
"a  c #4F382A",
"s  c #544418",
"d  c #69501E",
"f  c #4A4339",
"g  c #574D34",
"h  c #6D582B",
"j  c #786433",
"k  c #0F2441",
"l  c #112643",
"z  c #132846",
"x  c #1B2A46",
"c  c #142C4C",
"v  c #1D304E",
"b  c #162E51",
"n  c #1A2E50",
"m  c #173054",
"M  c #193255",
"N  c #173359",
"B  c #1A355C",
"V  c #1C385F",
"C  c #2B2A41",
"Z  c #2B3549",
"A  c #383C47",
"S  c #263959",
"D  c #333B55",
"F  c #1B3761",
"G  c #1D3A63",
"H  c #1E3E69",
"J  c #233D63",
"K  c #2A3E62",
"L  c #203F6A",
"P  c #323960",
"I  c #4B3652",
"U  c #672740",
"Y  c #3C404B",
"T  c #3A4458",
"R  c #1F406D",
"E  c #2C4164",
"W  c #21416D",
"Q  c #2A436A",
"!  c #374667",
"~  c #244574",
"^  c #274675",
"/  c #254877",
"(  c #2C4976",
")  c #274B7C",
"_  c #294C7D",
"`  c #364A74",
"'  c #39517A",
"]  c #434443",
"[  c #494748",
"{  c #4A4B4B",
"}  c #514E45",
"|  c #5C5A46",
" . c #575349",
".. c #5E5C4A",
"X. c #494A56",
"o. c #4D515B",
"O. c #535355",
"+. c #585857",
"@. c #5B5C5C",
"#. c #625E4B",
"$. c #695D4B",
"%. c #615E56",
"&. c #745A52",
"*. c #63614E",
"=. c #77674A",
"-. c #666352",
";. c #6A6654",
":. c #6C6A56",
">. c #67655B",
",. c #6E6B5A",
"<. c #786756",
"1. c #716E5C",
"2. c #73715E",
"3. c #434E6A",
"4. c #47536B",
"5. c #595B66",
"6. c #465677",
"7. c #505875",
"8. c #5D606D",
"9. c #636365",
"0. c #676769",
"q. c #6B6B6B",
"w. c #726E6A",
"e. c #757362",
"r. c #7A7664",
"t. c #7B7867",
"y. c #79756B",
"u. c #7D7B6A",
"i. c #6C6D75",
"p. c #6F7071",
"a. c #777675",
"s. c #7C7C7D",
"d. c #8F111A",
"f. c #A70101",
"g. c #D82529",
"h. c #865725",
"j. c #865A38",
"k. c #8C6E2E",
"l. c #8A6435",
"z. c #957B36",
"x. c #B07533",
"c. c #97535E",
"v. c #90744B",
"b. c #88785D",
"n. c #AC7C4D",
"m. c #8A7965",
"M. c #817E6D",
"N. c #917F69",
"B. c #827D72",
"V. c #D44346",
"C. c #9F822F",
"Z. c #9D8136",
"A. c #A6883B",
"S. c #B08F3C",
"D. c #B5943A",
"F. c #C29E3D",
"G. c #C7A33D",
"H. c #CBA63D",
"J. c #D4AD3D",
"K. c #DBB33D",
"L. c #E2BA3E",
"P. c #998255",
"I. c #BB9A47",
"U. c #B08950",
"Y. c #83806F",
"T. c #96836D",
"R. c #858271",
"E. c #898675",
"W. c #8A8877",
"Q. c #86837B",
"!. c #8B867B",
"~. c #8D8B7B",
"^. c #9D8972",
"/. c #918D7E",
"(. c #93907F",
"). c #A8927A",
"_. c #C09E46",
"`. c #C48F59",
"'. c #CBA647",
"]. c #CDA747",
"[. c #D3AD44",
"{. c #DCB44E",
"}. c #DBB451",
"|. c #E0B84F",
" X c #E4BB51",
".X c #E5BC54",
"XX c #274C81",
"oX c #294E82",
"OX c #314F80",
"+X c #2A5085",
"@X c #2B538B",
"#X c #385688",
"$X c #2D5691",
"%X c #2E5995",
"&X c #2F5B99",
"*X c #315993",
"=X c #335C98",
"-X c #3B629E",
";X c #435C86",
":X c #4C6288",
">X c #56698C",
",X c #556C93",
"<X c #767980",
"1X c #677896",
"2X c #4F6EA3",
"3X c #7E8082",
"4X c #758296",
"5X c #7B8CA8",
"6X c #828384",
"7X c #8B8986",
"8X c #948E81",
"9X c #949182",
"0X c #999285",
"qX c #97918A",
"wX c #9B9589",
"eX c #9E998B",
"rX c #8C9399",
"tX c #A19A8E",
"yX c #B09980",
"uX c #A59D93",
"iX c #A69C94",
"pX c #ABA399",
"aX c #ACA59B",
"sX c #B0A89F",
"dX c #8896AA",
"fX c #8B98AC",
"gX c #9AA7B8",
"hX c #B5ABA2",
"jX c #A9B4BD",
"kX c #ABB7C4",
"lX c #B2BDC8",
"zX c #BCC6CE",
"xX c #C4CFD5",
"cX c #CAD4DB",
"vX c #D3DDE2",
"bX c #DEE7EA",
/* pixels */
":.,.;.;.:.e.e.1.1.1.,.:.-.-.,.,.,.1.:.:.,.,.,.,.,.%.! S Q +X+X+X+X+XoXoX_ S 9 | :.:.,.,.,.1.1.1.1.1.1.1.,.,.,.:.:.,.,.;.-.1.,.,.",
",.2.e.r.t.u.u.r.M.M.u.M.r.e.e.e.e.1.} Z S S S Z C E / l ~ oXoXoXoXoX) W B > - 7 -.,.1.e.e.e.e.e.e.e.e.e.2.2.1.,.,.e.e.1.1.-.1.,.",
",.e.u.W.W./././.9X~.~.~.~.E.u.+.+.@.A oX@X+XXXF V XXoXW H H H H H G B c G G G ~ o. .-.R.W.W.W.W.W.W.W.W.W.W.W.W.W.~.R.R.r.,.-.1.",
"2.u.~./.9XwXwX9X9XQ.5.T T T Z : Q *XJ oX+X) ~ 3 H @X_ ) ) ) ) ) ) / / / ) ) ) ) _ 0 f E.8X8X9XwXwX9X9X9X9XW.W.W.W.~.R.R.R.e.;.2.",
"e.R.~.~.9X9X9X8Xy.6.*X@X+XoXL o R @XM XXXX~ B c @XoX) ) ) ) ) ) ) ) ) ) ) ) ) ) c o . Z ' 7.q.!.wXwX8X9X9X9X~.W.W.W./.W.W.W.2.-.",
"e.M.R.W./.9X8Xq.' oXoX_ ) ) L O R @XB z 3 m H : D #X@XoX) ) _ _ _ _ _ _ _ ) ) ) ~ >   l oX*X*X6.a.9XwXeXeX9XwXwX/.~./.9X9XW.2.-.",
"1.e.2.R.W.~.u.4.) ) ) ) ) ) L O L @X) ~ c @X~ < u d.` $X~ oX@X@X@X@X@X@X@X+X) _ @Xk   3 ) _ _ oX' 0.9XtXeXtXeXeXeX/.9X9X9XW.2.1.",
"-.:.W.R.R.R.>.( +X) ) ) ) ) L : Q +X) ) z W M ( d.V.c.( @X@XS q U I x l ~ @X) ) b o   3 ) ) ) _ @X` 8XpXhXsXpXpXeXeXwX8X9X9Xr.2.",
"-.;.e.e.W.W.>./ @X) H G G G S h v.` ) ~ z b z @XP I ! W F z < u g.c.Z = R @X) G >     3 / ) ) ) +X$XX.iXhXhXsXaXpXeX0X8X9X9Xu.2.",
"-.;.e.e.t.t.>.( =X' #X/ ~ ~ K z.{.v.E N XX/ b $X@X+X~ ) @XXXQ C U 3.L O G oXB z l 3 = % f w z c m XXT iXhXhXsXaXaXeXwX9X/.9Xu.e.",
"-.;.1.,.e.e.-.4.rXgXgX:X) ) Q z. XA.A l +X+Xm %X$XL > b XX*X@X) ( ~ M = z z N @X@X@XJ j '.v.Q oX@X/ ` 6XaXhXsXaXaXwXwX0X/.~.u.e.",
"2.2.r.e.,.1.+.6.zXkX5X#X) ) Q v.|.{.k.# b @XN $X~ 2 : - x / %XoX~ Z 4 S @X) B @X+XoX+Xj {.I.o.) ) oX*X:Xs.pXaXaXaX0X0X0X/.~.u.e.",
"1.u./.e.:.+.( -XkXbXkX:X_ ) ) ! S. Xz.$ ; W b oX> - : : - W %XoX! 9.9.O.S ) M oXoX~ 3 % k.{.U.E ) _ :XfXjXi.qXsXaX0X9X8XM.R.t.e.",
"-.2.W.W.-.! $X-X1XvXbX1X_ ) ) E A. Xz.$ + : l XX3 > - - - W $X/ X.s.6Xs.5.L m XX) c O . i S.I.X./ ,XlXfX,X#X0.pXaX0XR.R./.W.t.2.",
"-.2.W.M.,.6.2X5XgXvXcX1X_ _ ) E A. Xz.5 % % % x ) ) W c , H ~ Z 9.9.9.a.p.S c W Z % 6 2 $ z. XA.4.zXkXfXdX#X#Xa.pXM.M.8X~.W.r.M.",
"-.2.Y.t.6XxXcXvXbXkX,X_ ) ) ) E A. Xz.4.v.Z.z.i 5 4 M c B m z 0 q.<X6X<X5.4 : i k.Z.z.a : z. XS.3.5XdXgXcX,X*X6.y.8X0X0X8XW.r.u.",
"-.2.R.r.3XcXkX1X>X7.4.3.3.3.3.X.A. Xz.z.[.L.K.D.h s 6 : O o o . 5 6 6 7 6 s h S.K.L.J.P.! t S.|.z.` #X1XcX1X+X_ a.8X0X8X8XW.e.u.",
"-.2.Y.e.T >X5.P.I._._._._._._._.[. Xz.Z.H.H.J.L.J.G.=.A : ; ; ; ; ; : C =.D.J.L.J.H.H.P.' K A. XZ.! ) ;XgXkX;X+X7.B.0X8X8XW.e.u.",
"*.1.M.e.g U.}.[.].].].].].].].].].].k.A.F.J.J.G.H.L.[.T.>X#X#X#X#X#X7.m.].L.H.G.J.J.F.U.8.E A..X|.l.` _ 4XxX:X+XOX0.8X0X8X~.e.t.",
"-.1.u.=._.{.'.h i i i i i i i i i i & A.F.H.H.F.G.H.J.[.U.b.b.b.b.b.P.[.J.H.H.H.J.J.H._.P.! A. X.X'.=.X.9.rXo.3.OX! y.8X8X~.R.t.",
"-.1.1.h S.d i # 3 3 o . .   . . . . X * i s s i i s s s i * * * * * i s s s D.J.G.G.K.[.P.E i D. X X}.{.}..X}.I.=.5.o.B.9X~.R.r.",
"-.1.9 $ & + o z XX) 3 # # . 5 5 5 6 7 7 7 # 5 @ # # # # # # # # # # # % 6 # d k.C.J.].I.w.J @ j A.A.A.A.S.{. X X{.'.I.b./.~.R.r.",
"*.-.9   ; B B = 4 0 w # # + 5 e e e e e e 7 @.6 e e e e e e e e e e 7 5 7 # f }  .$.5.7.' G O D ` A % & * g d s d D.|.z.W.~.R.r.",
"1.-.-.C ) $XH O O.{ 7X] # + 6 e e e e e e 7 7 6 6 6 6 6 6 6 6 6 5 5 5 7 7 5 9.q.q.s.9.E ) G l W ) ) 3 = M S v O X k.].I.b.~.R.r.",
"*.-.R.y.3.+XB @ 9.@.7X] # . 5 e e e e e e e e 8 y y 8 e e e e 9 # 5 6 e 6 5 q.9.@.s.s.D ) G M +X$X@Xz ; ~ ) ) G > $ d _.j W.R.e.",
"*.-.~.W.B.O.O O O.9.9.7 @ . 1 6 6 6 6 7 6 6 6 y f.f.u 7 e e e 7 7 9.+.# # : q.6X6X6Xs.Z / G l B z ; o ; ~ ) oX$X~ o $ z.h W.R.1.",
"*.-.W.~.8Xe.9 L / ( 4 @ + # e t t t t t r t e u f.f.d.8 r r e 5 t s.a.{ [ { a.6X@.{ a.Z G > o > , > > > ~ ) ) @X~ o + f M.~.e.1.",
"*.-.W.~.9X~.r.{ J ~ 3 @ + # e 6 w w 6 e 5 e 5 8 u d.p <.<.f 6 1 t s.6X6X3X3X6X6X9.@.p.w c = c XX$X@X@XB l / ) @X~ 5  .E.9XR.2.r.",
"*.-.W.~.9X/./.E. .: o + + # e : : : : 4 = 4 : e $ $ f <.m.m.g % # t ] ] ] ] ] ] A A A O = F @X@XoX_ oX~ z / ) @X/ >.8X9XR.M.u.r.",
"*.r.W.8X9X/./.8X%.m ; + + # e B H H B ~ b ) 4 e e { f ;.m.T.).<.9 X . . = : = M J G G m m @X@XoX+X@X@X@Xz ~ ) @X/ w.0XwXR.~.u.r.",
"*.r.W./.wX/.aXaXw._ c @ + # e V W G M ) M oX4 e { s.%. .<.N.).yXT.f 8 : B XXN oX%X+XoX~ c ) oX@X@XoX_ / > M oX*X' y.0XE.Y.W.u.r.",
"*.e.W./.wX/.aXaXw._ m l o   o B H H B ~ b ) 4 7 ] p.+.f $.<.T.^.).).). .x N l oX+X) ~ 3 m @X$X@XoX_ ) ~ k B oX6.Q.M.R.u.~.W.M.r.",
"*.e.W.~.wX/.aXaXy.D / XX> = ; 3 l l 3 z > l ; : ] 9.t @.+.$.m.T.^.^.).N.C b 3 oX+X) ~ 2 z / oX@X@X@XJ S _ $X#Xw./.R.9X9X/./.M.r.",
"*.e.W.~.wXaXaXsXaXa.A 2 , XX@X) ) ~ ~ ~ W z ~ Q 5.3X] q.@.r $.m.T.T.N.m.x z > XX+X) ~ V 5 6 0 0 w { +.+.+.@.a.pX/.9X9X9X9X8XW.r.",
"*.e.W.~.0XaXaXsXhXsX8X} 9 4 J F B M M M M G ~ 4.7Xp.{ q.@.{ 9. .<.+.! ` L b > m F N c 7 } -.:.e.r.W.wXiXuXiXaX9X/./.8X8X9X9X~.r.",
"*.e.W.~.0XaXaXaXsXhXhXpX0X>.[ M ) @X$X) ) ) ~ @.7XO.9.9.{ q.{ Q S ( oXW ; o o l ~ +XS  .#.-.r.u.R.~.wXeXeXeX0X0XpX9X9X9X9X9X~.r.",
"*.e.R.W.aXaXaXaXsXhX0XW.pXiXi.+X%X$XoX) ) ~ ! 0.q.@.a.9.{ p.X.~ ) oXXX=   o G ) ) _ oX` { #.-.r.r.E./.9XwXeXeXtXtX0X0X/.9X/.~.;.",
"*.e.W.W.aXaXaXaXaXeX0XR.iX7X` %X@X_ ) ) / T 7X+.@.s.q.O.9.o.Q ) oX@X3 o ; V ) @X+X_ ) oX_ ] ;.-.r.r.r.R././.eXeXtXeXwXwX9X9X~.-.",
"*.e.M.W.pXaXaXaXaXtX/.,.s.;X%X@X_ ) ) ) / Z 0.A +.q.{ 0.o.Q ) ) oXoX; c ~ ) ) _ @X@X_ oXoX! } *.1.,.e.e.e.e.W./.wX0XwXwX/./.M.-.",
"*.e.u.W.pXaXaXaXaXtXB.A #X&X$X_ ) ) ) ) / ~ ( W C Z o.+.E ) ) XXXXc c ~ @X@XoXoX@XoX) ) ) +X` { #.1.1.2.2.2.r.R.9X9X0X0X9X9XR.2.",
"*.e.u.W.aXaXaXtXpX!.{ W @X@X_ ) ) ) ) ) ) ) ) ) ) _ J : G oX+X~ z G ) ) ) +X@X@XoX) ) ) ) ) oXJ f *.1.1.1.1.e.e.e.(.0X0X9X/.R.e.",
"*.e.u.R.0XaXaXE.uX%./ ) ) ) / ~ / ) ) ) ) ) ) ) +X) 0 6 0 x x , W ) ) ) ) ) _ _ ) ) ) ) ) oX~ l w } #.1.1.1.e.e.e.r./././.~.R.e.",
"*.e.u.E.0XaXpXr.+.4 G L L L L B c ~ ) ) ) ) ) oXoXE %.r...}  .e S / ) ) ) ) ) ) ) ) ) oXoX/ ) oX/ E ] ..1.1.e.e.e.1.u.u.t.e.2.:.",
"*.e.u.E.~.9X!.Y ( OXX.[ [ [ X.` ~ G H ) ) ) oXoXD %./.E.M.*.e.e.t Z ~ ) ) ) ) ) ) ) _ XXR +XoX;X>X>XY  .:.1.2.2.2.1.1.,.,.e.1.-.",
"*.e.u.E.~.8Xa.Q ` <.U.`.`.`.n.&.! ~ M ~ _ oX@XX.Q.pX0X8XR.*.;.Y.y.} Z ~ oX) ) ) _ _ _ m ) ) _ fXzXvX4X .*.;.1.1.1.,.1.,.,.,.1.,.",
"*.e.u.E./.B.] 0 v.U.`.U.`.x.x.x.j J ~ B @X#X8.tXsXaXaX0X/.r.1.;.r.u.:.A ~ +X) ) ) / +XM ) ) _ ,XkXgX:XZ ;.;.,.1.1.,.,.,.,.,.1.-.",
"*.e.u.u.M.7 l C n.j.a h.x.d p h.h.S ) c ( a.pXhXhXhXaXpXuXW.2.-.,.,.M.u.O.E oXoX) k z _ ) ) OXkXgX:X/ A 1.| *.-.,.,.,.,.,.,.,.-.",
"| -.u.u.y.: H ` n.U.U.x.h.x.n.n.j.K ~ l t iXhXhXhXhXhXhXaXW.M.,.;.,.R.R.R.>.c b >   l @X_ ) _ 1XkXdX:X] /.r.#...;.,.,.,.,.,.:.#.",
"| -.u.r.>.x ~ @X3.v.U.x.l.x.x.j.! ) B = r iXhXhXhXhXhXhXhX/.W.r.:.-.:.R.W.-.4 z = O l XXoX_ _ OX>XkXzX9./.0Xr.*.,.,.,.,.,.,.;...",
"| -.u.,.D @X~ m ) X.n.l.x.h.l.D oX) ~ W A iXhXhXhXhXhXhXhX0X/.R.,.1.-.r.M.+.J / W W ) ) ~ @X$X$X$X:X3.] W.0XM.r.| -.1.1.1.1.;...",
"| -.u.,.S @X) G ~ n A D D D ! @X/ ) +X) Y iXhXhXhXhXhXhXhXtX/.~.~.:.;.:.} S ) ) ) ) ) oXXXm b b b m W ! Q.8X0Xr.r.*.-.1.1.1.;.| ",
"*.-.r.} S @X) ) W z B @X%X%X@XL ~ oX) ) Y iXhXhXhXhXhXhXhXhX~.M.t.-.1.-.} V ) ) ) ) ) ) ) ) ) ) ) ) ) @Xo.wX9XM.r.r.*.*.1.1.;.| ",
"-.| r.D @XoX) ) ) / ~ B b b V ) ) ) ) W X.iXhXhXhXhXhXhXiXuXeXW.R.e.:.:.[ S ) ) ) ) ) ) ) ) ) ) ) ) ) ) [ wX0X0XM.r.*.*.;.1.;.| ",
";.| r.S $X_ ) ) ) ) ) ) ) ) ) ) ) ) ) Z B.aXhXhXhXhXhXtXpXtX0XW.R.e.e.;.A ~ ) ) ) ) ) ) ) ) ) ) ) ) ) / [ 0XeXeXM.M.M.#.;.1.;.| ",
";.| -.S $XoX) ) ) ) ) ) ) ) ) ) ) ) ) D wX8X0X0XeXtXtXtXuXeX0XW.R.e.e.%.S _ _ ) ) ) ) ) ) ) ) ) ) ) ) _ X.8XeXeXeXM.r.-...,.;.| ",
";.;.} S &X$X) ) ) ) ) ) ) ) ) ) ) ) ) D 8XtXtXtXtXuXtXtXuXwX0XW.u.e.e...S @X@X_ ) ) ) ) ) ) ) ) ) _ oX%X@X@.eXtXeX0XM.2...;.,...",
":.-.A $X&X%XoX) ) ) ) ) ) ) ) ) ) ) ) D 8XtXtXtXtXtXtXtXuXwX/.u.t.e.2.%.D @X@X_ ) ) ) ) ) ) ) ) oX@X@XF n { 8X0XwX0XM.u.1.;.:...",
":.,.D *X&X&X%X@X@X@XoX_ ) ) ) ) ) ) ) D !.wXwXeXtXtXtXtXwXwX9Xe.e.e.e.e.>.( &X+X) ) ) ) ) ) ) +X$X~ G ~ ) ~ ! 5.B.8XM.u.,.,.-.| ",
":.#.D *X&X&X%X%X%X%X$X@X) @X_ _ ) ) ) D !.~.~.~.~.~./.9X9X9X~.W.W.t.R.R.r.@._ +X) ) ) ) ) ) +X~ m W ) ) ) oX@X+XT e.r.r.e.u.-.| ",
":.-.D @X) ~ G H H F N B B G / XXoX) ) Z y.W.~.~././.~.9X9X~.~.W.t.t.M.R.y.o.V ~ oX+X_ _ oXoXW W ) ) ) _ oX~ V G W 5.,.r.-.e.g g ",
"#.*.7 B ~ ~ m m b z z W ~ ~ ~ L ~ +X) Z y.W.W.W.R.R.W.~.~.M.r.r.e.e.M.t.-.~ oX~ B B @X$X$X) G ) ) ) _ +XG ~ ) ) @X*X!  .>.;.| *.",
"#.*.w V V ) &X$XoX) ~ V B W ) ) W W W O.M.W.W.W.W.W.W.W.R.t.r.e.e.M.Y.u.-./ @X) ) ~ B B B G ) ) ) +X) G ~ ) ) ) ) @X@XQ E [ *.*.",
"....w ~ @X%X@X) ) ) ) @X@X) B ~ ~ M 6 ..:.:.:.;.-.-.*.-.-.*.*.#.#.1.1.1. .~ oX) ) ) ~ ~ ~ ~ ) ) ) ) b W / ) ) ) ) ) ) ) ~ w ;.;.",
"| | 0 N F G F B B b c b b c z m B z } :.1.1.1.1.1.1.1.2.;.;.:.:.1.2.2.2. .c B B B B B c c c c c c c z c c c c c c M B B B 0 :.:."
};
