/* XPM */
static char *_3611806ab0b4cc0c30f3952636be719B2Q1YvZoX3Xe92tT[] = {
/* columns rows colors chars-per-pixel */
"64 64 236 2 ",
"   c #020408",
".  c #0B0B0C",
"X  c #16130D",
"o  c #050B17",
"O  c #0C131D",
"+  c #151314",
"@  c #171717",
"#  c #1C1B1A",
"$  c #241A11",
"%  c #2A241B",
"&  c #332810",
"*  c #3A311C",
"=  c #081426",
"-  c #0E162A",
";  c #0B192D",
":  c #161A28",
">  c #0B1C34",
",  c #0E1F39",
"<  c #301A28",
"1  c #1F2023",
"2  c #0F2036",
"3  c #0E213C",
"4  c #192539",
"5  c #242323",
"6  c #282627",
"7  c #2B2B2B",
"8  c #372926",
"9  c #36342D",
"0  c #272B35",
"q  c #37233F",
"w  c #2C3038",
"e  c #353535",
"r  c #3A3735",
"t  c #39393A",
"y  c #4B0F10",
"u  c #75090E",
"i  c #463816",
"p  c #523619",
"a  c #4F382A",
"s  c #544418",
"d  c #69501E",
"f  c #4A4339",
"g  c #574D34",
"h  c #6D582B",
"j  c #786433",
"k  c #0F2441",
"l  c #112643",
"z  c #132846",
"x  c #1B2A46",
"c  c #142C4C",
"v  c #1D304E",
"b  c #162E51",
"n  c #1A2E50",
"m  c #173054",
"M  c #193255",
"N  c #173359",
"B  c #1A355C",
"V  c #1C385F",
"C  c #2B2A41",
"Z  c #2B3549",
"A  c #383C47",
"S  c #263959",
"D  c #333B55",
"F  c #1B3761",
"G  c #1D3A63",
"H  c #1E3E69",
"J  c #233D63",
"K  c #2A3E62",
"L  c #203F6A",
"P  c #323960",
"I  c #4B3652",
"U  c #672740",
"Y  c #3C404B",
"T  c #3A4458",
"R  c #1F406D",
"E  c #2C4164",
"W  c #21416D",
"Q  c #2A436A",
"!  c #374667",
"~  c #244574",
"^  c #274675",
"/  c #254877",
"(  c #2C4976",
")  c #274B7C",
"_  c #294C7D",
"`  c #364A74",
"'  c #39517A",
"]  c #434443",
"[  c #494748",
"{  c #4A4B4B",
"}  c #514E45",
"|  c #5C5A46",
" . c #575349",
".. c #5E5C4A",
"X. c #494A56",
"o. c #4D515B",
"O. c #535355",
"+. c #585857",
"@. c #5B5C5C",
"#. c #625E4B",
"$. c #695D4B",
"%. c #615E56",
"&. c #745A52",
"*. c #63614E",
"=. c #77674A",
"-. c #666352",
";. c #6A6654",
":. c #6C6A56",
">. c #67655B",
",. c #6E6B5A",
"<. c #786756",
"1. c #716E5C",
"2. c #73715E",
"3. c #434E6A",
"4. c #47536B",
"5. c #595B66",
"6. c #465677",
"7. c #505875",
"8. c #5D606D",
"9. c #636365",
"0. c #676769",
"q. c #6B6B6B",
"w. c #726E6A",
"e. c #757362",
"r. c #7A7664",
"t. c #7B7867",
"y. c #79756B",
"u. c #7D7B6A",
"i. c #6C6D75",
"p. c #6F7071",
"a. c #777675",
"s. c #7C7C7D",
"d. c #8F111A",
"f. c #A70101",
"g. c #D82529",
"h. c #865725",
"j. c #865A38",
"k. c #8C6E2E",
"l. c #8A6435",
"z. c #957B36",
"x. c #B07533",
"c. c #97535E",
"v. c #90744B",
"b. c #88785D",
"n. c #AC7C4D",
"m. c #8A7965",
"M. c #817E6D",
"N. c #917F69",
"B. c #827D72",
"V. c #D44346",
"C. c #9F822F",
"Z. c #9D8136",
"A. c #A6883B",
"S. c #B08F3C",
"D. c #B5943A",
"F. c #C29E3D",
"G. c #C7A33D",
"H. c #CBA63D",
"J. c #D4AD3D",
"K. c #DBB33D",
"L. c #E2BA3E",
"P. c #998255",
"I. c #BB9A47",
"U. c #B08950",
"Y. c #83806F",
"T. c #96836D",
"R. c #858271",
"E. c #898675",
"W. c #8A8877",
"Q. c #86837B",
"!. c #8B867B",
"~. c #8D8B7B",
"^. c #9D8972",
"/. c #918D7E",
"(. c #93907F",
"). c #A8927A",
"_. c #C09E46",
"`. c #C48F59",
"'. c #CBA647",
"]. c #CDA747",
"[. c #D3AD44",
"{. c #DCB44E",
"}. c #DBB451",
"|. c #E0B84F",
" X c #E4BB51",
".X c #E5BC54",
"XX c #274C81",
"oX c #294E82",
"OX c #314F80",
"+X c #2A5085",
"@X c #2B538B",
"#X c #385688",
"$X c #2D5691",
"%X c #2E5995",
"&X c #2F5B99",
"*X c #315993",
"=X c #335C98",
"-X c #3B629E",
";X c #435C86",
":X c #4C6288",
">X c #56698C",
",X c #556C93",
"<X c #767980",
"1X c #677896",
"2X c #4F6EA3",
"3X c #7E8082",
"4X c #758296",
"5X c #7B8CA8",
"6X c #828384",
"7X c #8B8986",
"8X c #948E81",
"9X c #949182",
"0X c #999285",
"qX c #97918A",
"wX c #9B9589",
"eX c #9E998B",
"rX c #8C9399",
"tX c #A19A8E",
"yX c #B09980",
"uX c #A59D93",
"iX c #A69C94",
"pX c #ABA399",
"aX c #ACA59B",
"sX c #B0A89F",
"dX c #8896AA",
"fX c #8B98AC",
"gX c #9AA7B8",
"hX c #B5ABA2",
"jX c #A9B4BD",
"kX c #ABB7C4",
"lX c #B2BDC8",
"zX c #BCC6CE",
"xX c #C4CFD5",
"cX c #CAD4DB",
"vX c #D3DDE2",
"bX c #DEE7EA",
/* pixels */
",.,.1.-.;.,.,.:.:.,.,.,.1.1.1.1.1.1.,.,.,.,.:.:...9 S _ oXoX+X+X+X+X+XQ S ! %.,.,.,.,.,.,.,.1.,.,.,.-.-.:.,.1.1.1.e.e.:.;.;.,.:.",
",.1.-.1.1.r.e.,.,.1.2.2.e.e.e.e.e.e.e.e.e.1.,.-.0 - > B W ) oXoXoXoXoX^ l ) E C Z S S D Z } 1.e.2.2.e.r.M.u.M.M.r.u.u.t.r.r.2.,.",
"1.-.,.r.R.R.~.W.W.W.W.W.W.W.W.W.W.W.W.W.R.-. .o.^ H H H c B H H H H H H W oXXXV F XX+X@XoXA @.+.+.u.!.~.~.~.~.9X/././.W.W.u.e.,.",
"2.;.r.R.R.R.~.W.W.W.W.9X9X9X9XwX0X9X8X7X!.f 0 _ _ ) ) ) / / ) ) ) ) ) ) ) _ @XH 3 ^ _ +XoXJ *XQ : t T T T 5.Q.9X9X0X0X9X/.~.u.2.",
"-.2.W.W.W./.W.W.W.~.9X9X9X9XwXeX!.q.7.' Z . o c ) ) ) ) ) ) ) ) ) _ _ ) ) _ oX@Xc B / XXXXM @XR o L oX+X@X*X6.y.8X9X9X9X~.~.R.r.",
"-.2.W.9X9X/.~./.wXwX9XeXeXeX0Xa.6.*X*XoX3   > / ) ) ) _ _ _ _ _ _ _ _ ) oX@X#XD : H m 3 z B @XR O L ) _ _ oXoX' q.8X9X/.W.R.M.e.",
"1.2.W.9X9X9X/.wXwXwXtXwXtX9X0.' oX_ _ ) 3   k @X_ ) +X@X@X@X@X@X@X@XoX/ $X` d.u < / @Xc / ) @XL O L ) ) ) ) ) ) 4.u.~.W.R.2.r.1.",
"2.r.9X9X8X0XwXeXaXaXsXhXpX8X` @X_ ) ) ) 3   o b ) ) @X^ l x I U q S @X$X_ c.V.d._ M W z ) _ @XQ : J ) ) ) ) ) +X( >.R.R.R.W.:.-.",
"2.u.9X9X8X0XwXaXaXsXhXhXiXX.$X+X) ) ) / 3     > H ) @XR = Z c.g.u < x G W ! I P @Xz m z / ) ` v.h S G G G H ) @X) >.W.W.r.e.;.-.",
"e.u.9X/.9XwXwXaXaXsXhXhXuXT XXm c z w f % = 3 l z B oXH O J 3.U C Q oX@X/ / oX+X$Xb / XXB E v.{.z.K ^ / ) #X' =X( >.t.t.e.e.;.-.",
"e.u.~./.0XwXwXaXaXsXhXaX6X` / @XoXQ v.'.j J @X@X@XB z l = M ^ ( _ @X%XXXc > L $X%Xm +X+Xl A A. Xz.Q ) ) :XgXgXrX4.-.e.e.,.1.;.-.",
"e.u.~./.0X0X0XaXaXaXpXs.:X*XoX_ ) o.I.{.j +XoX+X@XV _ @XS 4 Z / oX%X/ x : : 2 W $XN @Xb # k.{.|.z.Q ) ) ;X5XkXzX6.+.1.,.e.r.2.2.",
"e.t.R.M.8X9X0XaXsXqXi.jXfX:X_ ) E U.{.k.% 3 ^ oXoXM ) S O.9.5.! oX%XW ; : : - > oXb W ; $ z. XS.! ) ) _ >XkXbXkX-X( +.:.r./.u.1.",
"2.t.W./.R.R.0XaXpX0.#X,XfXlX,X) X.I.S.i . O c ) XXm J 5.s.6Xs.X.) $XW - - - > 3 XXl : + $ z. XA.E ) ) _ 1XbXvX1X-X$X! -.W.W.2.-.",
"M.r.W.~.8XM.M.pXa.#X#XdXfXkXzX4.A.|.z.$ 2 6 % Z W c S p.a.9.9.9.Z / H , c ^ ) ) x % % % 5 z. XA.E ) ) _ 1XcXvXgX5X2X6.,.Y.W.2.-.",
"u.r.W.8X0X0X8Xy.6.*X,XcXgXdX5X3.S.|.z.: a z.Z.k.i : 4 @.<X6Xs.0.0 z M B c m 4 5 i z.Z.v.4.z. XA.E ) ) ) _ ,XkXbXvXcXxX6Xt.Y.2.-.",
"u.r.W.8X8X0X8Xa._ +X1XcX1XOX` z.|.S.t ! P.J.L.K.S.h s 6 7 7 7 5 . o o = : 6 s h D.K.L.[.z.z. XA.X.3.3.3.3.4.7.>X1XkXcX3Xr.R.2.-.",
"u.e.W.8X8X0XB.7.+X;XkXgX;X) ! Z. XA.K ' P.H.H.J.L.J.D.=.Z : ; ; ; ; ; : A =.G.J.L.J.H.H.Z.z. X[._._._._._._._.I.P.5.>XT e.Y.2.-.",
"t.e.~.8X0X8X0.OX+X:XxX4X_ ! v.{. XA.E 8.U.F.J.J.G.J.L.].b.7.#X#X#X#X#X>XT.[.L.H.G.J.J.F.A.k.].].].].].].].].].].[.}.U.g e.M.1.-.",
"t.R.~.8X8Xy.! OX3.o.qX9.X.;.'..X XA.! P._.H.J.J.H.H.H.J.[.P.b.b.b.b.b.U.[.J.H.G.F.H.H.F.A.& i i i i i i i i i i h '.{._.=.u.1.-.",
"r.R.~.9XB.o.5.=.I.}..X}.{.}. X XD.i E P.[.K.G.F.J.D.s s s i * * * * * i s s i i i s s i * X . . . .   . . o 3 3 # i d S.h 1.1.-.",
"r.R.~./.b.I.'.{. X X{.S.A.A.A.A.j @ J w.I.].J.C.k.d $ 6 % @ # # @ @ # # # @ @ @ @ 5 # 7 7 7 7 5 5 5 . # # 3 ) XXl o + & $ 9 1.-.",
"r.R.~.W.z.{.D.d s d g * & % A ` D O G ' 7.5.$. .} f # 7 5 7 e e e e e e e e e e 7 @.7 e e e e e e 6 + # # w 0 4 = B B ;   9 -.*.",
"r.R.~.b.I.].k.X O v S M = 3 ) _ W l H ) E 9.s.0.q.0.5 7 7 6 6 6 7 7 7 7 7 6 6 6 6 7 7 e e e e e e 6 X # ] 6X{ O.O H $X) Z -.-.1.",
"r.R.W.j _.d $ > H ) ) ~ ; l @X$X+XM H ) Z s.s.@.9.q.5 7 e 7 6 # e e e e e 8 y y 8 e e e e e e e e 6 . # ] 7X@.9.@ B +X3.y.R.-.*.",
"1.R.W.h z.$ o ^ $XoX) / ; o ; l V l G / Z s.6X6X6Xq.: # # +.9.7 7 e e e 7 u f.f.y 6 7 7 7 7 7 7 7 1 . + 7 9.9.O.O O O.B.W.~.-.*.",
"1.e.~.M.f + o ^ @X_ ) ^ > > > , > o > H Z a.{ @.6Xa.{ [ { a.s.t 6 e r r 8 f.f.f.u e t e t t t t t e # + + 4 ( ) J 7 e.8X~.W.-.*.",
"r.2.R.9X!. .1 ^ @X) / l B +X@X@XXXc = c w p.@.9.3X6X3X3X3X6Xs.t 5 6 f <.<.p d.u 8 5 e 6 e 7 7 7 7 e # + + 3 ^ J { r.~.9X~.W.-.*.",
"r.M.M.R.9X/.>.) @X) / l / oX_ oX@X@XF = - A A A ] ] ] ] ] ] A # % g m.m.<.f $ $ e : 4 - 4 : : : : e # + + o -  .E././.9X~.W.-.*.",
"r.u.~.R.0X0Xw.) @X_ / z @X@X@X+X_ @X@Xm m G J J M - - O . . X 9 <.).^.m.;.f { e e 4 ) b ~ V H H B e # + + ; M %.8X/./.9X8XW.r.*.",
"r.u.W.R.E.0Xy.' *XoXM > / _ oX@X@XoX_ c ^ oX+X%XoXN XXB : 8 f T.yX^.N.<. .%.s.{ e 4 XXm ) M G ^ B e # + @ c _ w.aXaX/.wX~.W.r.*.",
"r.M.W.~.u.R.M.Q.6.oXV k ^ ) _ oX@X$X@Xm 3 / _ +XoXl B x  .^.).).^.N.<.$.f +.p.] 7 4 ) b ^ V L H B o   o l m oXw.aXaX/.wX/.W.r.*.",
"r.M././.9X9XR.~.w.#X$X_ S J @X@X@XoX/ z 2 ^ ) +XoX3 b C N.).^.^.T.m.#.+.@.t 9.] : ; l > z 3 l k 3 ; ; > XX/ D y.aXaX/.wX~.W.r.*.",
"r.W.8X9X9X9X9X/.pXa.@.@.+.+.O.w 0 0 6 5 V / ) +XXX> l x m.N.T.T.m.#.r @.q.[ 3X5.Q ^ z W ^ ^ / ) ) @XXX, : A a.aXsXaXaXwX~.W.r.*.",
"r.~.9X9X9X9X/./.9XaXiXuXuXwXW.r.e.>.-. .7 x B G m > b L ` ! +.<. .9.{ @.q.{ p.6X4.^ H M M M M V G J 4 9 } 8XsXhXsXaXaX0X~.W.r.*.",
"r.~.9X9X9X9X9XaX0X0XeXeXeX0X~.R.u.r.-.#. .S +X^ l o o ; W oX( S Q [ q.{ 9.9.O.7X@.^ ) ) _ $X@X) M [ >.0XpXhXhXsXaXaXaX0X~.W.r.*.",
";.W./.9X/.0X0XtXtXeXeXeX9X/.E.r.r.-.#.{ ` oX_ ) ) G o   ; XXoX) ^ [ p.{ 9.a.@.q.0.! ^ ) ) oX$X%X+Xi.iXaX~.0XhXsXaXaXaXaXW.R.r.*.",
"-.~.9X9X0XwXwXtXeXeX/./.R.r.r.r.-.;.] _ oX_ _ +X@X) V ; o 3 @XoX) Q o.9.O.q.s.@.+.7XT / ) ) _ @X%X` 7XiXR.0XeXaXaXaXaXaXW.W.r.*.",
"-.M././.0X0X0X0X/.W.e.e.e.e.,.1.*.} ! oXoX_ @X@X_ ) ) ^ c ; oXoX) ) Q o.0.{ q.+.A 0.Z / ) ) ) _ @X%X;Xs.,.~.uXaXaXaXaXpXW.M.r.*.",
"e.R.9X9X0X0X9X9XR.r.2.2.2.1.1.#.{ ( +X_ ) ) oX@XoXoX@X@X/ c c XXXX_ ) E +.o.Z C W ( / ) ) ) ) ) _ $X&X#XA B.tXaXaXaXaXpXW.u.r.*.",
"r.R./.9X0X0X(.e.e.e.1.1.1.1.*.f J oX_ ) ) ) ) oX@X@X+X_ ) ) G l ^ +XoXG : J _ ) ) ) ) ) ) ) ) ) _ _ @X@XL { !.aXtXaXaXaXW.u.r.*.",
"e.R.~./././.t.e.e.e.1.1.1.#.} w l / oX_ ) ) ) ) _ _ ) ) ) ) ) W , x x 0 6 0 ) +X) ) ) _ ) ) ) / / / ) ) ) ( %.uXE.aXaX0XR.u.r.*.",
":.2.e.t.u.u.1.e.e.e.1.1...] E ) oX) ) oXoX) ) ) ) ) ) ) ) ) / S e  .} ..r.%.E oXoX) ) ) ) ) W c V L L L L G 4 @.e.aXaX0XR.u.r.*.",
"-.1.e.,.,.1.1.2.2.2.1.;. .Y >X>X:XoX+XR XX_ ) ) ) ) ) ) ) / Z t e.e.*.M.E./.%.D oXoX_ ) ) H G ^ ( X.[ [ [ X.OX( Y !.9X~.R.u.r.*.",
",.1.,.,.,.1.,.1.1.1.;.*. .4XvXzXfX_ ) ) b _ _ ) ) ) ) oX^ Z } t.Y.;.*.R.8X0XpXQ.X.@XoXXX^ M / ! &.n.`.`.`.U.<.` Q a.9X~.R.u.r.*.",
"-.1.,.,.,.,.,.1.1.,.;.;.A :XgXkX,X_ ) ) m +X) ) _ _ +X^ A >.u.r.;.1.r./.0XaXaXsXtX8.#X@XV ~ J j x.x.x.`.U.`.U.v.0 ] B.~.R.u.r.*.",
"-.,.,.,.,.,.,.,.-.*...1.A ) :XgXkXOX) _ _ l k ) oXoXE O.u.M.,.,.-.2.W.uXpXaXhXhXhXpXa.( c ) S h.h.p d x.h.a l.n.C l 7 u.u.u.r.*.",
"#.:.,.,.,.,.,.;...#.r./.] :XdXkX1X_ ) _ @Xk   > b x >.R.R.R.,.;.,.M.W.aXhXhXhXhXhXhXiXt l / K j.n.n.x.h.x.U.U.n.! H : t.u.u.-.| ",
"..;.,.,.,.,.,.,.-.r.0X/.9.zXkX>XOX_ _ oXXXl O = z 4 -.W.R.:.-.:.t.W./.hXhXhXhXhXhXhXiXr ; B ) ! j.x.x.l.x.U.v.3.@X^ x >.r.u.-. .",
"..;.1.1.1.1.-.| r.M.0X~.] 3.:X@X@X@X@X^ ) ) W W / J +.M.r.;.1.,.R./.0XhXhXhXhXhXhXhXiXA W ^ ) oXD l.h.x.l.n.X.) m ^ @XD ,.u.-. .",
"| ;.1.1.1.-.*.r.t.0X8X!.! L b c b b m XXoX) ) ) ) ) S } :.;.:.~.~./.tXhXhXhXhXhXhXhXiXY ) +X) / @X! D D D A n ^ G ) @XS ,.u.-. .",
"| ;.1.1.*.*.r.t.M.0X0Xo.@X) ) ) ) ) ) ) ) ) ) ) ) ) V } -.1.-.t.M.~.hXhXhXhXhXhXhXhXiXY ) ) oX/ W @X%X%X@XB l W ) _ @XS } r.-.*.",
"..;.1.;.*.*.t.M.0X0X0X[ ) ) ) ) ) ) ) ) ) ) ) ) ) ) S [ :.;.e.R.W.eXuXiXhXhXhXhXhXhXiXX.W ) ) ) ) V b b B / / ) ) ) XX@XD r...-.",
"..;.1.;.#.M.M.M.eXeX0X[ / ) ) ) ) ) ) ) ) ) ) ) ) ) ^ A ;.e.e.R.W.0XtXpXtXhXhXhXhXhXaXB.Z ) ) ) ) ) ) ) ) _ ) ) ) ) _ $XD r...;.",
"| ;.,...-.t.M.wXeXeX7XX._ ) ) ) ) ) ) ) ) ) ) ) ) _ _ S %.e.e.R.W.0XeXuXtXtXtXwX0X0X8XwXD ) ) ) ) ) ) ) ) ) ) ) ) ) oX$XD -...;.",
"..,.;...2.M.0XeXtXwX@.@X%XoX_ ) ) ) ) ) ) ) ) ) ) @X@XS ..1.e.M.W.0XwXuXtXtXuXtXtXtXtX8XZ ) ) ) ) ) ) ) ) _ _ _ ) _ $X&XS } ;.;.",
"..:.;.1.u.M.0XwX0X8XO.n G @X@XoX_ ) ) ) ) ) ) ) _ @X@XD %.2.e.t.u./.wXuXtXtXtXtXtXtXtX8XZ ) ) ) ) ) ) ) ) ) _ _ _ oX%X=X$XA -.:.",
"| -.,.,.u.M.8XB.5.! ^ ) / G ^ $X+X_ ) ) ) ) ) ) +X&X( >.e.e.e.e.r.9XwXwXtXtXtXtXeXwXwX!.Z ) ) ) ) ) _ ) _ oX@X@X@X%X=X=X*XA ,.:.",
"| -.u.e.r.r.w.T +X@XoX_ ) ) W m ^ +X_ ) ) ) _ _ +X_ @.r.R.R.t.W.W.~.9X9X9X/.~.~.~.~.~.!.Z ) ) ) _ _ @X_ @X$X%X%X%X%X&X=X*XA #.:.",
"g g r.-.r.,.5.W G V ^ oX_ ) ) ) W W oXoX_ _ +XoX^ B o.t.R.M.t.t.W.~.~.9X9X~././.~.~.W.t.Z ) _ oXXX/ G B B B V H H G ^ ) @XA -.:.",
"*.| ;.>. .! *X@X) ) ^ G +X_ ) ) ) G ) $X@X@XV V / oX^ -.t.M.r.e.r.r.M.~.~.W.R.R.W.W.W.t.Z ) +X^ L / / / W z z b m m ^ ^ B 0 *.#.",
"#.*.[ E Q @X@X_ ) ) ) / G ) +X) ) ) H B B V / ) ) @X/ -.u.Y.M.e.e.r.t.R.W.W.W.W.W.W.W.M.O.W W W ) ) W V V / ) oX$X&X) V B w *.#.",
";.;.w / ) ) ) ) / ) ) / W b ) ) ) ) / / / / ) ) ) oX^  .1.1.1.#.#.*.*.-.-.*.-.-.;.:.:.:...6 M / / V ) @X@X) ) ) XX$X%X@X~ w ....",
":.:.0 V V V M c c c c c c z c c c c c c c B V V V V c  .2.2.2.1.:.:.;.;.2.1.1.1.1.1.1.1.:.} z V m z c b b c b V F G G G B 0 | | "
};
