/* XPM */
static char *e25c5cc5bc19480f8492ebd26f549916S1HVSWpb62MapNJE[] = {
/* columns rows colors chars-per-pixel */
"133 129 79 1 ",
"  c #000000",
". c #080006",
"X c #0C070D",
"o c #111111",
"O c #191515",
"+ c #2B0000",
"@ c #202020",
"# c #561005",
"$ c #600000",
"% c #7F1707",
"& c gray25",
"* c #5E5252",
"= c #615655",
"- c #655856",
"; c #665B59",
": c #6A5E5C",
"> c #6E615D",
", c #71645F",
"< c #6A5F60",
"1 c #6E6362",
"2 c #726662",
"3 c #766963",
"4 c #7B6D66",
"5 c #716768",
"6 c #756B6B",
"7 c #7B6E6A",
"8 c #7E7067",
"9 c #7E7069",
"0 c #796F70",
"q c #7B7271",
"w c #7D7373",
"e c #7D7473",
"r c #7C7374",
"t c #7D7575",
"y c red",
"u c #A0590D",
"i c #9E7243",
"p c #81726B",
"a c #80736C",
"s c #80746E",
"d c #85756F",
"f c #807470",
"g c #827672",
"h c #867670",
"j c #877771",
"k c #827774",
"l c #887774",
"z c #827875",
"x c #837876",
"c c #887871",
"v c #887872",
"b c #8A7A74",
"n c #8C7B75",
"m c #8E7D77",
"M c #807879",
"N c #847A79",
"B c #847C7D",
"V c #8D7C79",
"C c #917F7A",
"Z c #917F7B",
"A c #99866F",
"S c #93817C",
"D c #95827E",
"F c #1D2E91",
"G c #2942D1",
"H c #6478E5",
"J c #858687",
"K c #978480",
"L c #9B8783",
"P c #9B8784",
"I c #9D8985",
"U c #9D8986",
"Y c #9F8A88",
"T c #999085",
"R c #A18C89",
"E c #C1B6A8",
"W c #95A2E2",
"Q c #DBCFC0",
"! c white",
/* pixels */
"*************************************************************************************************************************************",
"***=:1111::;::;;::;;:11:==;111111111111:-=;<11111::;;;::;=;:11111111111<;=-:11:;:::;;;::;=-:11:;;<:;;;:<;==-;:11:;;::;;::==-;:11:=***",
"***:6ttttq74qq74qq779tt7:;5rtttttttttttq1;5rtttttw74349q1;1qtttttttttttq1;1qtt737w94347q5;1qtt937w93337q5;-27wtt947qq47q6;-,7wtt6:***",
"***1tBMtMz99kza9kzaaNBMq119MNMNNNNNNBBMq2>7MNNNNNMf99seq2>6zNNNNNMMMBBMt5>6kNNf9fzf99aew6>5kNNf9szf99aft6>>4szNNk9azzfft61>39zNNq:***",
"***1tM627a99as99aa9aNM61239sfssssssfNM61249sfsssfs99fz61247sfssssssfNBq12379fsa99sa9fzq11379fsa99sa9szw213349sfsa99sfze212349sfs7;***",
"***:671>3accs99999aftq1>3pcbs99999aftq2:29cbd999999feq2:29jbj999999sew5:,7jbjp99999sft6>,4dbcp99999aft6>>4dbcp99999aft61>4scca993;***",
"***=:1234cLIn94999kt61234jLIm94999fk61234dKICp4999fk61234aDISp4989fz71233pSIDs7989fzq11339CIKd4999szq21239mILj4899szw21234nIPc943;***",
"***=->349cLPVa9999eq1>349jKIVs9999eq2:348dDICs9999wq2:248aSISf9989ww5:,48pCIKj99899w6:,489VIKc99999e6>,489nPLb99999t61>389bPPba93;***",
"***->349977fkza9942123499779kzs9972123499977kzf9944123499977kzf9944123499977fzf9974113449977fzf9974112349977fzk9993212349977fkz93;***",
"***;399993>16tfa94>:379994,>6tfa94,:349994,>6tfa94,;249994,:5tfsp42;2499942:5wesa72;,499942:2qtsa93:,499993>1qtfa93>>499993>1qtf4;***",
"***;3999943215wzs4334999943212wzs4334999943212qzf93349999442117zf93349999743216kf94334999943216kf94334999943216kk94334999943216tq:***",
"***;39999997>16tfa99999a9994>>6tfa9999999994,:6tfa9999999994,:5tfa99999999994:2wes99999a99942:2qts99999999973:1qtf99999999993>106:***",
"***;39999azk7215wzs989kzs9943212wzs9999999943212qzf99999999743217zf9999999fz94216kf989fzf99943216kf99999999943216tka999999994321:=***",
"***;39999azMf7>16e999fzzs99994>>6t999a99999994,:6t999999999994,:5ww9999989fMz94:2we99akMf989942:2qe999999999943:1qe999999999993>-=***",
"***;399999afzk721249kzfs999994321249fzs989999432114799999999994321479999999fzzw42147fzzf998999432157szf9989999432124999999999943>-***",
"***;399pccaazzs4>:39zzspjcs99994>;39kzfpjcd99994,;249999dcd999942;249999dcdafzk92;,4fzfpdcjp99942;,4fzk9scjp99993:>49999accp99993;***",
"***;389cLIb99s943349as9jLIm949943349as9dDICafzf93349994sDISp49994        IDs9sa943379s9pCIDd499943349s9pVILj9zk943349949bILc99993;***",
"***;399bPIb999999999999bLIm949999999999jKICafMka9999999jKICp499  HHHHHHHH   49999999999sSIKd49999999999sVYLjszzf9999999aVILc99993;***",
"***;39zzfa999999kzs949fzka999999fzs979fzka99afzzf99989fzkfa999  HGGGGGGGGH H 989fzf949szkfa99999fzf949szkfa99skzf99999azkfa999993;***",
"***;3fkq1>399999zzs99skq2>34999szzf99skw2:2799kMf9899akt5:2499 F GGGGGGGGH FH        aft6>,4999afMk999ft6>>499szz99999ft71>399993;***",
"***:qt6123449999sf99fk61234499fzkf99fk61224489as9989fk7122349 FFF. HHHHHH..GH GHHHHH zq2123489szzfa9szw51234899ss999aze5123499993;***",
"***:6q1>3pjja999999skq1:39jcs9kzf99skw2:29dcs999999akt5:27   HGGGG.. ....GGGGH  GGGH     4scdpfzk999ft6>>4scjp999999ft71>3ajjp993;***",
"***=<1234cLPb94999fk61234jLImp9s99fk61234dDICp4989fk72223a  HGGGGGGGGGGGGGGGGH  GGGH HH       9sa9szw51239mILj4889sze51234bPLc983;***",
"***=-:349cPIVa9999eq1:378jLIVa9999ew2:244dKYSs9999et5:2     FGGGGGGGGGGGGGGGGGH GGGH GH  GHHHG 9999t6>>449mIPb99999t71>349bIPb993;***",
"***->34999afzza99451234999afzzs98441234999afzzs997412  HHX  FGGGGGGGGGGGGGGGGGH  GGH GH  GGGGHH 9942123499pfzzf99942123499pazzk93;***",
"***;379993>10tf994>;349994,16tf994>;249994,>6tf994,; HHHGX. GGGGGGGGGGGGGGGGHH  G    GH  GGGGGGH 93;>499973>2qks993:>399993>1qkf3;***",
"***;3999943215eza4334999943215wzs7334999973212qzf73 HGGGGX. HGGGGGGGGGGGGGGHF $ GH GGGH  GGGGGGGH94334999842216kf94334szf943216t9:***",
"***;39999993>17kf99999999994>>6tf99999999994,:6tf9 HGGGGFXX HGGGHHHHHHHHHFHH y$ GH GGGH. FGGGGGGH 99999999993:1qks9949szzf993:1q7:***",
"***;399999943215ezs9999999943215wzs99999fzs73225qz HGGGGFXX  GGGH..     HHH !y H G GGGH. FGGGGGGH f99999szf943226kfa999fkzka43211=***",
"***;3999999993>17t999999999994>>6t999999kMf984,:6 HHGGGFFX   GGGH F !y$$   G  FH   GGHH. FFGGGGGH f99999szz9943:1qk99999szza943:==***",
"***;3999449994322249999949fzs432224999999s9994322 HGGFFFF.  F GGH FG y$  GGGGGGH G  H  %..    GGH 4799999s999943224799999ss99943>-***",
"***;399pdjp99993>:39999pdcNNf994>;34999pdjs99994, H        FFF GH FGG  GGHGGGHGH GH H %% GGGGH HH >49999ajdp99973;>49999pjjp99943;***",
"***;389cLLb989943249994dDPVkzzs43249997dDImafzs73  HHFF %  HHHF   FGGGGGHHG  HHH GH  .%% GGGGHH H 349949nLDd9kf943349949cLLj99993;***",
"***;399bIIn989999999999bPYVakMf94499999jLRCafNf9 HHGGF %% HGGHH G FFGGGHHG    HH HH  .%% GGGGGHH 479999aVYLjszzs9979999aVIIc99993;***",
"***;39fzzja99999kka989fzzja9sf99999989fzzja9afz HHGGFF %% HGGH GHH FFGGHGF    GH H   %%% GGGGGGHH 9999szzzjp9fkzf99999akzzjp99993;***",
"***;4skq2>39999szMf99skw2>39999999999akt5>2499 HGGGGF %%   GGH GGHH  GGHGF     H H   %% GGGGGGGHHG 999fk71,499fMz99999fkq1>399993;***",
"***:9e62224499fzkf99fk6222348999fka9fk7222348 HGGGGGF %%   GGH GGGHHH GHG      H     %% GGGGGGGHHH 9skw51234499fs989ake6222449993;***",
"***:0q1:39ddpazzs99skw1:39ddp989zNfskt2:27dda HGGGGGF %     GH GGGGGH GHG      H  F  %% GGGGGGGGHHH fk6>>4pddp999999fkq1>3pddp993;***",
"***-12224cLLc9sf99fk62224dDLn949sfzk72223sDL HGGGGGG %%      H GGGGGH FGG   GHH  FF  %% GGGGGGGGHHW w52237nLDd4889ake62234bLLj983;***",
"***==:349cIYVa9999kw1:344jLRCa9999kt2:244dLR HGGGGGF %%  FF    GGGGGGH GG GHH   FF   %% FGGGGGGGGHH 6>>449VYPc99999k01>349nIIb993;***",
"***=>2499pjzzk98876222499pjzzza9876222499pj HHGGGGGF %%   FF    GHHHHH FFG   FFF  HH %% FGGGGGGGGHHH 23499ajzzf98975223499ajzzf93;***",
"***;349993>1qkf994>;349994,17kf994>;249994, HGGGGGF %%  GG GFF             FF   GHHW %% FGGGGGGGGHHW 499993>2tka993:>379993>2wks4;***",
"***;3999942226eka4324999943226wks4324999943 GGGGGFF %% GGGG GGFF             GGGHWW  %%          HHW 4999942226kf94234999942226e9:***",
"***;39999943>1qkf99499999993>>7kf994799999 HGGGGFFF %# GGHGG  GGGG   G  GGGGGHHHWHH  %%%%%%%%%%%%  W 99999942:1wka97499999973:1qq:***",
"***;399999943226eks99999fks43226wks9999999 HGGGFFF %%# GGHHGGG GGGGGHHHHHHHHHHGG   F ############%%  999999942226kfa99999ff942221-***",
"***;3999999943>1qk999999zMf943>>6kf999999 HHGFFFFF %%# GGGGGGGG   GGGGGGGGGGGG  FFFF             #%% 9999999943:1wk99999fMza943:==***",
"***;39994499943226799999sf999432257999fk9 GG      %%## GGGGGGHGGGG             FFFFFFFFFFFFFFFF   ##% akf9499942226799afzfs99942:=***",
"***;399psdp99943>:39999psdp99993>;3499k  H  %%%%#%%%#  GGGGGGGH                               FG    # fNNjs999943:>499szNcdp99943;***",
"***;389jDLc999943249994dDLnaffs4323999 i  %%%%#######  GGGGGGGG ########################## ++ GH       fVLDd99994224999fVLDj99993;***",
"***;399bIYn949994499999cIRVakNf994799 i %%#####        GGGGG    #%                %%%%#### ++ GHG      aCRPj49999999999aVYIc99993;==;",
"***;39fzVla99999999989fzVla9skzks9998 u %#         FF  GGGG &&& #% &&&&&&&&&&&& J %%%%%%%# +      G    kzVjp9999aff9899fzVla99993;;56",
"***;4szw2>39999999999akt2>399azMf9999 u %#        FFG  GGG JJJJ #%                %%%%%%%# + &&&  HH   kq1,49999fMz999fkq2,499993;:qM",
"***:9e721,3499999989fk751,3489ffa989f  %%    FFF  GGGF GG JJ& J #%%%%%%%%%%%%%%%%%%%%%%%%# + ! J  GHH w62,2449afzkf9afe6212449993;:7k",
"***:qq1:39ssp999999akt2:27asp9999999 E %    FFFF  HHHF GG JJ&&J ##    %%%%%%%%%%%%%%%%%%%# + ! J  GH k71>3psa9sMza99fkq1>49ssp993;;49",
"***;12224jDKc98999ff75223dDLb94899f EE %   HHFFF    FF GG JJJJJ ## && %%%%%%%%%%%%%%%%%%%# + JJJ    w62224bLDd9ff9afe62224cKDj983;;34",
"***=-:349cIYV99999kt1:244jPRCp9999 AEQ     HGGGF       GG JJJJJ    JJ #%%%%%%%                     k7>>349VRIc9999skq1>449nYIb993;;49",
"***=;2499alVzf99976522499alVNka98 AEQQ     HGGGF        G J  JJ&&&&JJ #%%%%%%% &&&&&&&&&&& OO FGH  6223499dbVzf98976222499abVzf93;:9z",
"***;249994,2qzf994>:34999421qzf9 AAEQ 99   HGGG  HHHH   G J  JJJJJJJJ ##%%%%%% &o&o&o&o&o& OO HH  3:>349993>5tka993:>349993>2wzs4;:wB",
"***;3999942226efa4224999942>26w AAEEQ 999  HGGF GGGGHH    JJJJJJJJJJJ ######## &o&o&o&o&o& OO    93,3499993,157ff93,2499994,157e7::7k",
"***;39999943>1qzf97449999943>  AAAEQQ 9999 HGGF GGGGGHH                        &         & OO   k994499999942:2tka94499999943:1wq:;49",
"***;399999942256efs99999999  AAAAEEEE 9999 HGGF HHGGGGHH              &&&&&&&& & H H H H & OO   qkfp9999999942257ffa9999999p42251;;38",
"***;2444444442;1qk944444444 AAATEEEE 44444 HGGF GGHHGGGG HHHHW        J  JJJJJ & G G G G & OO H 2tk944444444442;1tk944444444442;=*;39",
"***=;>>>>>>>>;==152>>>>>>>> AAAEEAAE >>>>> HHG  GGGGHGGG GGGHH HHGFFF J&&JJJJJ & H H H H & OO H ;221>>>>>>>>>>;=;152>>>>>>>>>>;=**;39",
"**===--;;;;---==-;------;;; AAAEAAE ----;;; HG  GGGGGHHH FGGGH        JJJJJJJJ & H H H H      H =;;-----;;;---===;;-----;;;;--====;39",
"*=;>>>>3ll4>>>>>>>>>>>>5jb7,  AAAEE >>>2jb7,HHG GGGGGGGG FGGGH HHGFF F           G G G G    G W >>>>>>>,7bj4>>>>>>>>>>>>4ll3>>>>>>249",
"*;24747bIIb444447744444jPYm744 AEE 4444dLRC9 HHH  GGGGGG FGGGH      FF J&&J&&J F            HH  44444449VYLd444444444447nIIc444444479",
"*;3999fNVVd99999ffap99fzVVj9999   9999fzVVj99            FGGGH HGHH FF J&&J&&J F        GH     9999999afVVba9999999999afVVns999999999",
"*;399szt2239999szMs99akt62399999999999kk61379999zNf      FFGGH     FFG J&&J&&J FF FFFFGGGHH   99999999fzq2249999999999fzw224999999999",
"*;3pfe751,3499fkzf99ffq51,3499999989ffq61>3489skzfa9sfq62 FFHH GH HGGG J&&J&&J FF FGGGGHHH   9999999afe62>,449999999afe751,4499999999",
"*;4szw1:37pp9azMf99azt2:24pap9999999kt5:24pap9kNf999kk6:24       HGGGG J&&J&&JJ FF         pp9999999fz01>39pp9999999fzq1>39pp99999999",
"*:7e952,4dSDc9ff99ffq62,3dSDc94999ffq62,3aCDbasfa9sfq62,3p HF     HGGGG J&&J&&J FFFFHHWW 9nDCa4999afe62124cDSd4999afe751,4cDSd8999999",
"*:qw1:344cIRV99999kt2:244jIRCp9999kt5:244dLRSa9999fk5:244 HGGF     HGGG J&&J&&J FFFGGHHW pSRLj9999fz01>349CRIc9999szq1>349mRIb9999999",
"*;152,499sVVVf9887762,399anVVf998776227faabVVf9987762,39 HGGGFH    HGGG J&&JJ&&J FGGGGHHH jVVzs989762>2499jVVzf98976512499dVVzf999999",
"*=-:34799422wzf994>:24499722qzf994>:27kNf722qzf9942:244 HGGGFHGG    HGGG J&&JJ&&J GGGGGHH 326kk9973:>34999326tza993:>34999324tzs99999",
"*=;,499994,157efa4,,3999f94>26efa42,39fzze4>26wfs42,399 HGGFHGGGG   HGGGG J&&J&&&J GGGGGHH >16qff93,2499993,16qff93,2499993,159ef9999",
"*;2499999943>1qzf9444999zMe3>1qzf944499azMf4>>6zf94449 HGGGHGGGGGH  HGGGG J&&J&   GGGGGGGHW 2:5tk974499999442:2tza94479999743:1wzs999",
"*;3999ff99942157efa99999fzze4157efa99989fzzf4126wfs99 HGGGGGHGGGHGG  HGGGG J   GGGGGGGGGGHHH ,26qff9999999993,26qff9999999994,15qef99",
"*;399szzs99943>1qzs999999szM93>1qzf999999azMf4>>6zf9 HGGGGGGGHGHGGGG  HGGG  GGGGGGGGGGGGGGHH 42:5tk999999999442:2tk999999999743:1wza9",
"*;39fkzf948994215679999949ffs42>5679999949fkf72>2679 FGGGGGGGGHGGGGGG  HHG  HGGGGGGGGGGGGGGGH 3,2679aff98449993,267799999449994,16779",
"*;3azMfppp999743>>499999ppp99943>:379999ppp99943>:2   HGGGGGGGGGGGGGFF    pa HGGGGGGGGGGGGGGGH 42:>4fMz99pp999942:>499999pp999443:>39",
"*;39ff9dCSj999942,39998dCDc949942,37994aVDc949942, FFF HGGGGGGGGGGGGFF pnDmp HGGGGGGGGG        93,24skfpcDCd9ff93,249989jSSd99994,,49",
"*;39999bIRm949944449999cIRC949994449999jLRSp49994 FFGHH HGGGGGGGGGGFF 9sDRKs9 HGGGGGGG  HHHHHH  7449999pCRIcszza74449999mRIc999944449",
"*;3989fzCCj99999999989szVCj99999999989szVCc98999s FGGGGH HGGGGGGGGGF 9afVCbp79 HGGGGG GFFGGGGGHH fs9889fVCVs9kzkf999999fVCVd999999999",
"*;399azt62399999999999zk62399999999999kk62379999k FGGGGGG GGGGGGGGG 99fz7224999 HGGG FFFGGGGGGGGH z999fzw22499fMz99999szw524999999999",
"*;39ffq61>3499999999ffq61>3499999989sfw61>349999 FGGGGGGG HGGGGGGH 9afw62>24999 HGGH FGFGGGGGGGGG f9afe75>,449aff9899feq5>,3499999999",
"*;4azt1>249p9999999azt2:249p99999999kt5:249p9999 FGGGGGGG HGGGGGH 99fz6>>39pp999 HH FFFGGGGGGGGGG 99fzq1>47pp9999999fzq1>34pp99999999",
"*:7eq61,3dCSj98999ffq61,3sCSc98999sfw62>3aVSc949 FGGGGGGGG  HGGH 9sfw62>29nSmp499 H FFFGGGGGGGGGG  fe75>,4cSVs48899feq51,4jSCd9999999",
"*:qe2>244cIRm99999zt2:244jIRCp9999kt5:244dLRSp99 FGGGGGGGH   HH 99fM6>,34pDRLd9999  FFGGGGGGGGGGGH  q1>449CRIc9999szq1>349mRIb9999999",
"*;561,499dCSVf9999761,399sVSVf9989762>399aVSVf99 FGGGGGGGH      89962>249pbSVza989  FFGGGGGGGGGGGH  5>2499cCCzs9899751,499jCCzf999999",
"*=;>34499426tzs994>:24499425wzf9942:24499425wzf9 HGGGGGGGH      942:234997427zk994  FFFGGGGGGGGGGH  >44799326kz9994>>34999426tza99999",
"*=;,499994,>5qef94,,399994,>5qefa4,>399994,>57ef  HGGGGGH    FF s42>2499943>26wfs9   FFGGGGGGGGGH H 2499943>16qfs93,,4afs93>16qff9999",
"*-2449999443>1qzs94449999443>1qzf94449999943>17z  HHHHHH HHGGFF f944499999432>6kk9   HFFGGGGGGGG  HH 79999742>2tz94447szza742>2tza999",
"*;3999999994,16qefa999999994,>5qefa99999sfa42>57 G      HGGGGFFF fs9999999943>26wf FH HFFGGGGGGH GGH 9999fs93>16qfs999akzfs93,16qff99",
"*;399999999943>1qzs99999999943>1qzf99999kMf943> GGGGGGGGGGGGGGFF zf999999999432>6k FGH HHFFFFH  GGGH 999fMz9442>2tz99999fMza442>2tza9",
"*;39999949sf94,16799999949sfa4,>57999999fks9942 GGGGGGGGGGGGGGGF 79999998449943>26 FGGH  HHHH  GGGGH 999akf9993>169999999ff9993,16999",
"*;399999pszzs943>>4999999szMf943>>379999aa99994 GGGGGGGGGGGGGGGF :2499999p9999432: FGGGGG    GGGGGGGH 999aa999742>1499999aa999442>>39",
"*;39999dVSVzff94,>39998smSVzkfa4,>37994pmCc9999 GGGGGGGGGGGGGGGF >24994pcSbp89943> FFGGGGGGGGGGGGGGGH 89jCms9fs93>249999dCVd99994,,49",
"*;39999bIRVfzzs94449999cIRCfzMf94449999jLRSp499 GGGGGGGGGGGGGGGGF 49994aDRKs4999444 FGGGGGGGGGGGGGGGH 4pCRPjazza44449999mRIc999944449",
"*;3999sbSSj9fzkf999999szSDcpfzs9999999azCKb9899 GGGGGGGGGGGGGGGGF 99999fVKVp8999afs FGGGGGGGGGGGGGGGH 9fVKCd9kzfs999999fVKCd999999999",
"*;399azk45499fzzs99999zk75399999999999kk753799 HHGGGGGGGGGGGGGGHF 9999fzw5379999fMf FGGGGGGGGGGGGGGHH fzw64499fMz99999szt654999999999",
"*;39sfw61>3489fka989sfw61>349999sf99sfw61>3499 HHGGGGGGGGGGGGGGHF 99afeq2>,4999fzzf FGGGGGGGGGGGGGGHH eq5>,449akf9999feq6>>3499999999",
"*;3azt2>249999999999zt5>24799999kMf9kk5>237999   HHGGGGGGGGGGGGHF 99fz61>34999fMzs9 FGGGGGGGGGGGGGGHHH 1>34999999999szw1>349999999999",
"*;7fw61>3dmVd98999sfw61>3amCj949fzkfw62>3pnC   G   HGGGGGGGGGGHH 9afeq2>29cCbpszf9a FGGGGGGGGGGGGGHHWH >,4jCma88999feq61,4dVmd9999999",
"*:qt2>244cIYm98999zt5>244jPRCp499szk5>234dL  GGGGG HHGGGGGGGGGH X9fz61234pDRKd9999f FGGGGGGGGGHHHHHHWH 349VRIc9999szw1>347mYIb9999999",
"*;561>399jSKVf9999961>399dCKVf9989962>399a  HHGGGGG  HGGGGGGGGH 89972>249pnKCj99899 FGGGGGHGHHHHHHHHWH 499bKSzs9899q61,499cDKbs999999",
"*=;>24499444tzs9941>24499434ezf9942>234994    HGGGGG  HGGGGGGH  942>23499734wzf9943 FGGGHH         HHH 499447kz99941>34499447kza99999",
"*=;>399994>>6qes94,>399994,>6qefp4,>39999 HHGG HGGGGG  HGGGHH    42>2799942>2qefa72 FGGH  GGGGGHHHG  H 9993>16wfs93>,499993>16wfs9999",
"*-2449999443>1wzs74449999743>1qzf9444999  HGGGG HGGGGG HHHH   G  94449999943216kf94 FGH  GGGG      HG  999432>5tz944449999442>2tza999",
"*;3999999994,16wes999999asa4,>6qefa999  HHGGGGGG HGGGGG     GGGG fa9999999942>2qefa FH  GG    GGHHH    999993>16wfs999999ss93>16wfs99",
"*;399999999443>1wzs99999zzs943>1qzf99 HGGGGGGGGGG HGGGGGGGGGGGGG zf99999999943216kf9   GG  GGGGGGGHHG  99999432>5tza9999szza442>2tza9",
"*;399999449994,16q9989afzka994,>6q999                            q9999999489942>2099      HHHGGGGGGGHG s9949993>16w9999sfzf9993>16q99",
"*;39999999999443114999zNfa99974311479                            >249999999999432>249                  zza9999432>2499szzfa999742>149",
"*;39999smmd98994,>39afzNVmd99s94,>349                            >24998pcVcp99943>2499                 zVVba99993>,499azVVns99993>>39",
"*;39999cIIn999944349zMfb@@@                                                                                 49994444999aVYIc999944449",
"*;3999sbKKc99s999999fzfzKLbafzks9999999zSLnp4999as99899jSLVp49999999999fCLCa49999999999fVLCsszzfa999999sVLDd99999sa9999sVKDj999999999",
"*;399azk7349zzs999999fzk74499fzzf99999kz94499999fzf989fzw4479999999999fzw4379999999999fzw4379afMk99999szk4379999szz999szk737999999999",
"*;39sfw61>39kzfs9999afe71>3499fzs989afeq2>24999fzzf9afeq2>2499999999afeq5>,4999999999seq5>,489szf9899sew6>,4899sfzk99sew61>3899999999",
"*;3azt512349afzzs999zt512349999a9999kk61234999fMka99fk61234999999999fz71134999999999fzq11349999a9999fzq1134799fMzf99fzr21244999999999",
"*;7fe61>3snnd9kza9afe71>3pbmd98999afeq2>3pcmjpfzf9afeq2>29cmc98999afeq5>,9cmcp89999seq5>,4jVcp89999sew6>,4dmbaazk99ser61>4dmns9999999",
"*:qt51234bIIn99999zt51234jLYV94999kk61234dLRCp9a99fk61234sDRDa4999fz71234pDRDs4999fzq1134pCRLd4989fzq11349VYLj9999szw21237nIIc9999999",
"*:661>399jKLVs9999w71>399dDPVs9999wq2>349sSPVf99899q2>249aCPSf99899q5>249pVPSj99899q5>,47pnPKz99899w6>,499bLKz99899w61>499cLKba999999",
"*=:123499747kzs9942123499747kzs9942123499777fzf9942123499774wzf9944123499974wzf9974113479974wzk99741134499749kk99931124499747kza99999",
"*=->399993>16wfs94>>399994,>6wes94,>379994,>6wesp4,:2499942>5qesa42:2499942:2qefa72:,499943>2qefa93>,499993>10efa93>>499993>16efa9999",
"*-,34999943212wzs4334999944211qzf7434999944311qzf94349999443117zf94349999943216kf94347999943216kk94344999943215tz94334999943215tza999",
"*;3999999994>16efs9999999994,>6wes9999999994,>6wes99999999942>5qes99999999942>2qefa9999999943>2qefa9999999993>10efa9999999993>17efa99",
"*;39999999943212wzs9999999944311qzf9999999944311qzf99999999943217zf99999999943216kf99999999943216kk99999999943215tza9999999943215tza9",
"*;399999999994>16w999999999994,>6w999999999994,>6w9999999999942>5q9999999999942:2qw999999999943>2qw999999999993>1qw999999999993>17w99",
"*;39999999999432113999999999944311479999999994431147999999999943214499999999994321249999999999432124999999999943212499999999994321249",
"*;39999999999993;-29999999999994;-24999999999994>-,4999999999994>->4999999999994,->49999999999942-;49999999999992-;39999999999993;;39"
};
