/* XPM */
static char *_c308479506f413cdfc52550a592edffh9eLZz0BluRJCi7b[] = {
/* columns rows colors chars-per-pixel */
"133 129 85 1 ",
"  c black",
". c #030F03",
"X c #1F1B18",
"o c #252426",
"O c #292423",
"+ c #2F2926",
"@ c #212129",
"# c #2D2C2C",
"$ c #39322E",
"% c #20233D",
"& c #3B3431",
"* c #313C31",
"= c #3F3A3A",
"- c #7F1707",
"; c #433B37",
": c #433D3B",
"> c #4A413C",
", c #202341",
"< c #484848",
"1 c #5E5252",
"2 c #625655",
"3 c #655856",
"4 c #675A59",
"5 c #6A5E5C",
"6 c #6E615D",
"7 c #71645F",
"8 c #6A5F60",
"9 c #6E6362",
"0 c #726662",
"q c #766963",
"w c #7B6D66",
"e c #716768",
"r c #756B6B",
"t c #7B6E6A",
"y c #7E7067",
"u c #7E7069",
"i c #796F70",
"p c #7A7170",
"a c #7D7373",
"s c #7F7573",
"d c #7C7374",
"f c #7D7475",
"g c #81726B",
"h c #80736C",
"j c #83746C",
"k c #85756F",
"l c #807470",
"z c #817570",
"x c #827673",
"c c #877770",
"v c #827774",
"b c #887774",
"n c #827875",
"m c #837876",
"M c #887871",
"N c #887872",
"B c #897872",
"V c #8A7973",
"C c #8C7B75",
"Z c #8E7D77",
"A c #807879",
"S c #837A7B",
"D c #847A78",
"F c #847C7D",
"G c #8D7C79",
"H c #917F7A",
"J c #917F7B",
"K c #93817C",
"L c #95827E",
"P c #1D2E91",
"I c #1F339E",
"U c #2038A6",
"Y c #2136A8",
"T c #2139AC",
"R c #233BB3",
"E c #2942D1",
"W c #6478E5",
"Q c #968381",
"! c #978480",
"~ c #998683",
"^ c #9B8784",
"/ c #9D8985",
"( c #9D8986",
") c #9F8A88",
"_ c #A18C89",
/* pixels */
"1111111111111111111111111111111111111111111111111111111111111111111111111111111111111111111111111111111111111111111111111111111111111",
"1112599995555555555559952248999999999995324899999854445542489999999999984235985458544455423599555555445542235599555555555223559952111",
"1115rffffattpptwpptqufft84edfffffffffffp94edfffffatqqqup949pfffffffffffp949pfftqtauqqqtpe49pffuqtpuqqqtpe430taffuqtpuwtpr437tpffr5111",
"1119fFAfAnuuvnhuvnuuDFAp99uADDDDDDDDFFApe6tADDDDDAlyyjspe6rnDDDDDAADFFAfe6rvDAlulnlyujsfr6evDDlulnvyyhsfr66wjnDDvuunnllfr96qunDDp5111",
"1119fArethyyhjyyhjyjDAr90qyjllllljjlDAr90qyjllljljyylnr90qtjlllljjjlDFp90qtjljhyujhylnpe9qtuljhuyjhyjnae9qwwujljhyyjvAse90qwyhljt5111",
"1115rt96qhMMjyyyyyhlfp96qgMVjyyyyyhlfpe50yMMkyuuyyujspe50ucVcuuyyyujlde57tcMcguuuuyjlfr67wkMMgyuyyyhlfr66wkMMgyyyyyjlfr96wjVMhyyq4111",
"1112590qwM^(Cuyyyunfr90qwc~(Guwuyylvr90qwk!(Hgwuuulnr90qwhL(Kgwywylnt99qqgK)Ljwuuulnp99qqyH(~kwuyyjnpe90qyG(~cwyyyjnae90qwC(^Myyq4111",
"111236qyyM~^Gjyyyusp96qtycQ(Gjuuyyspe5qwykL(Hjuuuusae50wwhK(Klyyyyaae50wygH(Qcuuuuuar57wyyG(!Muuyyusr67wuuC^~Muyyyufr96wyyV^^Mhyq4111",
"11137qwyyttlvnjyywe90qwuyytuvnjyute90qwyyyttvnlyutq90qwyyyttvnlyywq90qwyyyttvnlyutq99qwtyyttlnlyyyq990qwyyttlnvuyyw090qwyyttlnnhq4111",
"1114qyyyyq69rflhyw66quuyyw76rflhuw75qtyyyw76rfljuw750wyyyw05efljgw050wyyyw05eavjht057wyyytq6epfjhyq57wyyyyq69pflhyq66wyyyyq69pflw5111",
"1114qyyyywq09eanjwqqwyyyywq09eanjwqqwyyyywq09epnlyqqwyyyytw099tnlyqqwyyyyywq09tvluwqwyyyyywq09rvvywqqtuuyywq09rvnuwqqwyyyywq09rfp5111",
"1114qyyyyyht69rflhyyyyuuyyyw66rflhyyuyyyyyuw75rflhyyyyyyyyy        yyyyyyyyuq5easjyyyuyhgyyt05epfluyuuuyyyyyq69pflhyyyyyyyyyq69ir5111",
"1114qyyyyhnvt09esnjyyuvnjyywq09eanlyyyyyyyytq09epnluyyuyy  EEEEEEEE   yyyylnuq09tvluyylnlyyywq09rvlgyyuyyyyywq09rfvhyyyyyyyywq0952111",
"1114qyyyyhnDlt69rsuyulnnjyyyyw66rfuyyhyyyyyyuw76rfuuyyuy  EEPPPPPPPPPP yyylAnuq5easuyhvAlyyyyt05epsuyhuuyyyyytq69psuyyyyyyyyyyq632111",
"1114qyyyyyhlnvt09ewuvnvjyyyyywq09equlnjyyyyyuwq099qtyyyy                       q09qtlnnluuyyyywq09etjnluyyyyyywq09ewyyyyyyyyyywq63111",
"1114qyygMMjhnnjw65qunnjgcMjyyyyw75quvnlgcMkyuuuw750tyyy  WEEEEEEEEEEEEEEEEEEEE y057wlAvhkMcgyyytq57wlnvujMcgyuhyq56wyyyyhMMgyyyyq4111",
"1114qyyM~(Myujywqqwyjjyc~(Zywyywqqwyjjyk!(Hhlnluqqwy     WPPPPPPPPPPPPPPPPPPPE     tujugH(LkwyyywqqtujugG(~cunvuwqqwyyyuM(~Muyyyq4111",
"1114qyhM^(MyyyyyuuyyyyuM^(ZuwyyyuuyyuuyM!(GhlDvhy    WEE WP    PP     PP    PE .EE      K(QkwyyyyuuyyuujG)~cjnnlyyyyyyyhG(^Myyyyq4111",
"1114qunMlhyyyyyuvnjyyyvnvhyuyyyyvnjuyylnvluyhlnn WEE WEP EP    PP     PP    PE .PE EEEEE lhyyyyylnlyyyjnvlhuyjvnvhyyyyhnnlhyyyyyq4111",
"1114qlvp96qyyyyhnnjyylvpe6qtyyylnAluyjvde50tyyv WEEE WEP EPPPPPPPPPPPPPPPPPPPE .PE PPPPPE 7wyyyhvDvuuulfr96wuylnnhyyyulft96qyyyyq4111",
"1115pfr90qwuuuuyjjyuvvr90qwwyylnvlyulvr900qwyy WEEPP WEP EPPP      P      PPPP .PE .PPPPPE wuujnnlhyjnae90qwyuujjyyyjnse90qwyyyyq4111",
"1115rp96qgcMhyuyyyulvp95qucMjhvAluyjvae50ykMky EEPPP EEP EPPP      P      PPPP .PE .PPPPPP Mkglnnuyhlfr66whMcguuyyyulft96qhMcgyyq4111",
"1112890qwM~^Myyyyuvfr90qwc~(Zguluulvr90qwkL(H EEPPPP EEP EPPPPPPPPPPPPPPPPPPPP .PP .PPPPPPE Lkyjhyjnae90qtZ(~cwyyyjnse90qwM(~Myyq4111",
"111235qwyM^(Ghyyyufp95qtyc~)Gjyuyysae50wykQ)K EPPPPPP EP EP    PP     PP    PP PP ..PPPPPPE ~Myyuuufr66wyyG(^Myyyyuft96qwuM(^Muyq4111",
"11136qwyyyhcMnuyywe90qwyyyhlnnjyytq90qwyyyhl EEPPPPPP EP EP    PP     PP    PP PP ..PPPPPPE nMlyuuwe90qwyuhlnMlyyywe90qwuuglnMnuq4111",
"1114qtyyyw69ifluyw65qtyyyw79rflhyw650wyyyw76 EEPPPPPP EPP EPPPPPPPPPPPPPPPPPPP PP .PPPPPPPE eavhuuq56wyyuuq6eavhgyq56qyuyuq69pvlq4111",
"1114qyyyywq09esvjwqqwyyyywq09eavjwqqwyyyywq0 EPPPPPPPP EP EPPPPPPPPPPPPPPPPPP PP ..PPPPPPPP 0ervlywqqwyyuuwq09rvlywqqwjnlhwq09rfu5111",
"1114qyyyyyyq69ivluyyyyyyyyyw66rfluyyuyyyyuyw EPPPPPPPP EP EPPPPPPPPPPPPPPPPPP PP ..PPPPPPPP 05eavjyyyyyyuuyyq59pvjyytujnnlyyq59pt5111",
"1114qyyyyyywq09esnjyyyyyuuywq09eanjyyyyyln   EPPPPPPPP EP EPPPEEEEEEEEEEPPPPP PP .PPPPPPPP yw00ervlgyyyyjnluwq09rvlhyyylvnvhwq0992111",
"1114qyyyyyyyyq69tfuyyyyyuyyuyw66rfuyyyyyv EE EPPPPPPPPP EP EPEE         EPPP PP ..PPPPPPPP  yt05edlyyyyylnnuywq59pvuyyyyjnnhutq532111",
"1114qyyyyyyyywq09etyyyuuuulnjwq0eetyyyyy EEE E       P. EP EEE PPPPPPPPP EEE PP .       PE P yw00eqtyyyyyjuyyywq0eqtyyyyyjjyyywq63111",
"1114qyygkcgyyyyq65qyyyygkMDDluyw65qyyyy EEEEP .*.*.*. . EPP   PI       PP   PPP  .**.**.   P jyt056wyyyyhckgyyuuq56wyyyyhccgyyytq4111",
"1114qyyM~~Mywyywqqwyyyyc!(Gvnnjtq0wuyyw EEEPP .**.*.*.  EPPPPYR EEUUUTR PPPPPPP .*.**.**. PPE lywqqwyyyyC~LkuvluwqqwyywuM~~cuyyyq4111",
"1114qyyM((CuwyyyuuyyyyyM^)GjnDlytyuuyy EEEPPPP  ****.   EPPPRR EE     TR PPPPPP  .*.*..  PPPE vyutwyyyyhG)~cjnnluuwuyyyuG)(Myyyyq4111",
"1114quvMnchyuuyulnjuyylMnchujluyyuyyyy EEPPPPPP.     -  EPPRR EE  o o  RT PPPPP        ..PPPE jyuuyyyyjnMnlgulvnlhuuyyuvMnlgyyyyq4111",
"1114qjvpe6qyyyylnAjuyjvae6quyyyyyuuyy EEEPPPPPP... ---  EPPRU E o < < o Y PPPPP  -- .....PPPPE yuuyyyulvt97wyylAnuuuyylvp96qyyyyq4111",
"1115usre00wwyulnvlyulvre00qwyyyylvjul WEEPPPPPPP.. --   EPYRU E < < < < P PPPPP  -- ....PPPPPE yjvlyjvae00qwtuuljyuyhvsre0qwyyyyq4111",
"1115ip95qukkghnAluyjva95qykkgyyunDljv WEPPPPPPPP.. --   EEYRU E < < o < P PPPPP   - ....PPPPPE ylAnjlvr66wgkkguyyyuulvp96qgkkgyyq4111",
"11139e00wM~~Myjluulvre00wkL~Cywyjlnv WEEPPPPPPPP. --    EEPRT E < < < o P PPPPP   - ...PPPPPPE yulnnaee0qtZ~Lcwyyyjvsre0qwM~~cyyq4111",
"111225qwyM()Ghyuyuva95qwwc~)Hhyyyuvf WEEEPPPPPPP. --    EEPYR E # < < o P PPPPE   -- ..PPPPPPE yuulfr66wwyG)^Myyyyuvp96qwyC((Myyq4111",
"111260wyygcbMvhyytre00wyygcnMnjyywr WEEEEPPPPPPP --     EEPPP EE  o o  PP PPPPE   -- ..PPPPPPP yuutee0qwyyhcnMlyyytee0qwuuhcnMluq4111",
"1114qwyyyq69pvlyyw65qwyyyw79tvluyw6 WEEEEPPPPPPP --     EEEPPP EE     PP PPPPPE  . - .PPPPPPP - uuq56wyyyyq6efvuyyq56qywyuq6eavjq4111",
"1114qyyyyw00ersvhwq0wyyyywq09ranjw  WEEEEPPPPPP ---     WEEPPPP EEEEEEP PPPPPPE  . -- PPPPPPP - lyq0qwyyyyw00etvlyw0qwyyyyw00erfu5111",
"1114qyyyyywq69pvlyywwyyyyyyq69tvly - WWEEEEPPPP --      WEEEPPPP       PPPPPPPE  . -- PPP    --  huttyyyyyywq59avjyytyyyyyytq59pp5111",
"1114qyyyyyywq0ersvjyyyuulvhwq0era  --   WEEEPP ---      WEEEPPPPPPPPPPPPPPPPPPE  . ---   ------  vlyyyuyyyyyw00ervlhuuuyhllhw00e93111",
"1114qyyyyyyytq69pvuyyyuunAlywq66t   ----       --       WEEEPPPPPPPPPPPPPPPPPPE  .. ---------- E fvuyyuyyyyyuwq59avuuuuylDnhutq522111",
"1114qyyywwyyywq0ertyyyuujluyywq0e EE -----------        WEEEPPPPPPPPPPPPPPPPPPE  .. -----     PE ertyyjvlywyuyw00ertuuuvnljyyyw052111",
"1114qyygkkgyyywq65qyyyugkkhyyyyq WEEE   --------         WEEP              PPP  ...      PPPPPE 056wyylDDcjgyyywq56wuujADMkgyyywq4111",
"1114qyycL~Myyyywq0wyyyykL~Chlvjw WWEEEEP                 WEEP #<<**####### PPP   .....PPPPPPPE uq0qwyuulG~Lkyyyyw00wuuulG~Lcyyyyq4111",
"1114qyyM()CywyyytwyyyyyM(_GhvDly WWEPPPPPP            EP WEPP              PPP .P ....PPPPPPE nhyttyyuuhH_~cyyyyuuyyuuuhG)(Myyytq4124",
"1114qylMGbhyyyyyyyyyyylMGMhyjvnvj WEPPPPPP  .     .  P  P EPPPPPPPPPPPPPPPPPP .  P ...PPPPPP lnnlyyyyuuvMGcguuyyhllyyyulMGbhyyyyq44er",
"1114qjnae6qyyyyyyyyyyhvfe6qyuunDl WEPPPPPPP ........ P* P EEPPPPPPPPPPPPPPPPP .# P  .PPPPPPE ylDnuuuuulvp97wyyuulAnuyylnp07wyyyyq45pA",
"1115ufre90qwuuuyyyyylvte97qwyyllhy EPPPPPP   ....... P  P EEPPP          PPPP P  P  PPPPPPE wyhllyyyjvsre00wwuhvnvluhlsre00wwyyyq45tv",
"1115pp95qyjjguuyyyyjvf950thjgyyyyyy EEEEE    ......   PP   EEPP #<<**### PPP   PP          jhyyyyyyylvt66qgjhylAnjuulnp96qyjjgyyq45qy",
"11149e00wcL!Mywyyulvte00qkL~Mywyyylv                P      EEPP          PPP        ..PPP Z~Kjwyuyjvare00wM~Lkulluhlsre00wM!Lcyyq44qw",
"111235qwyM(_Gyuuuuvf950wwc^_Hhuuuyvf WEEEEE   PPPPP PPP  EP EPPPPPPPPPPPPPP PP      ..PPP K_~cyyuulvt66qwyG_(Myyuujvp96qwyZ)(Myyq45qy",
"111250wyyhMGMluuutre00wyyhbGDvhuutre WEEEEP   PPPPP PPP E  P EPPPPPPPPPPPP P  P    ...PPE cGGMlyuytre0qwyykMGMluyytre00wyyhMGMlyq45un",
"11140wyyyw7epnluuw65qwyyyw09pnluuw65 WWEEPPP  PPPPP PPP E *P EPPPPPPPPPPPP E# P   ...PPPE q6rfvuyyq56qtyyyq6efvhyyq56qwyyyq7ednjq49aF",
"1114qyyyyw09erslhw00wyyyyw06ersljw00q WEEPPP  PPPPPP     PPP  EEEEEEEEEEE  EEP    ..PPPPE q79euvlyq7qwyyyyq79etvlyq00wyyyyw79etst55tv",
"1114qyyyyywq69pnlytwwyyyyywq69tvlytwwy EPPPP EPPPPPP PPPP   P             .   ... .PPPPPE yw05efvuywwyyyyytw05efnjywwyyyyyywq59ap54qy",
"1114qyyyyyyw00ersljuuuyyyyywq0ersljuuu WEEEE EPPPPPP EPPPPPPPPPPP................ PPPPPEE yyq00rpllgyyyyyyyyw00eullhyyyyyyyyw00e944qy",
"11140wwwwwwww059pvuwwwwwwwwwwq55tvuwwww      WEEEEEE EEEPPPPPPPPPPPPPPPP...PPPP.. PPPPPE wwwwq74efvywwwwwwwwww049fvywwwwwwwwww05214qy",
"11125666666665229e066666666665229e06666666666        EEEEEPPPPPPPPPPPPPPPPPPPPPP. PPPPP 666666424ee066666666665249e0666666666652114qy",
"112223345543332234333334554333223433333445433322343                                 P  34543332224433333455333222443333345543332225qy",
"1257666qbbw666666666666qcMt7666666666660lGt766666666        EEEEEEEEPPPPPPPPP        667tGl0666766666667tMcq666666666666wbbq6666670wy",
"140wwwtM((Mwwwwwttwwwwwc^)Gtwwwwwwwwwwwk~_Hywwwwttww        PPPPPPPPPPPPPPPPP    P wwwwyH_~jwwwwwwwwwwwyG_~kwwwwwwwwwwwtC)(Mwwwwwwwyy",
"14quuglDGGkyuyugllhyyulMGGcyyyyyyyuyyulMGGcgyyyyllj EEEE    PPPPPPPPPPPPPPPPP    P yyyjnGGVhyyyyyyyyyyhlGGMhyyyuyyyyyuulGGCjyyyyyyyyy",
"14quujnfe0qyyyujnAjuuhvfr0qyyyyyyyuuuuvvr0qyyyuunD EEPPPE   EPPPPPPPPPPPPPPPP   PPP yylni00wyyyyyyyyyylnp00wyyuuyyyyyylnae0wyyyyyyyyy",
"14qyllte97qwuulnnlhullpe97qwuuyyyyyyllpr96qwtujvn EEPPPPPE  EEEEEEEEEEEEEEEE   PPPP jlare60wyyyyyuuuhlsre67wuyyyyyyyhlste97wwyyyyyyyy",
"14qjna95qtghuhnDlyuhnfe50wghgyyyyyyhvfe50wghguvDl EEPPPPPPE  EPPPPPPPPPPPPP   PPPPPP nr66qyhgyyyyuuulnp96qyhgyyyyyyylnp96qyggyyyyyyyy",
"15tste07wkLLMullhullpr07qkKLMywuyyllpr07qhHLMgjl EEPPPPPPPPE  EPPPPPPPPPPP    PPPPPPP e70tCLHjwyyyhlsre00wMLKkyyyyhlste90wMLKkyyyyyyy",
"15pa95qwwM(_Gyyuuunfe50wwc(_Hgtuyuvfe50wwk~_Khy EEPPPPPPPPPE   EPPPPPPPPP    PPPPPPPPP qwgK_~cyyuulnp96qwyH_(Muuyyjnp96qwyZ_(Myyyyyyy",
"149e07wyyjGGGluuuttr07quuhCGGluuyytr00tlhhMGGl EEPPPPPPPPPPPP   EEEEEEEE    EPPPPPPPPP wyycGGMjyuytre00wyycGGMluyytre00wyykGGMlyuuuyy",
"1235qwyyyw0eanlyuw650wwyut0eanluuw650tvDlt00pn.EEPPPPPPPPPPPPPP            EEPPPPPPPPPP ytq0rvvuuyq56qwyyyq0rfnuyyq56qwyyyq0rfnjuuyyy",
"1257wyyyyw79etslhw07qyyylaq6etslhw07qylnnsq6e EEPPPPPPPPPPPPPPPP         EEEPPPPPPPPPPPE wq69rpllyq70wuyyyq79rpllyq70wyyyyq79eplluyyy",
"140wyyyyyywq69pnluwwwyyunAsq69pnluwwwyyhnAlw WEPPPPPPPPPPPPPPPPP ywwwy  WEEEPPPPPPPPPPPE ytw05efnutwwuuyyyww05efnhywwyyyyywwq59dnjyyy",
"14quyylluyyw09etslhyyyyylnnsq9etsljyuuuulnn WWEPPPPPPPPPPPPPPPP aljyyyy WWEPPPPPPPPPPPPPP yyq70rpllyuuuyyyyyq70rpllgyyyyyyyyw09epllyy",
"14quyjnnjyyywq69pnjyyyyyyjnAuq69pnlyuuuyyhn WEEPPPPPPPPPPPPPPP 5rvlyyyyy WEPPPPPPPPPPPPPPE ytw05efvuyyuuyyyytw05efnuyyyyyyyytwq59dnhy",
"14qulvnlywyyyw09etyyyyyywylljw09ertyyyuywyl WEPPPPPPPPPPPPPPE q6ertyyyyyw EEPPPPPPPPPPPPPEE yyq70rtuhllywwyyyyq70rtuyyyyywwyyyw79rtty",
"14qhnAlhggyyytwq66qyyyyyghgyyywq65qwyyyygg  EEEEPPPPEEEEEEEE yww050wyyyygg EPPPPPPPPPPPPPPP yyww056wlDnugggyyyyw056wyyyyyggyyyywq66qy",
"14qullukKKcyyyyw07qyyyykHLMyyyyw07quyyyhGL W  EEEEEE     EE yyytq7qwyyygCL EEPPPPPPPPPPPPPP yyyyq70wjlluMLHkullyq70wyyyucKKkyyyyw77wy",
"14qyuuuV(_ZytyytwwtyyyyM(_Gywyyywwwuyyyc^_ WE       @@@@,  gwyyywwwyyyyjL_! EPPPPPPP      PP yyytttyuuugH_(MjAnhtwwtyyyuG_(Myyyytwwty",
"14qyyulMHHcuyyyyyyyuyyjMGHcyyyyyyyuuyyjMGH EP @@@@@,      MgyyyyuuyyyyhvGHMg EEPP    @@@,     yyhlluwuulGHGjuvnvlyyyyyulGHGkyyyyyyyyy",
"14qyyjnfr0quyyyywyyuyhnvr0qyyyyyyyyyyuvvt0 EP %      @@@% qwyuuyuuyyyylnt0qw      @@,    @@%  yylDnuuulnae0wuylDnhyyyyjndq0wyyyyyyyyy",
"14qyllpr97qwyyyyuyyullpr96qwyyyyyyyyjlar96 EP %  @@@,     0wyyyyuuyyjlare60w @@@@,   @@@,  @% ulnnlyhlste67wwuhvlyuuhlspe97qwyyyyyyyy",
"14qjnf96qwygyyyyuuuhnfe60wygyyyyyyyunfe50w E   @%      @% yggyyyuuuylnr67qyg   @@,      @@,   lAnjuulnp96qtgguuuyyuulnp96qwggyyyyyyyy",
"15tlpr97wkHKcyyyuullpr07qkHKMyyyyyjlare6qh   EE  @@@@@@%  ZLMgwyuujlare60yCK EE   @@@@@,   PPP vluhlste67wMKGjtyyyhlspe97wcKHkyyyyyyy",
"15pf96qwwM(_Gyyyuunfe50wwM(_Hgyyyuvfe60wwk WEEEPP       PP _Ljyyuulnr60qwgL_ EEPPP      PPPPPP yuulnp96qwyH_(Myyyyjnp96qwyZ_(Myyyyyyy",
"14er97wyykHKGlyyuutr97qyyjGKGluuyytre6qyy WWEEPPPPPPPPPPPP LGlhyuyure6qwygMK EEPPPPPPPPPPPPPPP yuuute60wuuMHHMluyyytr97wyycHKMlyuuuyy",
"1246qwtyyw0rfnjyuw950wwyyw0qanluyw050wwyy WEEEPPPPPPPPPPPP einlyut050qwyytq0 WEPPPPPPPPPPPPPPP uuuq66qwyuuq0wvnhyyq66qwyyyw0rfnjuuyyy",
"1247wyyyyw76epsluw77qyyyyw76epslhw07qyyyy WEEEPPPPPPPPPPPP 6erslht06qtyyywq6 WEPPPPPPPPPPPPPPPP juq60wyyuwq69raljyq77wuljyq69rplluyyy",
"130wtyyyywwq69pnlywwwyyyytwq69pnlywwwyyyy EEEPPPPPPPPPPPPP q99rnlwwwwyyyyyww WEPPPPPPPPPPPPPPPP nuwwwtyyuutw06efnutwwyhnnhyw06efnhyyy",
"14qyyyyyyyyw79rpslhyyuuyyyyw76epslhyyyyyj EEPPPPPPPPPPPPPPP 06etsljuuuyyyyytq EPPPPPPPPPPPPPPPP aljyyyyyhljuq69rpllyuuhvnllyq79rpllyy",
"14qyyyyyyyyywq69pnjyyuuyyyyywq69pnlyyyyyv EEPPPPPPPPPPPPPPP wq09rnluyyyyuyyyw EPPPPPPPPPPPPPPPP evvuyyyylDnuww06efnuuuyulDnhww06efnhy",
"14qyyyuuwyjlgw79rtyyyyyywyjlhw76etuyyyyy EEEPPPPPPPPPPPPPPP yw06etuuyyyytwyyy EEPPPPPPPPPPPPPPP eruyyyyyhvlyyyq69ruyuuuuulluyyq79ruyy",
"14qyyyuuujnnjywq66qyyyyyyjnDluwq66qtyyyy EEEPPPPPPPPPPPPPPP yywq050wyyyyygyyy EEPPPPPPPPPPPPPPP 050wyyyyghhyyytw069wuuuuuhhyyywwq66qy",
"14qyyyykGKGnvluw76quyyyjGKGnvlhw06qyywyg WEEPPPPPPPPPPPPPPP yyyw060wuuwgMKMgy EEPPPPPPPPPPPPPPPP 60wyyyycHZjyljuq67wyyyukHGkyyyyw77wy",
"14qyyyyM(_GlnnjuwwwuyyyM(_HlnAluwwwyyy   WEEPPPPPPPPPPPPPP hwyyywwwyuuwhL_!jw EEPPPPPPPPPPPPPPPP wwtyyygH_^cjnnhwwwtyyyyZ_(Mywyywwwwy",
"14qyyyjMQLchlnvluyuuyyjMKLMhlnjuuuuuy EE WEEPPPPPPPPPPPPPP gyyyywyyyuuulGQGgy EEPPPEEPPPPPPPPPPP uuyyyylGQHkhvnljyuuyyulGQHcyyyyyyyyy",
"14qyyhnvwqwyylnnjyuuyunvtqqyuuuuuuuy WWE EEEPPPPPEEE   PP qtyyyyyyuuuulnaqqty EEEEEEEEEEEEPPPPPP uuyyylnarqwyulAnhuuyyjnfrqwyyyyyyyyy",
"14qyjlar96qwuulvhyyyjlar96qwuuyyjlyy WEEP EEPPPPEE  PPP   0wuuyyyyyyhlspe60wy EEEEEEE   EEEEPPPP lhuulspe67wyyjnluuuulspr67qyyyyyyyyy",
"14qhnfe60wyyuuyuyyyhnfe60wyyuuyuvAl EWEPPP EEPPEE PPPPPPP  uuuuyyyyylnr90qwuy WEEE   PPP    EEPP Avulnp96qwyyyyuyyyylna96qwyyyyyyyyyy",
"15tsar96qkGGkyyyyyhlar96qhZHcyyyln EEEEPPPP EEPE PPPPPPPPP HMgyyyyhlspe60yMHM WEE EPPPPPPPPP  EP nnlspr67wcHZjyyyyulspr97wkGGkyyyyyyy",
"15pfe60wwM()Zyyyyunfe60wwc(_Hgyy   EEEPPPPPP EE PPPPPPPPPP _Luwuyylnr90qwgL_! WE EEPPPPPPPPPPP P hlAp96qwyG_(Muuyyjna96qwyZ)(Myyyyyyy",
"14er97qyycKQGlyyyyur96qyykHQGly EEE  EEPPPPP   PPPPPPPPPPP QGluuyyupe60wygCQKc E EEPPPPPPPPPPPP  uupr67wyyMQKMjuyyupr97wyyMLQMjyuuyyy",
"1246qwwyywqwfnjyyw060wwyywqwsnl WEEPP EEPPPPPPPPPPPPPPPPPP qanluyw060qwyytqqan E EEPPPPPPPPPPPPP uq69qwtyywqtvnhyyq66qwtyywqtvnhuuyyy",
"1246wyyyyw79rpsjyw76qyyyyw76rps WEPPPP EEPPPPPPPPPPPPPPPPP 6epslht060wyyyw06eps  WEEPPPPPPPPPPPP yq60wyyyyq69raljyq67wyyyyq69raljyyyy",
"130wwyyyywwq69anjtwwwyyyytwq69p EEPPPPP EPPPPPPPPPPPPPPPPP q99rnluwwwyyyyywq09rv WEEEPPPPPPPPPPR uwwwtyyyywq06efnhwwwwyyyyww09efnhyyy",
"14qyyyyyyyyw79rpsluyuuuu                                            XXXXXXXXOOO+++++$$$$&&&$&&&=:::;>>>yyyyyq69raljyuuuyyjjyq69raljyy",
"14qyyyyyyyywwq69anjyyyuunnlywq619e06777777770655eutqwwwwafuywq09rnlyyyyyyyyywq09rvvyyyyylAvuwq09rvvuyyyyyyyyww09efnuuuyujnnhww06efnhy",
"14qyyyyytwyyyw79rpuyuuhlnnjyyw76rpuyuuhjyyujhw06epuyyyulnnlyyw06epuyyyyyywwyywq6epuyyyyyjnlyyyq6etuyyyujhyyyyyq69rayuuujlnluyyq69rayy",
"14qyyyyyyyyyytwq99qyuunAljyyyywq99qyuuvnlhvnlywq99qtyylDnjyyuuwq090wyyyyyyyyyywq090wyyyyyhhyyywq060wyylnnhyyyyww090wyyjnAlhyyyww099wy",
"14qyuuyjZZkyyyuw76qyjlnDGGkyujuw76qtyylDGGGMjuuw06qwuulDGGMgyyyw060wuuugMGMgyyytq60wyyyycGMhujjuq67wyujnGGChyyyyq67wyyunGGCjyyyyq66qy",
"14qyuuuM((ZyyuutwwwunAlV(_GhvnltwwwyyyyM~_Kjuuuywwwyuuuc~_LhwyyywqwuuuthL_LjwyyywqwyyywgK_~clnnuwwwtyuujK_^cyyyywwwwyyyhG)(Myyyywwwwy",
"14qyyyjMQQMyujyyyyyuvnlMQ~VhlnvluyyuuyuMQ~CuwuuyhjuyyuucK~GgyyyyyyyyuuulH~HhyyyyyyyyyyylG~HjjnnluyyyuuylG~LkyyyyyjhyyyujG!Qcyyyyyyyyy",
"14qyyhnvtwtunnjyyyyyulnvtwwuulnnlyyyuyvnawtuuuuyvAluuulnawwyyyyyyyyyuulnawqtyyyyyyyyyylnawqtyhlAvyuuuulnvtqtyyyyjnnuyujnvtwtyyyyyyyyy",
"14qyjlsr96quvnvjyyyyjlst96qwuulnjywyhlspe60wyyhlnnlyhlspe60wuuyyyyyyhlspe67wyyyyuuyyyjspe67wyyjnlyyyyjsar67wuuyjlnvuujsar96qyyyyyyyyy",
"14qhnfe90qwyhlnnjyyunfe90qwuuuuhuuyyvvr90qwyyylDvjyylvr90qwyuuyyyyyylnt99qwyyyyyuuyylnp99qwtyyyhuyyylnp99qwtuujnnluujnae90wtyyyyyyyyy",
"15tlsr96qjCCkuvnjyhlft96qhMZkyuuuuhlspe6qgMZcglnlyulspe60yMZMyyuyyhlspe67yMZMgyyyuujspr67wcZMgyyuyyjsar67wkZMhhnvuyjlfr96wkZCjyyyyyyy",
"15pfe90qwM((Cyuuyhnfe90qwc~_Guwuyyvvr90qwk~_Hgyhuylvr90qwhL_Lhwuyylnt99qwgL_!jwyyylnp99qwgK_~kwyuulnp99qqyG)~cyuuyjnae9qqwZ((Myyyyyyy",
"15rr96qyycQ~Gjyyyyat96qyykL^Gjyyuuape6qwyjK^Glyyuuape60wyhH^Kluuyyupe60wygG^Kcuyuuuar67wwyC^QMuyuyuar67wyyM~QMuyyyuar97wyyM~!Mhyuuyyy",
"12590qwyytwtvnhyyw090qwyytwtvnjyuw090qwyytwtsnlyuw090qwyyttwanlyywq90qwyyytwanlyutq99qwtyttwanvyyyq99qwtyytwanvuyyq99qwwyytwtvnhuuyyy",
"1236qyyyyw69raljyw76qyyyyw76rasjuw76qtyyyw76rasjhw060wyyyw06epslhw050wyyyw06epslhu050wyyywq6epslhyq67wyyyyq69islhyq67wyyyyq69tslhyyyy",
"137qwyyyywq09eanjwwqwyyyywwq99pnltwqwyyyywwq99pnluwqwyyyytwq99tnlywqwyyyyywq09rvlywqwtyyytwq09rvvywqwtyyyywq09rfnuwqwwyyyywq09efnhyyy",
"14qyyyyyyyyw69rfsjyyyyyyyyyw76raljyyyyyyyyyw76rasjhyyyyyyyyw06epsluyyyyyyyyw06epslhyyyyyyyytq6epslhyyyyyyyyyq69pslhyyyyyyyyyq69tflhyy",
"14qyyyyyyyyww09eanjyyyyyyyywwq99pnlyyyyyyyytwq99pnlyyyyyyyyywq09tnlyyyyyyyyywq09rvlyyyyyyyyywq09rvvyyyyyyyyywq09efnhyyyyyyyywq09efnhy",
"14qyyyyyyyyyyw69rauyyyyyyyyyyw76rauyyyyyyyyyuw76rauyyyyyyyyyyw06epayyyyyyyyyyw05epayyyyyyyyyuwq6epayyyyyyyyyyyq69payyyyyyyyyyyq69tauy",
"14qyyyyyyyyyywq099qyyyyyyyyyytwq99qyyyyyyyyyutwq99qtyyyyyyyyyywq09qtyyyyyyyyyywq09ewyyyyyyyyyywq090wyyyyyyyyyywq090wyyyyyyyyyywq090wy",
"14qyyyyyyyyyyyyq540yyyyyyyyyyyyw530tyyyyyyyyyyyw637wyyyyyyyyyyyw636wyyyyyyyyyyyw736wyyyyyyyyyyyw035wyyyyyyyyyyyy035qyyyyyyyyyyyyq44qy"
};
