/* XPM */
static char *_5b4297f50ec45b9da387cf44622032dtTY0h4cMQk0KJxBx[] = {
/* columns rows colors chars-per-pixel */
"64 64 117 2 ",
"   c #3D1D1D",
".  c #411E1E",
"X  c #462020",
"o  c #4D2323",
"O  c #532525",
"+  c #582727",
"@  c #5B2929",
"#  c #642D2D",
"$  c #682F2F",
"%  c #6C3131",
"&  c #733434",
"*  c #793737",
"=  c #7C3A3A",
"-  c #54523E",
";  c #4B4B4B",
":  c #554F4F",
">  c #555346",
",  c #5C5A46",
"<  c #5C5A4C",
"1  c #535353",
"2  c #5A5555",
"3  c #5A5955",
"4  c #5B5A5A",
"5  c #6F4F4F",
"6  c #754B4B",
"7  c #7D4E4E",
"8  c #615E4B",
"9  c #7B544B",
"0  c #645454",
"q  c #6B5050",
"w  c #615F51",
"e  c #615E5C",
"r  c #755050",
"t  c #785050",
"y  c #7D5950",
"u  c #725858",
"i  c #64624F",
"p  c #656354",
"a  c #6A6654",
"s  c #6C6A56",
"d  c #63625C",
"f  c #69665B",
"g  c #6D6B5A",
"h  c #716E5C",
"j  c #73715E",
"k  c #656462",
"l  c #686764",
"z  c #6B6964",
"x  c #6C6B68",
"c  c #716E61",
"v  c #716E6A",
"b  c #757362",
"n  c #7A7665",
"m  c #7B7866",
"M  c #76746B",
"N  c #79766A",
"B  c #7D7B6B",
"V  c #797771",
"C  c #7E7B73",
"Z  c #813E3E",
"A  c #864242",
"S  c #8B4444",
"D  c #844C4C",
"F  c #8C4B4B",
"G  c #914747",
"H  c #934848",
"J  c #81574F",
"K  c #82584F",
"L  c #835151",
"P  c #855E55",
"I  c #8C5C55",
"U  c #8D5F58",
"Y  c #876057",
"T  c #866159",
"R  c #8B645C",
"E  c #91655D",
"W  c #856A63",
"Q  c #936860",
"!  c #817E6D",
"~  c #817E74",
"^  c #817E79",
"/  c #83806F",
"(  c #848170",
")  c #848272",
"_  c #878473",
"`  c #838176",
"'  c #858275",
"]  c #888574",
"[  c #898777",
"{  c #8A8877",
"}  c #868378",
"|  c #89847B",
" . c #8A877D",
".. c #8B8978",
"X. c #8C897A",
"o. c #8A887D",
"O. c #8D897D",
"+. c #8F8D7E",
"@. c #908A7D",
"#. c #908E7F",
"$. c #8F8983",
"%. c #918F80",
"&. c #928F80",
"*. c #929081",
"=. c #949181",
"-. c #959284",
";. c #969485",
":. c #9A9387",
">. c #999487",
",. c #979289",
"<. c #9B9489",
"1. c #9C9589",
"2. c #9C998A",
"3. c #9E988C",
"4. c #A09A91",
"5. c #A6A097",
"6. c #AAA49A",
/* pixels */
"g g h p a g g s s g g g h h h h h h h g g g s s s s a p p a a s h h h h h h h h h h h h g h g g g g p p s g h h h b b s a a g s ",
"g h p h h b b g g h j j b b b b b b h f f f f f f f p p p f d f f f f f f f f f f f f f c b b b b b b n ! B ! ! b B B m n b j g ",
"h p g n ( ( +.{ { { [ [ [ [ [ [ [ [ M 3 3 2 2 2 2 2 2 3 3 3 3 3 3 3 3 3 2 2 2 2 2 2 3 3 N +.+.+.+.+.O.#.*.#.#.-.#.#.#...{ B b g ",
"j a b ( ( ( +.[ [ [ [ *.+.` C C C C x 1 1 1 1 1 1 1 1 1 2 2 2 2 2 2 2 1 1 1 1 1 1 1 1 1 l C C ~ } } +.=.;.;.=.=.=.>.>.*.#.O.B j ",
"p j { ....#.[ [ [ X.-.-.O.x 4 3 2 2 1 ; ; 1 1 1 1 1 1 1 1 2 2 2 2 2 1 1 1 1 1 1 1 1 ; ; 1 2 2 2 4 v %.-.%.;.=.=.=.*.*.=.+.X.( b ",
"p j { *.*.#.X.@.<.<.+. .V k 3 2 1 1 1 1 1 2 3 3 3 0 r 7 7 7 7 7 7 7 7 7 6 0 3 3 3 2 1 1 1 ; 1 2 3 k M } =.:.=.=.=.*.*.#.[ ( ! b ",
"h j [ *.-.*.@.1.1.:.-.M 4 3 2 1 1 ; : 2 2 2 e e e u D G G G G G G G G G D u e e e 2 2 2 : ; ; 1 2 3 4 v ' X.X.[ X.X.X.[ ( j b h ",
"j n *.*.%.>.1.3.6.,.C z 3 2 2 2 2 1 q D D D 7 7 7 7 S S S S G G G G G S S 7 7 L L D D D q 1 1 2 2 2 3 l M o.2.=.{ _ _ _ _ [ s p ",
"j B *.-.%.:.1.5.4.^ 4 3 2 1 2 0 0 0 7 G G G S A A A A A A S G G G G G S A A A S G G G G 7 0 0 0 2 1 2 3 4 V -.O.{ _ { { b b a p ",
"b B *.#.*.<.1.,.V z 3 2 1 2 0 7 D D D S S S A A A A A A A A S S S S S A A A A A S S S G F D D 7 0 2 2 2 3 l M ` X.{ B m b b a p ",
"b B X.#.:.<.<.$.4 3 2 2 2 0 t F G G S A A A A A A Z Z Z Z A A A A A A A A A A A A A S G G G G F r 0 2 1 2 3 4 M ( b b b g h a p ",
"b B X.#.:.:.:.$.4 3 1 2 0 7 F G S S A A Z = Z A = = = = = Z A A A A A A A = = A A A A A A S S G F 7 0 1 1 3 4 x m b b g b n j j ",
"b m ( ! %.@.[ ~ 4 2 1 2 0 D G S S A A A = * = Z = * * * * = Z Z Z A A A Z * = Z A A A A A A S S G D q 2 1 2 3 z z b b s b #.B h ",
"j m ..@.( N z k 2 1 ; 1 0 D G S A A A A = * * * * * * * * * * * * Z A = * * * * = A A A A A A S S D q 1 ; 1 2 4 d z b j [ [ j p ",
"B n { [ ~ z 4 2 1 1 : q 7 F S A A A A Z = * * * & & & & & & * * * = Z = * * * * = Z A A A A A A S F 7 q : 1 1 2 3 f f n / [ h d ",
"M n { ' z 4 2 1 ; 1 2 D G G S A A A Z * * * * & % $ $ $ $ & * * * * * * * * * * * * = A A A A A S G G D 0 1 ; 1 2 3 k c ( ( g d ",
"b b ..' l 3 2 1 ; 1 0 D G S S A A A Z * * * & % % $ $ $ $ % & & & & & & & & & * * * = A A A A A S S G D 0 1 ; 1 2 3 k b ( ( g d ",
"b b [ ' l 3 2 1 ; 1 0 D G S A A A A Z * * & % $ $ $ $ $ $ $ $ $ $ & & % $ $ % & * * = A A A A A A A G D 0 1 ; 1 2 3 k b / / g d ",
"b b +.} l 3 ; 1 1 5 D F G S A A A A Z * & % % $ $ $ $ $ $ $ # $ $ % % % $ $ % % & * * = Z A A A A A A S D 5 1 1 ; 3 k b / / g d ",
"b ( +.} l 2 ; 1 2 7 G G S A A A A A = * & $ $ $ $ $ $ $ $ # @ # $ $ $ $ $ $ $ $ % * * * Z A A A A A A A G 7 2 1 ; 2 k N / ( f d ",
"b ( +.| l 2 ; 1 2 7 G S S A A A Z = * * & $ $ $ $ $ # @ @ @ @ @ @ @ # $ $ $ $ $ % * * * Z A A A A A A S G 7 2 1 ; 2 k N / / f d ",
"b ( +.| l 2 ; 1 2 7 G S A A A A Z * & & % $ $ $ $ $ @ @ @ @ @ @ @ @ @ # $ $ $ $ % & & * = A A A A A A S S 7 2 1 ; 2 k B / / f d ",
"b ( O. .l 2 ; 1 2 7 G S A A A = * * & % % $ $ $ $ $ @ @ @ @ @ @ @ @ @ @ # $ $ $ % % & * * = Z A A A A A A 6 2 1 ; 2 k C ( ( p d ",
"b ( %. .l 2 ; 1 2 7 S A A A Z * * * & $ $ $ $ $ $ # @ @ + @ @ @ + @ @ @ @ $ $ $ $ $ & * * * = Z A A A A A 6 2 1 ; 2 k ` [ [ p d ",
"c ( %. .z 2 ; 1 2 6 A A A A Z * * * & $ $ $ $ $ # @ @ + O + @ + O + @ @ @ $ $ $ $ $ & * * * * = Z A A A A 6 2 1 ; 2 k ~ X.{ p e ",
"g ( %. .z 3 ; 1 2 6 A A A Z = * * * & $ $ $ $ # @ @ @ + O O + O o O + @ @ $ $ $ $ $ & * * * * * Z A A A A 6 2 1 ; 3 k ~ X.X.p e ",
"f b %.[ z 3 1 1 2 6 A A A = * * * * & $ $ $ # @ @ @ @ + o o o o o o O + @ $ $ $ $ $ & * * * * * Z A A A A 6 2 2 1 3 l ' X...p e ",
"b j ( [ z 3 1 1 2 6 A A A = * * * * & $ $ $ # @ @ @ + O o o X X X o O + @ # $ $ $ $ % & & * * * Z A A A A 6 2 2 1 3 l ' X...p e ",
"b B ! N z 3 1 2 2 6 A A A = * * * * & $ $ $ # @ @ @ O o o X       X O + @ @ @ $ $ $ $ $ & * * * Z A A A A 6 2 1 1 3 k } X.{ p d ",
"b B +.N z 3 1 2 2 6 A A A = * * * * & & % $ $ # @ @ O o X .       X O + @ @ @ $ $ $ $ $ & * * * Z A A A S 7 2 2 1 3 k } %.[ b d ",
"b B [ N k 3 1 2 2 6 A A A = * * * * * & % $ $ $ @ + O o .         X o + @ @ @ $ $ $ $ $ & * * = Z A A S G 7 2 1 1 3 k  .#.{ b e ",
"b ! ..C k 3 1 2 2 6 A A A = * * * * & % % $ $ $ @ + O o .         . X o + @ @ @ # $ $ $ & * = Z A A A S G 7 2 2 1 3 k  .+.{ c e ",
"b ! #.` z 3 1 1 2 6 A A A = * * * * & $ $ $ $ $ @ @ O o .             o O + @ @ @ $ $ $ & * Z A A A A S G 7 2 2 1 3 k  .+.{ c d ",
"b [ %.' l 3 1 1 2 6 A A A = * * * * & $ $ $ # @ @ @ O o o X           o O @ @ @ @ $ $ $ & * Z A A A S G G 7 2 2 1 3 x  .+.[ c e ",
"b X.*.' l 3 1 2 2 6 A A A = * * & & % $ $ $ # @ @ + O o o X           o O @ @ @ @ $ $ $ & * Z A A S G G G 7 2 2 1 3 x [ +.[ c e ",
"b X.*.} l 3 1 2 2 6 A A A = * * & % % $ $ $ # @ @ @ O o .             o O + @ @ @ $ $ $ & * Z A A S G G G 7 2 2 1 3 x [ +.[ c e ",
"p X.#.' l 3 1 2 2 6 A A A = * * & % $ $ $ $ # @ @ + O o .         . X o O @ @ @ # $ $ $ & * = Z A S G G G 7 2 2 1 3 x ,...( c e ",
"p X.=.} z 3 1 2 2 6 A A A = * * & % $ $ $ $ # @ @ + O o           X o o O @ @ @ # $ $ $ & * * = Z S G G G 7 2 2 1 3 x ,.{ ..c e ",
"p ! #.' z 3 1 2 2 7 S A A Z = * & % $ $ $ $ # @ @ @ + o X .       X o o O @ @ # $ $ $ $ & * * * Z S S G G 7 2 2 1 3 x ,.{ ! c e ",
"z ( =.' z 3 1 2 2 7 G S A A Z * & % $ $ $ $ # @ @ @ @ + o X       X o o O @ @ $ $ $ $ $ & * * * Z S S G G 7 2 2 1 3 x ,.[ B c e ",
"c ( #.} z 3 1 2 2 7 G S A A Z * & & % $ $ $ $ # @ @ + O o o X X X o o O + @ @ $ $ $ $ $ & * * * Z A S S G 7 2 2 1 3 x ,.[ B c e ",
"z _ X.` l 3 1 2 2 7 G S A A Z * * * & $ $ $ $ $ @ @ O o o o o o o o O + @ @ @ $ $ $ $ $ & * * * Z A A S G 7 2 2 1 3 x [ _ B c e ",
"f j b b k 3 1 2 2 7 G S A A Z * * * & $ $ $ $ $ @ @ + + o o o o o O + @ @ @ @ $ $ $ % & & * * * Z A A S G 7 2 2 1 3 x | _ B c e ",
"p h b f d 3 1 1 2 7 G S A A Z * * * & % % $ $ $ @ @ @ + O o o o O + @ @ @ @ # $ $ % & * * * * * Z A A S G 7 2 2 1 3 l ~ _ B c e ",
"f h g f d 3 1 1 2 7 G G S A Z = * * & & % $ $ $ @ @ @ @ + O o O + @ @ @ @ # $ $ % & & * * * * * Z A A S G 7 2 2 1 3 l ~ _ B c e ",
"p h g f d 3 1 2 2 7 G G G S Z * * * * * & $ $ $ # @ @ @ @ + O + @ @ @ @ # $ $ $ % * * * * * * = A A A S S 7 2 2 1 3 l ` _ B c e ",
"p g g f d 3 1 2 2 7 G G G S Z * * * * * & $ $ $ $ # @ @ @ @ @ @ @ @ @ # $ $ $ $ % * * * * * = A A A A A S 6 2 2 1 3 l ` B B c e ",
"w s g f d 3 1 2 2 7 G G G S A = = * * * & $ $ $ $ $ @ @ @ @ @ @ @ @ @ $ $ $ % % & * * * * = Z A A A A A A 6 2 2 1 3 k ` B B p 4 ",
"3 a g f d 3 1 2 2 7 G G G S A A Z * * * & $ $ $ $ $ @ @ @ @ @ # $ # @ $ $ $ % & * * * * = A A A A A A A A 6 2 2 1 3 l ` B B p 4 ",
"< a h f 4 2 ; 1 2 7 G G S A A A A = = * & % % $ $ $ # @ @ @ # $ $ $ # $ $ $ % & * * * * Z A A A A A A A A 6 2 1 ; 2 k B B B p 3 ",
"< s h f 3 1 ; 1 2 7 G S A A A A A A Z * * & % $ $ $ $ # @ # $ $ $ $ $ $ $ $ % & * * * * Z A A A A A A A A 6 2 1 ; 1 e b B B p 2 ",
"< a h f 3 1 ; 1 2 7 G S A A A A A A Z * * * & % % $ $ $ # $ $ $ $ $ $ $ % % & * * * = = A A A A A A A A S 7 2 1 ; 1 4 b B B p 3 ",
"< a g p 2 1 ; 1 2 7 G S A A A A A A Z * * * * & % $ $ $ $ $ $ $ $ $ $ $ % & * * * * = A A A A A A A A A G 7 2 1 ; 1 4 M ! ! < 3 ",
"< a g p 2 1 ; 1 2 7 G S A A A A A A A Z = * * * & & % $ $ $ $ $ $ $ % % & & * * * * = A A A A A A A A A G 7 2 1 ; 1 4 M ! ! < 3 ",
"< a g < 3 1 ; 1 2 7 G S A A A A A A A A = * * * * & % % % % $ $ $ $ % & * * * * * * Z A A A A A A A A S G 7 2 1 ; 1 4 b ! g < 3 ",
"< g a < 3 1 ; 1 2 7 G G S A A A A A A A = * * * * * & & & % $ $ $ % & & * * * * = Z A A A A A A A A S G G 7 2 1 ; 1 4 B b b p 3 ",
"< s a f 4 1 ; : 2 7 H H G S A A A A A A = * * * * * * * * & % % % & * * * * * * = A A A A A A A A S G G G 7 2 1 ; 1 4 N B B p 3 ",
"< p g f 4 1 ; : 2 7 G G G S A A A A A A = * * * Z Z * * * & & & & & * * * Z Z Z A A A A A A A A S G G G G 7 2 1 ; 1 4 M B ! p 3 ",
"< p B f 4 1 ; 1 2 7 G G G S S S A A A A Z = = = A A = = = = = * * * * * = A A A A A A A A A A S G H G G G 7 2 1 ; 1 4 b ! ! < 3 ",
"> - b p 4 1 ; 1 2 7 G G G G G G S A A A A A A A A A A A A A A = * * * Z A A A A A A A A A A S G G G G G H 7 2 1 ; 1 4 b ! ! w 3 ",
"w , a f 3 e f z z T I I I I I U U P Y P P P 9 9 K P P P P P J 9 9 9 y T T T P P T T T T P R R E E E E E Q W f f d f f N ! h p 3 ",
"8 i , b / _ n m m n n n B B ! ! [ { ( ..[ h h s ( ! ! ( B / ! b b n m _ [ [ [ [ [ { { { { { [ [ ..B B { _ _ n B b b b B j j i 8 ",
"a a i i g s s g g g g g h g s g g g g g g , , 8 i h g b h h h 8 8 i i p p i p p a s s g g g g g g g h m m m n h j h b h h s < < ",
"s s a s g a g g g h p p b a a a a p p p p , , 8 , a a b j j j h s s a a j h h h h h h h g a a , a g j j b n a g g h s s a a , , "
};
