/* XPM */
static char *_529fed0a1e94c32f1e47fe41b2e90731C1s9QhmaB5UQeVy[] = {
/* columns rows colors chars-per-pixel */
"64 64 68 1 ",
"  c #000000",
". c #561005",
"X c #7A1607",
"o c #54523E",
"O c gray25",
"+ c #585642",
"@ c #5C5A46",
"# c #5E5C49",
"$ c #615E4B",
"% c #63614E",
"& c #666352",
"* c #6A6654",
"= c #6C6A56",
"- c #6E6C59",
"; c #716E5C",
": c #73715E",
"> c #767361",
", c #7A7664",
"< c #7C7967",
"1 c #7E7B6A",
"2 c #817E6D",
"3 c #857F70",
"4 c #83806F",
"5 c #88826F",
"6 c #858271",
"7 c #898575",
"8 c #8A8877",
"9 c #8D8778",
"0 c #8E8B7B",
"q c #918D7E",
"w c #93907F",
"e c #808080",
"r c #948F81",
"t c #988F82",
"y c #949182",
"u c #999285",
"i c #9B9488",
"p c #999688",
"a c #9C9589",
"s c #9C988A",
"d c #9F998B",
"f c #9E988C",
"g c gray62",
"h c #A09B8D",
"j c #A09C8E",
"k c #A29B90",
"l c #A29C90",
"z c #A59D92",
"x c #A49F93",
"c c #A69F95",
"v c #A89F95",
"b c #A6A093",
"n c #A7A095",
"m c #AAA396",
"M c #AAA298",
"N c #AAA398",
"B c #ACA398",
"V c #ABA59B",
"C c #ADA79B",
"Z c #AFA79D",
"A c #AFA89D",
"S c #B0A79E",
"D c #B1A99F",
"F c #B3A9A0",
"G c #B4AAA1",
"H c #B6ABA3",
"J c #B6ACA3",
"K c #B7ACA4",
/* pixels */
"--;&*--==---;;;;;;----====*&&**=;;;;;;;;;;;;;;;---&&=-;;;>>=**-=",
"-;&;;>>--;::>>>>>>>>>:;;;;-----;>>>>>>>>>>>>>>>>>>>,2122,11<,>:-",
";&-,66088888888888888888888888888888888888800000000qyqqyqqq881>-",
":*>66608888yyyypppddffffpdffffffaaaauuurrrrrryuddyyyuuyyyppyq01:",
"&:888q8880yyyypfhhllxlkxxlllhfZZZmmnxxxxxxlxlllhppauruyyyyyy006>",
"&:8yyq0qppyddfffhhlxcMMMFFDDDDDDDZZZZZbxxxxxlllhjhpuuuyyyyyq862>",
";:8yyyqaaajahhpdfhydhlJJGGGGGGGGGGGFFFFvmmxxxkhfdarr000800086:>;",
":,yyrpafVVAFBZZSSAAFJJJJGGGGGGGGGGGFFFFFFFFDDDDZMMccffdy866668=&",
":1yyruaVCAFFFCADDGGGJJGGGGGGGGGGGGGGFGGFFFFDDDDZZZcMjjfq8688>>*&",
">1yqypaCZDGGGGCDxGGGGGGGGGGGGGGGSCGGGGGGFFFDDDDZZZZZnnuy081<>>*&",
">10quppZZDGGGGGC22qGGGGGGGGGGGGGGGCCmmmmmmmmmmMVCZZnnd086>>>-;*&",
">10quuuZZDGGGGGGBqu2qqqruaGGGGGGGGKKDDDFDDDDZZZZZZZfuy81<>>->,::",
"><62ryuZDDFGGGGGGAmZtGGGGGu6GGGKKGGDDDDDDDDDZZZMMbppu821>>>=>q1;",
":<8q66uZDDDFFFFFDDCxCyaGJJD6SGGGGGGDDDDDDDDZZZlbdppy,,,:>>>:88:&",
"2,80r22ZDDDDFFDDDDCCxxxhFDDu    GDDDDDDDDZZZdddyq02-:::;=>:<48:&",
"1,8ruuurrGDDDDDCZDCCCCCjmVD .XX. DDDDDDDZnnddyy0q6,>>:;=:*,,64:&",
"1>8rruuGrrZGDDDDDDCCVVVVjj .XXXX VVVVMnndddyqq088,:>;::*,<<<66:&",
"1>8rruuGJr00DDxZDCVMVVVVVV .X   VVVVVndddpyqqq28,::,;:=>*11144:&",
"<>0ruauCCCJ60axmMbbbbVVVV .XX yyyrapuuyyrq>>;---->8qq,4;:16144;&",
"<60rua                   .XX. ddadppyyy8,,211;-;:0qqyd9>446644;&",
",60u   ...................XX. uuyyyyq111,;1,::                ;&",
",60 gg .XXXXXXXXXX         X.                  O  OOO  OO  OO ;&",
",60 ee .XXXXXXXXXX Oe OOeg X. OOOOOOOOOOOOOOOO O  eee  ee  OO &%",
",6 eeO .XXXXXXXXXX Og      X. OOOOOOeeeeeeeggg OOe   ee  eeOO &;",
">6 eOO ....XXXXXXX Og ..XX                     Oee   gg  egeO &%",
"; OOOO             Og .XXX OOOOOOOOOOOOO pnnjj O  ege  ee  eO &%",
"; OOOOOOOOOOOOOOOO Og .XXX OOOOOOOOOOegg ZZVu8 O  eeO  eg  OO &%",
", OOOOOeeeeeeegggO OO .XX. OOeeeeeeeeeeg ZZuy6 e  OOO  egO    &%",
", OOOOOOOOOOOOOegO    .XX. O  e  e  e  g       Oee   eege  y08&%",
",                O .XXXX.. O  O  e  e  g OOOOO Oee   egg  qy  ,%",
",1867uuCC O  nnn O         O  O  O  O  e OOggg OOOeeegg O q eg %",
",280166VV O nnnn OOOOOOOOO O  O  O  O  O       OOOOOOe OOO egg %",
",2qqyy6q OOe      eeeggOO                q8028           OOO  >%",
",8ryyyy OOee njhy  eggO  11123aFFFFFFGhqqq96qhxhKKKKK  GD O 08>%",
">0yyrrq Oeg Vfqq02 OOO =,12rtaFFFFFFSx290y7qaxaKKKKDGJ     u08>%",
">0yyyy OOg ffpq61,&      2raFFFFFFFZhq2982q8hxKKKKKmSJJ   Cu08>%",
"*0qyqu OOg dyq7,,&% OOOO  aGFFFFFFZhh66846qhxKKKKKKB9uGSCCCC86>%",
"&0yypp OOg q6,,,&*& OOeOO GGFFFFFZhh62665quxKKKKKKMC6ufCCCCC88>%",
"&2qqpp OO >>>>-;&$ OOeegge  GFFFZMj62862quhKKKKKKDCG;qhCCCCM82>%",
">6yyuuy Og ::;;&$* Oeee   OO FFZZl866628dhGKKKKKKGCG=0lCCCCM81>%",
">6qyuuw>   ;;;&$*, Oee eeeOeO ZZdp74227dhGKKKKKKGGCG=MCChCCC81>%",
">60qqq,>>>;;;&$=-> O  eeOO egg d082,>2ppGJKKKKKKGCGG-CCC8CCu61>%",
"=:><11;>>>;;%$::8>  OOe  O  ee q86;:29rGGJKKKKKGGCGG,CCC8CCu71>%",
"&;>--;;:::;*$&3qq,> OOOee Oee e 6,%27uuGGJJKKKKGCGGD2CCCfCu071>%",
"-;---;-;;;*&&6qqquu> OOOe O  ge 6*%6ruZGJJJKKKGGCGSC2CCCmCu071>%",
"&;-----;;-*=;qquuuu2V OOee eegg *;,quZZJJJJJJKGGCJDC6CCCCCaq71>%",
"&-------&%#>qqquaamm2 OOO OOegg &:8lMZGJJJJJJJJJCDDC6CCCCayq11>%",
"$=-----*#$,uuudhfdbmm OOO OOOee -28ZGGJJJJJJJJJJmDCC7CCCCaqq11&@",
"#*------&,uuufhjjjbbmb   OOOOO =,8qFGGJJJJJJJJJJmDCC0CCCppqq11&+",
"#*;;;;&@>2uuffjjjjxbmbu,b     ;-6quFGGJJJJJJJJDMDCCCqCCuppq811&+",
"@*;;;&%>,uuhhhjjjjlfddj,,08==*=00qhGGGGJJJGJJJDMDCCCuCCpuyq211&+",
"@*;;%%>,2uhhhhxjjjjjhdl0>:;=&;&<20FFGGGGGGJJJDCDDCCCaCruuy0211&%",
"#*;*%%,2uuhhhhljhjfjfj0008>&-*>68hxvGGGGGJJJGDVDCCCC7rruyy0622@&",
"#*;*$222ddhhhlhjjjfjjl088>>&:>>68uhmhGGGGJGGDDCCCrrr8rruyy0622@*",
"#*-#&,2dddhhlhhhjhfbxy88>,1&>>>68uhxhhhauuuDCVMrrrrr0ruyyy022-@*",
"#-*#:2udhjlljjjhhhd00082244;>>>28uaxhhxhhhhjjurrrrrr0uuy0068,>**",
"#=*;12uahjjjjhhhjd000822822,>>><1qpxhhhhhhhjhllllduuufpp086811&=",
"@&--12uuhjjjjjhhhl98882;2216>>>>>ypphhhhfppdffffffddpy00001612-=",
"@&1>,,0qdddddd,,3260086>,18166<880yyyq00000dffffffdy00qq006222$=",
"oo>&,,000dddp1126668664-<47862<<800yy0q00088888yyy0qqyq2862222&=",
"%@*-&,8009>,,112628266-=,22412>>,,20086688887qq0888qqq1244>22;%$",
"$%#>46,,,,,,112288688;;=6226142>>,<6887888888888811866,1>>>1::%$",
"**%%-==-------=------@#$%;=:;;;$$%%&&%&&*==-------;<<<,;:;>;;=##",
"==*=-*----&&>****&&&&@@$#**>:::;==**:;;;;;;;-**@&-::>,*--;==**@@"
};
