/* XPM */
static char *b90fd23db6e24953f881c2f15d6abdf0EEppSfNQ57ARX8Xe[] = {
/* columns rows colors chars-per-pixel */
"64 64 68 1 ",
"  c #54523E",
". c #585642",
"X c #5C5A46",
"o c #5E5C49",
"O c #615E4B",
"+ c #63614E",
"@ c #666352",
"# c #6A6654",
"$ c #6C6A56",
"% c #6E6B59",
"& c #716E5C",
"* c #74715E",
"= c #767361",
"- c #7A7664",
"; c #7C7967",
": c #7E7B6A",
"> c #817D6D",
", c #867E70",
"< c #887F71",
"1 c #83806F",
"2 c #88826F",
"3 c #858271",
"4 c #898575",
"5 c #8B8877",
"6 c #8E8778",
"7 c #8E8A7B",
"8 c #918D7E",
"9 c #93907F",
"0 c #948F81",
"q c #988F82",
"w c #949182",
"e c #999285",
"r c #9B9588",
"t c #9B9489",
"y c #999688",
"u c #9C9589",
"i c #9C988A",
"p c #9E998B",
"a c #9E988C",
"s c #9F9B8D",
"d c #A0998C",
"f c #A09B8D",
"g c #A29B8F",
"h c #A29C8F",
"j c #A29B90",
"k c #A29C90",
"l c #A59D92",
"z c #A49F93",
"x c #A69F95",
"c c #A89E93",
"v c #A89F95",
"b c #A6A093",
"n c #A6A193",
"m c #AAA396",
"M c #AAA298",
"N c #AAA398",
"B c #ACA398",
"V c #ABA59B",
"C c #ADA79B",
"Z c #AFA79D",
"A c #AFA89D",
"S c #B0A79E",
"D c #B1A99F",
"F c #B3A9A0",
"G c #B4AAA1",
"H c #B6ABA3",
"J c #B6ACA3",
"K c #B7ACA4",
/* pixels */
"%%&@#%%$$%%%&&&&&&%%%%$$$$#@@##$&&&&&&&&&&&&&&&%%%@@$%&&&==$##%$",
"%&@&&==%%&**=========*&&&&%%%%%&===================->:>>-::;-=*%",
"&@%-337555555555555555555555555555555555555777777778w88w88855:=%",
"*#=33375555wwwwyyyppaaaaypaaaaaauuuueee000000weppwwweewwwyyw87:*",
"@*55585557wwwwyaffkkzkjzzkkkfaZZZmmbzzzzzzkzkkkfyyue0ewwwwww773=",
"@*5ww878yywppaaaffkzxMMMFFDDDDDDDZZZZZbzzzzzkkkfhfyeeewwwww853>=",
"&*5www8uuufuffypafwpfkJJGGGGGGGGGGGFFFFvmmzzzjfapu00777577753*=&",
"*-ww0yuaVVAFBZZSSDAFJJJJGGGGGGGGGGGFFFFFFFFDDDDZMMxxaapw533335$@",
"*:ww0euVCAFFFCADDGGGJJGGGGGGGGGGGGGGFGGFFFFDDDDZZZxMhha85355==#@",
"=:w8wyuCZDGGGGCDzGGGGGGGGGGGGGGGSCGGGGGGFFFDDDDZZZZZbbew75:;==#@",
"=:78eyyZZDGGGGGC>>8GGGGGGGGGGGGGGGCCmmmmmmmmmmMVCZZbbp753===%&#@",
"=:78eeeZZDGGGGGGB8e>8880euGGGGGGGGKKDDDFDDDDZZZZZZZaew5:;==%=-**",
"=;3>0weZDDFGGGGGGAmZqGGGGGe3GGGKKGGDDDDDDDDDZZZMMbyye5>:===$=8:&",
"*;5833eZDDDFFFFFDDCzCwuGJJD3SGGGGGGDDDDDDDDZZZkbpyyw---*===*55*@",
">-570>>ZDDDDFFDDDDCCzzzfFDDeGGGGGDDDDDDDDZZZpppw87>%***&$=*;15*@",
":-50eee00GDDDDDCZDCCCCChmVDDaCFFDDDDDDDDZbbppww783-==*&$*#=-31*@",
":=500eeG00ZGDDDDDDCCVVVMhhVVhVzVVVVVVMbbpppw88755-*=&**#=;;;33*@",
":=500eeGJ077DDzZDCVMVVVVVVbVpyVVVVVVVbpppyw888>5-**;&*$=#:::11*@",
";=70eueCCCJ37uzmMbbbbVVVVbbhbbwww0uyeeww08==&%%%%=588-1&*:3:11&@",
";370euuCCCCJ>=*;>eeeeeyeyyupppppupyywww5;->::&%&*788wp5=113311&@",
"-37ee0uCbbzzbf454--55588888wyeeewwww8:::;&:=**=1-88ypp3>>>>311&@",
"-37e80ubbzzhkhpp888-75554334e888888w>:>=*:=*&:w7=yypf83:5>:511&@",
"-37e0epbbzhhhhhahapy>;;-==========--=--$%=>4455:>:ypw1:35>>533@+",
"-30e0epbbzhhhhhhhhhhfpw-*&$$###**&&#&&=&>8757pp>>>e>;:3333>755@&",
"=30eeepmbzhhhhhhhhhhhhkzhe5331;;**&$&>>8pyewaap=*14=>33335>775@+",
"&30eeepmmbkhhhhhhhhhhhhhbkbw0>>33>*&#3uppybbhh3=*3==3335555777@+",
"&=0yeupmbbbbbzhhhhhhhhhhhkbb>1--&%o#&yueZZZVe5-**1*55538777w75@+",
"=*3eyupmbbbbbbbbkkhhhhhhhka73=*%$o#>4yDZZZZew3=;343888eww77w75@+",
"=:>3eypmbbbbbbbbbbkkkhhppw83;&%*=>><euFDDZb74>>>1e656eqq088w75@+",
"-:73yyebbbbbbbbbbzbbzbpyw75=&@=&>>3uuFFFDZe0541>ezf6eeeee88w05-+",
"=:534eeCCmmbbbbbbbbbb85;$%&#o::>>,4uFFFFDw7733>0ccfKGGGGAZ8y85=+",
"=>57:33VVVbbbbbbbbhh8;####OO::>>4eFFFFFFf77843efcfKKGGGGDZ8y85=+",
"=>88ww38VCbbbbbbbew44&#@O&=:>>>,FFFFGGFe8857>5fzfKKKKGGFDZ8y75=+",
"=5wwwww8ACbbbbhfw854&&@O+:::>,uFFFFFGGf888538fzfKKKKKJJGDZCy75=+",
"=7ww8888wDVVVa887>:#+@O$-:>0quFFFFFFSz>57w48uzuKKKKDGJJGDCCe75=+",
"=7wwwwwVeeaaay83:-@@#o&:>>0uFFFFFFFZf8>54>85fzKKKKKmSJJDZCCe75=+",
"#78w8eehfaapw84--@+@O&>>>uuGFFFFFFZff335138fzGKKKKKB6eGSCCCC53=+",
"@7wwyyyhaa883--=@#@O$:>>euGGFGFFFZff3>3328ezKGKKKKMC3eaCCCCC55=+",
"@>88yyey85====%&@OO&70qeuGGGGFFFZMh3>53>8efKKKKKKDCG&8hCCCCM5>=+",
"=3wweeww3=***&&@O#-770yuGGGGGFFZZk5333>5pfGKKKKKKGCG#7kCCCCM5:=+",
"=38wee9===&&&&@O#-578euGGGGGGFZZpy51>>4pfGKKKKKKGGCG$MCCfCCC5:=+",
"=37888;===&&&@O$%=78weFGGGGGGZbp75>-=>yyGJKKKKKKGBGG%CCC5CCe3:=+",
"$*=;::&===&&+O**5=40eeFGGGGGDbf853&*>50GGJKKKKKGGCGG-CCC5CCe4:=+",
"@&=%%&&***&#O@,88;=weZDDGGGFSb853-+>4eeGGJJKKKKGCGGD>CCCaCe74:=+",
"%&%%%&%&&&#@@3888ee=VVAADDCMMu333#+30eZGJJJKKKGGCGDC>CCCmCe74:=+",
"@&%%%%%&&%#$&88eeee>VVVVmmhbp43-#&-8eZZJJJJJJKGGCJDC3CCCCCu84:=+",
"@%%%%%%%@+o=888euumm>VVbbakk83%%@*5kMZGJJJJJJJJJCDDC3CCCCuw8::=+",
"O$%%%%%#oO-eeepfppbmm;:bbkk833%#%>5ZGGJJJJJJJJJJmDCC4CCCCu88::@X",
"o#%%%%%%@-eeeafhhhbbmb;;bb853#@$;58FGGJJJJJJJJJJmDCC7CCCyy88::@.",
"o#&&&&@X=>eeaahfhhzbbbe;bb53-@&%38eFGGJJJJJJJJDMDCCC8CCeyy85::@.",
"X#&&&@+=;eeffffhhhkapph--75$$#$778fGGGGJJJGJJJDMDCCCeCCyew8>::@.",
"X#&&++=;>effffkhhhhhfpk7=*&$@&@;>7FFGGGGGGJJJDCDDCCCuC0eew7>::@+",
"o#&#++;>eeffffkhfhahah7775=@%#=35fzvGGGGGJJJGDVDCCCC400eww73>>X@",
"o#&#O>>>ppfffkfhhhahhk755==@*==35efmfGGGGJGGDDCCC000500eww73>>X#",
"X#%o@;>uppffkfffhfabzw55=-:@===35efzfffueeeDCVM0000070ewww7>>%X#",
"o%#o*>epfhkkhhhfffp7775>>11&===>5euzffzffffhhe0000007eew7735-=##",
"o$#&:>eufhhhhfffhp7775>>5>>-===;:8yzfffffffhfkkkkpeeeayy7535::@$",
"X@%%:>eefhhhhhfffk5555>&>>:3=====wyyffffayypaaaaaappyw7777:3:>%$",
"X@:=--78pppppp--,>37753==:5:33;557www877777paaaaaapw7788773>>>O$",
"  =@--777pppy::>3335331%;1453>;;577ww7877755555www788w8>53>>>>@$",
"+X#%@-5775=;;::>3>5>33%$=>>1:>==-->7753355554887555888:111=>>&+O",
"O+o=13-;;---::>>55355&&$3>>3:1>==-;35545555555555::533-:===:**+O",
"##++%$$%%%%%%%$%%%%%%XoO+&%=&&&OO++@@+@@#$$%%%%%%%&;;;=&*&=&&$oo",
"$$#$%#%%%%@@=####@@@@XXOo##=***&$$##*&&&&&&&%##X@%**==#%%&$$##XX"
};
