/* XPM */
static char *_f173d25e7c44c0bb365364ac24ce6f3sOKjMbOmB2zwNSR8[] = {
/* columns rows colors chars-per-pixel */
"64 64 71 1 ",
"  c #000000",
". c gray4",
"X c #7F1707",
"o c #54523E",
"O c gray25",
"+ c #585642",
"@ c #5C5A46",
"# c #5E5C49",
"$ c #615E4B",
"% c #63614E",
"& c #666452",
"* c #6A6654",
"= c #6C6A56",
"- c #6E6C59",
"; c #716E5C",
": c #73715E",
"> c #757361",
", c #7A7664",
"< c #7C7967",
"1 c #7E7B6A",
"2 c #AF200A",
"3 c #817D6D",
"4 c #857F70",
"5 c #83806F",
"6 c #88826F",
"7 c #858271",
"8 c #898675",
"9 c #8A8877",
"0 c #8D8778",
"q c #8E8B7B",
"w c #918D7E",
"e c #93907F",
"r c #808080",
"t c #948F81",
"y c #988F82",
"u c #949182",
"i c #999285",
"p c #9B9488",
"a c #999688",
"s c #9C9589",
"d c #9C988A",
"f c #9F998B",
"g c #9E988C",
"h c gray62",
"j c #A09B8D",
"k c #A29B8F",
"l c #A09C8E",
"z c #A29B90",
"x c #A29C90",
"c c #A59D92",
"v c #A49F93",
"b c #A69F95",
"n c #A89E93",
"m c #A89F95",
"M c #A6A093",
"N c #A7A095",
"B c #AAA396",
"V c #AAA298",
"C c #AAA398",
"Z c #ACA398",
"A c #ABA59B",
"S c #ADA79B",
"D c #AFA79D",
"F c #AFA89D",
"G c #B0A79E",
"H c #B1A99F",
"J c #B3A9A0",
"K c #B4AAA1",
"L c #B6ABA3",
"P c #B6ACA3",
"I c #B7ACA4",
/* pixels */
"--;&*--==---;;;;;;----====*&&**=;;;;;;;;;;;;;;;---&&=-;;;>>=**-=",
"-;&;;>>--;::>>>>>>>>>:;;;;-----;>>>>>>>>>>>>>>>>>>>,3133,11<,>:-",
";&-,77q999999999999999999999999999999999999qqqqqqqqwuwwuwww991>-",
":*>777q9999uuuuaaaffggggafggggggssssiiittttttuiffuuuiiuuuaauwq1:",
"&:999w999quuuuagjjxxvxzvvxxxjgDDDBBNvvvvvvxvxxxjaasitiuuuuuuqq7>",
"&:9uuwqwaauffgggjjxvbVVVJJHHHHHHHDDDDDMvvvvvxxxjljaiiiuuuuuw973>",
";:9uuuwssslsjjafgjufjxPPKKKKKKKKKKKJJJJmBBvvvzjgfsttqqq9qqq97:>;",
":,uutasgAAFJZDDGGHFJPPPPKKKKKKKKKKKJJJJJJJJHHHHDVVbbggfu977779=&",
":1uutisASFJJJSFHHKKKPPKKKKKKKKKKKKKKJKKJJJJHHHHDDDbVllgw9799>>*&",
">1uwuasSDHKKKKSHvKKKKKKKKKKKKKKKGSKKKKKKJJJHHHHDDDDDNNiuq91<>>*&",
">1qwiaaDDHKKKKKS33wKKKKKKKKKKKKKKKSSBBBBBBBBBBVASDDNNfq97>>>-;*&",
">1qwiiiDDHKKKKKKZwi3wwwtisKKKKKKKKIIHHHJHHHHDDDDDDDgiu91<>>->,::",
"><73tuiDHHJKKKKKKFBDyKKKKKi7KKKIIKKHHHHHHHHHDDDVVMaai931>>>=>w1;",
":<9w77iDHHHJJJJJHHSvSusKPPH7GKKKKKKHHHHHHHHDDDxMfaau,,,:>>>:99:&",
"3,9qt33DHHHHJJHHHHSSvvvjJHHiKKKKKHHHHHHHHDDDfffuwq3-:::;=>:<59:&",
"1,9tiiittKHHHHHSDHSSSSSlBAHHgSJJHHHHHHHHDNNffuuqw7,>>:;=:*,,75:&",
"1>9ttiiKttDKHHHHHHSSAAAAlxAAxAvAAAAAAVNN  fuwwq99,:>;::*,<<<77:&",
"1>9ttiiKPtqqHHvDHSAVAAAAAAMAfaAAAAAAANf X uwww39,::,;:=>*11155:&",
"<>qtisiSSSP7qs   MM    AAM      utsaii X2 >>;---->0ww,5;:17155;&",
"<7qtissSSSS   X2X  X222   X22222  aa  X22 311;                ;&",
",7qiit     2              XXXX22          1,: OOOOrrrrrrrrrrr ;&",
",7q    2222 rrr rrrrrr rrr XXX22222222222     OOOr       rrrrr &",
",7 rrr 222X rrr r    r rrr XXXXX   X22222 Orr OOrr       rrrrr %",
", OOO  XXXX Orr rrrrrr Orr XXXXXrrr X2222 Orr OOrrOOOrrrrrrrrr ;",
" OOO r XXXX OOO OOOOOO OOO XXX2Xrrr XX222 Orr O      r       r %",
" rOrO  XXXXX              XX2222OrO XX222 OOr O      r       r %",
" rrrrO          O X O X2XXX2222X   XXX222 OOO Orrrrrrrrrrrrrrr %",
" rrrrrrrrrrrOOO r X r XXXXXXXXXXXXXXXXX22     Orrr       OOrrr %",
"  rrr    rrrrrr r X r XX  X  X    XXX2222 Mq8 OOOO       OOOO &%",
",1   aiN   ...rr 2X2 XX2  X  X    XXX22X Dit08                ,%",
",1978iiS O NN rr 222XXX2  X  X    XX22X  uqq773tvnjIKKKKFDwaw9,%",
",39q177 OOr   r OrrOO 22  2  2    222 OO qqw87ijvjIIKKKKHDwaw9>%",
",3wwut OOrrNNN                       OOO w9q39jvjIIIIKKJHDwaq9>%",
",9tuuu Orh NNNl OOOrr &$%11134sJJJJJ    ww07wjvjIIIIIPPKHDSaq9>%",
">quut oOh AAAgww     &$=,13tysJJJJJJ rr qu8wsvsPIIIHKPPKHSSiq9>%",
">quuu oOh gggaw7 Orr #;133tsJJJJJJJD rr 93w0jvIPIIIBGPPHDSSiq9>%",
"*qwuw OO ggfuw8, Orr ;333ssKJJJJJJDj Or 57wjvKIIIIIZ0iKGSSSS97>%",
"&quua OO gww7,,, OOrr 33isKKJKJJJDjj O 76wivIKIIIIVS7igSSSSS99>%",
"&3wwaa Oh >>>>-;& Orr yisKKKKJJJDVl Or 3wijIIIIIIHSK;wjSSSSV93>%",
">7uuiiu   :::;;&$ OOr asKKKKKJJDDx9 Or 0fjKIIIIIIKSK=qxSSSSV91>%",
">7wuiie>>>;;;;&$*, Orr KKKKKKJDDfa9 Or fjKIIIIIIKKSK=VSSjSSS91>%",
">7qwww,>>>;;;&$=->q Orr  KKKKDNfq9 Or aaKPIIIIIIKSKK-SSS9SSi71>%",
"=:><11;>>>;;%$::9>8t Orrr  KHNjw97 Or tKKPIIIIIKKSKK,SSS9SSi81>%",
"&;>--;;:::;*$&4ww,>ui OOrrr       rr iiKKPPIIIIKSKKH3SSSgSiq81>%",
"-;---;-;;;*&&7wwwii>AA OOOOOOOOOrrr tiDKPPPIIIKKSKGS3SSSBSiq81>%",
"&;-----;;-*=;wwiiii3AAA  OOrrrrrr  wiDDPPPPPPIKKSPHS7SSSSSsw81>%",
"&-------&%#>wwwissBB3AANN        :9xVDKPPPPPPPPPSHHS7SSSSsuw11>%",
"$=-----*#$,iiifjffMBB<1NNxxw77-*-39DKKPPPPPPPPPPBHSS8SSSSsww11&@",
"#*------&,iiigjlllMMBM,,MMw97=&=,9wJKKPPPPPPPPPPBHSSqSSSaaww11&+",
"#*;;;;&@>3iiggllllvMBMi,MM97,&;-7wiJKKPPPPPPPPHVHSSSwSSiaaw911&+",
"@*;;;&%>,iijjjllllxgffl,,q9==*=qqwjKKKKPPPKPPPHVHSSSiSSaiuw311&+",
"@*;;%%>,3ijjjjvllllljfxq>:;=&;&<3qJJKKKKKKPPPHSHHSSSsStiiuq311&%",
"#*;*%%,3iijjjjxljlglglqqq9>&-*>79jvmKKKKKPPPKHAHSSSS8ttiuuq733@&",
"#*;*$333ffjjjxjlllgllxq99>>&:>>79ijBjKKKKPKKHHSSSttt9ttiuuq733@*",
"#*-#&,3fffjjxjjjljgMvu99>,1&>>>79ijvjjjsiiiHSAVtttttqtiuuuq33-@*",
"#-*#:3ifjlxxllljjjfqqq93355;>>>39isvjjvjjjjllittttttqiiuqq79,>**",
"#=*;13isjlllljjjlfqqq933933,>>><1wavjjjjjjjljxxxxfiiigaaq97911&=",
"@&--13iijllllljjjx09993;3317>>>>>uaajjjjgaafggggggffauqqqq1713-=",
"@&1>,,qwffffff,,437qq97>,19177<99quuuwqqqqqfggggggfuqqwwqq7333$=",
"oo>&,,qqqfffa1137770775-<58973<<9qquuqwqqq99999uuuqwwuw3973333&=",
"%@*-&,9qq0>,,113739377-=,33513>>,,3qq97799998wwq999www1355>33;%$",
"$%#>57,,,,,,113399799;;=7337153>>,<7998999999999911977,1>>>1::%$",
"**%%-==-------=------@#$%;=:;;;$$%%&&%&&*==-------;<<<,;:;>;;=##",
"==*=-*----&&>****&&&&@@$#**>:::;==**:;;;;;;;-**@&-::>,*--;==**@@"
};
