/* XPM */
static char *_9c9f560a2d14eef95c2d78805e00f061rB0eFwMHX52sXbS[] = {
/* columns rows colors chars-per-pixel */
"66 64 4 1 ",
"  c #5E5252",
". c #7E7068",
"X c #867E7F",
"o c #B19998",
/* pixels */
"                                                                  ",
"  XXX.X.X.XX XXXXXXX XXXX..X XXXXXXX XX.X..X XX.X..X .XX.X.X .XX  ",
"  X ......X ......X ......X ......X ......X ......X ......X ....  ",
"   ..o...X ..o...X ..o...X ..o...X ..o...X ..o...X ..o...X ..o..  ",
"  ... X.. ... X.. ... X.. ... X.. ... X.. ... X.. ... X.. ... X.  ",
"  .... X...... X...... X...... X...... X...... X...... X...... X  ",
"  ...X. X..X... X...... X...... X....X. X..X... X...... X......   ",
"  ....X. .X..... .X..... ....... .....X. .X..... .X..... .......  ",
"  ..o.......o.......o.X.....o.......o.......o.......o.X.....o...  ",
"  .X ...X..X ...X..X ..X...X ......X ...X..X ...X..X ..X...X ...  ",
"  X ......X ...X..X ......X ......X ......X ...X..X ......X ....  ",
"   ..o...X ..o...X ..o...X ..o...X ..o...X ..o...X ..o...X ..o..  ",
"  ... X.. ... X.. ... X.. ... X.. ... X.. ... X.. ... X.. ... X.  ",
"  .... X...... X...... X...X.. X...... X...... X...... X...X.. X  ",
"  ..... X...... X...X.. X...X.. X...... X...... X...X.. X...X..   ",
"  ...... ....X.. ....... ....... ....... ....X.. ....... .......  ",
"  ..o.......o.X.....o.X.....o.......o.......o.X.....o.X.....o...  ",
"  .X ...X..X ......X ..X...X ......X ...X..X ......X ..X...X ...  ",
"  X ...X..X ....X.X ......X ......X ...X..X ....X.X ......X ....  ",
"   ..o...X ..o...X ..o...X ..o...X ..o...X ..o...X ..o...X ..o..  ",
"  ... X.. ... X.. ... X.. ... X.. ... X.. ... X.. ... X.. ... X.  ",
"  .... X...... X...... X...... X...... X...... X...... X...... X  ",
"  ..... X...X.. X...... X...X.. X...... X...X.. X...... X...X..   ",
"  ...... ....... ..X.... ..X.... ....... ....... ..X.... ..X....  ",
"  ..o.......o.X.....o.......o.......o.......o.X.....o.......o...  ",
"  .X ......X ..X...X ...X..X ......X ......X ..X...X ...X..X ... X",
"  X ......X ......X ...X..X ......X ......X ......X ...X..X .... .",
"   ..o...X ..o...X ..o...X ..o...X ..o...X ..o...X ..o...X ..o.. .",
"  ... X.. ... X.. ... X.. ... X.. ... X.. ... X.. ... X.. ... X. X",
"  .... X...... X...... X...... X...... X...... X...... X...... X .",
"  ..... X...... X...... X...... X...... X...... X...... X......  .",
"                                                                 .",
" ...o.......o.......o.......o.......o.......o.......o.......o.....",
" ..X ...X..X ......X ...X..X ......X ......X ......X ......X .....",
" .X ...X..X ......X ...X..X ......X ......X ......X ......X ......",
" X ..o...X ..o...X ..o...X ..o...X ..o...X ..o...X ..o...X ..o....",
"  ... X.. ... X.. .X. X.. ... X.. ... X.. ... X.. ... X.. ... X...",
" ..... X....X. X....X. X...... X...... X...... X...... X...... X..",
" ..X... X....X. X....X. X...... X....X. X..X... X...... X...... X.",
" .X..... ....... ....... .X..... .....X. .X..... .X..... ....... .",
" ...o.......o.......o....X..o.......o.......o.......o.X.....o.....",
" ..X ......X ......X ...X..X ......X ...X..X ...X..X ..X...X .....",
" .X ......X ......X ......X ......X ......X ...X..X ......X ......",
" X ..o...X ..o...X ..o...X ..o...X ..o...X ..o...X ..o...X ..o....",
"  ... X.. ... X.. ... X.. ... X.. ... X.. ... X.. ... X.. ... X...",
" ..... X...... X...... X...... X...... X...... X...... X...X.. X..",
" ...... X...... X...X.. X...... X...... X...... X...X.. X...X.. X.",
" ....X.. ....X.. ....... ....... ....... ....X.. ....... ....... .",
" ...o.X.....o.X.....o.......o.......o.......o.X.....o.X.....o.....",
" ..X ..X...X ......X ......X ......X ...X..X ......X ..X...X .....",
" .X ......X ....X.X ......X ......X ...X..X ....X.X ......X ......",
" X ..o...X ..o...X ..o...X ..o...X ..o...X ..o...X ..o...X ..o....",
"  ... X.. ... X.. ... X.. ... X.. ... X.. ... X.. ... X.. ... X...",
" ..... X...... X...... X...... X...... X...... X...... X...... X..",
" ...... X...X.. X...... X...X.. X...... X...X.. X...... X...X.. X.",
" ....... ..X.... ..X.X.. ..X.... ....... ....... ..X.... ..X.... .",
" ...o.....X.o.X.....o.......o.......o.......o.X.....o.......o.....",
" ..X .X....X ..X...X ...X..X ......X ......X ..X...X ...X..X .....",
" .X ...X..X ......X ...X..X ......X ......X ......X ...X..X ......",
" X ..o...X ..o...X ..o...X ..o...X ..o...X ..o...X ..o...X ..o....",
"  ... X.. ... X.. ... X.. ... X.. ... X.. ... X.. ... X.. ... X...",
" ..... X...... X...... X...... X...... X...... X...... X...... X..",
" ...... X...... X...... X...... X...... X...... X...... X...... X.",
" ....... ....... ....... ....... ....... ....... ....... ....... ."
};
