/* XPM */
static char *_d3ebc2d592747f18aff161481d732d19K3Q6f2L3kpxLu1Q[] = {
/* columns rows colors chars-per-pixel */
"64 64 177 2 ",
"   c #000000",
".  c #0B0403",
"X  c #050A0B",
"o  c #160604",
"O  c #140806",
"+  c #150C0B",
"@  c #190D0C",
"#  c #19100F",
"$  c #050E12",
"%  c #071315",
"&  c #0C1414",
"*  c #151C1C",
"=  c #210A07",
"-  c #260E0A",
";  c #36110B",
":  c #3F140E",
">  c #221412",
",  c #361A15",
"<  c #36201D",
"1  c #00182B",
"2  c #192728",
"3  c #2A2A2A",
"4  c #362927",
"5  c #3A3B3C",
"6  c #540F05",
"7  c #56150B",
"8  c #511A11",
"9  c #700000",
"0  c #7F1707",
"q  c #7E1B0C",
"w  c #5A231A",
"e  c #7E2112",
"r  c #592F2A",
"t  c #51312C",
"y  c #5D3028",
"u  c #513E3B",
"i  c #5A3B39",
"p  c #7A332D",
"a  c #54523E",
"s  c #7F443C",
"d  c #723F41",
"f  c #3F4549",
"g  c #3B5C5E",
"h  c #404040",
"j  c #454B4B",
"k  c #585642",
"l  c #5C5A46",
"z  c #5E5C49",
"x  c #434E51",
"c  c #575355",
"v  c #58595A",
"b  c #644C49",
"n  c #7B4A49",
"m  c #615E4B",
"M  c #78565A",
"N  c #63614E",
"B  c #666452",
"V  c #6A6654",
"C  c #6C6A56",
"Z  c #6A615E",
"A  c #6E6C59",
"S  c #706251",
"D  c #716E5C",
"F  c #73715E",
"G  c #715D65",
"H  c #466267",
"J  c #5D6F77",
"K  c #757361",
"L  c #7A7664",
"P  c #7C7967",
"I  c #7E7B6A",
"U  c #6B6C74",
"Y  c #801E0E",
"T  c #802718",
"R  c #812E20",
"E  c #833628",
"W  c #83392C",
"Q  c #854538",
"!  c #D8462F",
"~  c #854C41",
"^  c #894B40",
"/  c #87554A",
"(  c #805752",
")  c #835C54",
"_  c #8D665D",
"`  c #866B65",
"'  c #817E6D",
"]  c #92726B",
"[  c #867B70",
"{  c #987B79",
"}  c #83806F",
"|  c #99866F",
" . c #858271",
".. c #898675",
"X. c #8A8877",
"o. c #8D8778",
"O. c #8E8B7B",
"+. c #96807C",
"@. c #918D7E",
"#. c #93907F",
"$. c #4B7181",
"%. c #6B738C",
"&. c #76778C",
"*. c #817981",
"=. c #56849A",
"-. c #768A9C",
";. c #6C96B1",
":. c #0094FF",
">. c #2497FF",
",. c #329DFF",
"<. c #3C98FF",
"1. c #2CA2FF",
"2. c #4298FF",
"3. c #47A2FF",
"4. c #4CABFF",
"5. c #52A7FF",
"6. c #59A5FF",
"7. c #5DA9FF",
"8. c #57B2FF",
"9. c #64ACFF",
"0. c #6BACFF",
"q. c #62B6FF",
"w. c #6CB2FF",
"e. c #65BAFF",
"r. c #6ABCFF",
"t. c #77B7FF",
"y. c #77C1FF",
"u. c #858687",
"i. c #88868B",
"p. c #858B8D",
"a. c #948F81",
"s. c #998A84",
"d. c #949182",
"f. c #999285",
"g. c #9A9588",
"h. c #9C9589",
"j. c #9E998B",
"k. c #9E9A8C",
"l. c #888B93",
"z. c #88999A",
"x. c #A19B8E",
"c. c #A39C90",
"v. c #A59E92",
"b. c #A69A95",
"n. c #BCA489",
"m. c #A6A193",
"M. c #A9A396",
"N. c #A9A298",
"B. c #ACA59A",
"V. c #ADA69C",
"C. c #AEA79D",
"Z. c #AFA89D",
"A. c #B0A79E",
"S. c #B1A99F",
"D. c #8A98A5",
"F. c #8EA3B0",
"G. c #B3A9A0",
"H. c #B4AAA1",
"J. c #B6ABA3",
"K. c #B6ACA3",
"L. c #B9AEA6",
"P. c #83B8DC",
"I. c #B7BAC4",
"U. c #82BBFF",
"Y. c #8EC0FF",
"T. c #91C3FF",
"R. c #97C8FF",
"E. c #9DCBFF",
"W. c #A6CEFF",
"Q. c #A8CFFF",
"!. c #A4D1FF",
"~. c #ABD3FF",
"^. c #B3D6FF",
"/. c #B5DAFF",
"(. c #BADCFF",
"). c #C1DDFF",
"_. c #C9E2FF",
/* pixels */
"A A D B V A A C C A A A D D D D D D A A A A C C C C V B B V V C D D D D D D D D D D D D D D D A A A B B C A D D D K K C V V A C ",
"A D B D D K K A A D F F K K K K K K K K K F D D D D A A A A A D K K K K K K K K K K K K K K K K K K K L ' I ' ' L I I P L K F A ",
"D B A L  . .O.X.X.X.X.X.X.X.X.X.X.X.X.X.X.X.X.X.X.X.X.X.X.X.X.X.X.X.X.X.X.X.X.X.X.X.X.O.O.O.O.O.O.O.O.@.d.@.@.d.@.@.@.X.X.I K A ",
"F V K  . . .O.X.X.X.X.d.d.d.d.g.g.g.j.j.k.k.k.k.g.j.k.k.k.k.k.k.h.h.h.h.f.f.f.a.a.a.a.a.a.d.f.j.j.d.d.d.f.f.d.d.d.g.g.d.@.O.I F ",
"B F X.X.X.@.X.X.X.O.d.d.d.d.g.k.x.x.c.c.v.c.c.v.v.c.c.c.x.k.C.C.C.M.M.m.v.v.v.v.v.v.c.v.c.c.c.x.g.g.h.f.a.f.d.d.d.d.d.d.O.O. .K ",
"B F X.d.d.@.O.@.g.g.d.j.j.k.k.k.x.x.c.v.v.N.N.N.G.G.S.S.S.S.S.S.S.C.C.C.C.C.m.v.v.v.v.v.c.c.c.x.x.x.g.f.f.f.d.d.d.d.d.@.X. .' K ",
"D F X.d.d.d.@.h.h.h.x.h.x.x.g.j.k.x.d.j.x.c.K.K.H.H.H.H.H.H.H.H.H.H.H.G.G.G.G.v.M.M.v.v.v.c.x.k.j.h.a.a.O.O.O.X.O.O.O.X. .F K D ",
"F L d.d.a.g.h.k.B.B.Z.G.N.C.C.A.A.S.S.G.K.K.K.K.H.H.H.H.H.H.H.H.H.H.H.G.G.G.G.G.G.G.G.S.S.S.S.C.N.N.v.v.k.k.j.d.X. . . . .X.C B ",
"F I d.d.a.f.h.B.C.Z.G.G.G.C.Z.S.S.H.H.H.K.K.H.H.H.H.H.H.H.H.H.H.H.H.H.H.G.H.H.G.G.G.G.S.S.S.S.C.C.C.v.N.x.x.k.@.X. .X.X.K K V B ",
"K I d.@.d.g.h.C.C.S.H.H.H.H.C.S.v.H.H.H.H.H.H.H.H.H.H.H.H.H.H.H.A.C.H.H.H.H.H.H.G.G.G.S.S.S.S.C.C.C.C.C.m.m.f.d.O.X.I P K K V B ",
"K I O.@.f.g.g.C.C.S.H.H.H.H.H.C.' ' @.H.H.H.H.H.H.H.H.H.H.H.H.H.H.H.C.C.M.M.M.M.M.M.M.M.M.M.N.B.C.C.C.m.m.j.O.X. .K K K A D V B ",
"K I O.@.f.f.f.C.C.S.H.H.H.H.H.H.N.@.f.' @.@.@.a.f.h.H.H.H.H.H.H.H.H.K.K.S.S.S.G.S.S.S.S.C.C.C.C.C.C.C.k.f.d.X.I P K K A K L F F ",
"K P  .' a.d.f.C.S.S.G.H.H.H.H.H.H.Z.M.C.a.H.H.H.H.H.f. .H.H.H.K.K.H.H.S.S.S.S.S.S.S.S.S.C.C.C.N.N.m.g.g.f.X.' I K K K C K @.I D ",
"F P X.@. . .f.C.S.S.S.G.G.G.G.G.S.S.C.v.C.d.h.H.K.K.S. .A.H.H.H.H.H.H.S.S.S.S.S.S.S.S.C.C.C.c.m.j.g.g.d.L L L F K K K F X.X.F B ",
"' L X.O.a.' ' C.S.S.S.S.G.G.S.S.S.S.C.C.v.v.v.x.G.S.S.f.H.H.H.H.H.S.S.S.S.S.S.S.S.C.C.C.j.j.j.d.@.O.' A F F F D C K F P } X.F B ",
"I L X.a.f.f.f.a.a.H.S.S.S.S.S.C.C.S.C.C.C.C.C.x.M.B.S.G.k.C.G.G.S.S.S.S.S.S.S.S.C.m.m.j.j.d.d.O.@. .L K K F D C F V L L  .} F B ",
"I K X.a.a.f.f.H.a.a.C.H.S.S.S.S.S.S.C.C.B.B.B.B.x.c.B.B.c.B.v.B.B.B.B.B.B.N.m.m.j.j.j.d.@.@.          K D F F V L P P P  . .F B ",
"I K X.a.a.f.f.H.K.a.O.O.S.S.v.C.S.C.N.N.B.B.B.B.B.B.m.B.j.g.B.B.B.B.B.B.B.m.j.j.j.g.d.a.@.  h h h u.u.  D F C K V I I I } } F B ",
"P     a.f.h.f.C.C.C.K.    h.v.          m.B.B.B.B.m.m.x.m.m.d.d.d.a.h.g.f.d.d.d.  X X                                   } } D B ",
"  h u.  f.h.h.C.C.C.C.u.u.    0 w b ~                                   X X   X   ) W R 0 0 0 0   3 v v v v u t > = o o     D B ",
"  h h u.  a.h.C.m.m.  u.h h   q W / ^   6.9.t.9.<.W.W.9.2.0.W.q.6.W.E.<.2.w.U.!.  L s W T 0 0 0   3 h u.u.            O . .   B ",
"  h u.u.u.  h.m.m.  u.u.h   6 q * G &.  T.~./.q.5.Q.~.t.3.W.~.8.U.~.R.>.7.E.~.!.  *.( W X 0 0 0   3 h u.u.            # .     B ",
"      u.u.  j.m.m.  h u.h   0   p.  &.  T.~.(.r.6.E./.e.,.~.(.q.8./.E.>.9.!.(.~.  i.) 2 p.  0       h u.u.u.u t 8 ; > + @       ",
"L   h u.u.  j.m.m.v.  h h   0   u.  &.  4.q.(.r.0.W.(.r.1.4.(.~.4.(.!.,.7.^.y.e.  p.) Q & 0   ! ! 9   u.u.v v v u t ; , + .     ",
"K  .    u.  j.M.m.v.x.h   6 6   p.1 &.  8.4./.r.,.T._.).4.4.(.~.e.).^.3.6.(.y.q.  z.` / T 0   ! 0 0 9   u.            ; @ .     ",
"D  .  u.u.  j.M.M.m.c.  0 6   X 2 1 `   :.,.t.6.2.6.Y.w.,.4.^.~.r.).E.T.R._.t.:.  -.Z Q w   ! 0 0 9 :   v             8 o O     ",
"D K     u.  j.M.m.m.m.  0   u.p.z.1 `                                             U b y 7   ! 9 9 9 :   v v v v v u t - # .     ",
"L F   u.u.  j.M.m.    0 0   h p.z.1 =.=.;.l.%.-.P.F.D.b.I.{ s.I.F.D.l.i.s.+.{         X       0 9 :     v v v u t t < - @ o     ",
"L I     u.        u.h 6 0   h u.p.  v J J M d n $.H g _ H 2 2 ] [ M M M ) /   x f f f h   | S       v u.              - @ O   N ",
"L I   u.u.  u.u.u.u.u.6 6   h u.u.X i c c i r i ~ / / Q E T Y T ~ n p p p   j h         | | S S       v u.            ; + .     ",
"L I     u.  u.u.u.u.h       h u.u.  X % $       X * 2 2 &       & e q q q X h   v 5   | | S S S   v v   v v u u < > ; > + o     ",
"L   h u.u.  h h h h h h u.  h u.u.  h h h h h h h h j j h h h h   6 0 0 6   h   5   n.| | S S S     v   v             + . o   N ",
"L   h u.u.  h h h h h h u.  h u.u.  h h h h h h h h j j h h h h   6 0 0 6   h   5   n.| | S S S     v   v             + . o   N ",
"L     u.u.      h h h h u.u.      u.u.    u.    u.u.u.u.u.u.u.u.  6 6 6 6   h     n.n.| | S S   v   v   v           + + o   K N ",
"L   h h u.  @.@.      h u.u.u.u.u.u.u.  h u.  h u.                6 6 6 6       n.n.| | S S     5   5   5 h u 4 t 8 +     X.K N ",
"L O.  h u.  d.B.f.f.k.  h h h h u.u.u.u.u.u.u.u.u.  h h h u.u.u.            n.n.n.| | S S S                           f.O.X.K N ",
"V O.@.    f.f.x.x.k.k.g.                            h h u.u.u.u.  G.C.x.  n.n.| | | | S S     K.K.L.L.N.o.f.K.S.C.C.C.C.X. .K N ",
"B O.d.d.g.g.g.x.k.k.@.@. .L L L B   h h u.u.  ' f.  h u.u.u.      C.x.x.  n.| | | | | S     K.K.K.K.N.C. .f.j.C.C.C.C.C.X.X.K N ",
"B ' @.@.g.g.f.g.@.X.K K K K A D B m   h u.  a.f.h.  u.u.u.  h u.C.N.x. .  n.| | | | S *   K.K.K.K.S.C.H.D @.x.C.C.C.C.N.X.' K N ",
"K  .d.d.f.f.d.d. .L F F F D D B m V   h u.                h h u.C.c.X. . .    | | S 5   K.K.K.K.K.H.C.H.C O.c.C.C.C.C.N.X.I K N ",
"K  .@.d.f.f.#.K K K D D D D B m     h h u.  h.H.H.H.H.  h h u.  j.g...} ' ' ..  S c   K.K.K.K.K.H.H.C.H.C N.C.C.x.C.C.C.X.I K N ",
"K  .O.@.@.@.L K K K D D D B m   h h h u.  f.G.H.H.H.H.H.      j.O.X.' L K ' g.g.    K.K.K.K.K.K.H.C.H.H.A C.C.C.X.C.C.f. .I K N ",
"C F K P I I D K K K D D N m F   h h u.u.  f.G.H.H.H.H.H.S.m.x.@.X. .D F ' o.a.H.H.K.K.K.K.K.K.H.H.C.H.H.L C.C.C.X.C.C.f...I K N ",
"B D K A A D D F F F D V m B   h h u.u.  f.C.S.S.H.H.H.G.A.m.@.X. .L N ' ..f.f.H.H.K.K.K.K.K.K.H.C.H.H.S.' C.C.C.k.C.f.O...I K N ",
"A D A A A D A D D D V B B  .  h u.u.u.  B.B.Z.Z.S.S.C.N.N.h. . . .V N  .a.f.C.H.K.K.K.K.K.K.H.H.C.H.S.C.' C.C.C.M.C.f.O...I K N ",
"B D A A A A A D D A V C D @.  h u.u.  ' B.B.B.B.M.M.x.m.j... .L V D L @.f.C.C.K.K.K.K.K.K.K.H.H.C.K.S.C. .C.C.C.C.C.g.@...I K N ",
"B A A A A A A A B N z K @.@.@.      M.M.' B.B.m.m.k.c.c.@. .A A B F X.c.N.C.H.K.K.K.K.K.K.K.K.K.C.S.S.C. .C.C.C.C.g.d.@.I I K N ",
"m C A A A A A V z m L f.f.f.j.x.k.j.m.M.M.P I m.m.c.c.@. . .A V A ' X.C.H.H.K.K.K.K.K.K.K.K.K.K.M.S.C.C. .C.C.C.C.g.@.@.I I B l ",
"z V A A A A A A B L f.f.f.k.x.x.x.x.m.m.M.m.P P m.m.@.X. .C B C L X.@.G.H.H.K.K.K.K.K.K.K.K.K.K.M.S.C.C.O.C.C.C.g.g.@.@.I I B k ",
"z V D D D D B l K ' f.f.k.k.x.x.x.x.v.m.m.m.f.L m.m.X. .L B D A  .@.f.G.H.H.K.K.K.K.K.K.K.K.S.N.S.C.C.C.@.C.C.g.g.g.@.X.I I B k ",
"l V D D D B N K L f.f.x.x.x.x.x.x.x.c.k.j.j.x.L L O.X.C C V C O.O.@.x.H.H.H.H.K.K.K.H.K.K.K.S.N.S.C.C.C.f.C.C.g.f.d.@.' I I B k ",
"l V D D N N K L ' f.x.x.x.x.c.x.x.x.x.x.x.j.c.O.K F D C B D B P ' O.G.G.H.H.H.H.H.H.K.K.K.S.C.S.S.C.C.C.g.C.a.f.f.d.O.' I I B N ",
"z V D V N N L ' f.f.x.x.x.x.c.x.x.x.k.x.k.x.O.O.O.X.K B A V K  .X.k.c.v.H.H.H.H.H.K.K.K.H.S.B.S.C.C.C.C...a.a.f.d.d.O. .' ' l B ",
"z V D V m ' ' ' j.j.x.x.x.c.x.x.x.x.k.x.x.c.O.X.X.K K B F K K  .X.f.x.M.x.H.H.H.H.K.H.H.S.S.C.C.C.a.a.a.X.a.a.f.d.d.O. .' ' l V ",
"z V A z B L ' j.j.j.x.x.c.x.x.x.x.x.k.m.v.d.X.X.K L I B K K K  .X.f.k.v.x.x.x.h.f.f.f.S.C.B.N.a.a.a.a.a.O.a.f.d.d.d.O.' ' A l V ",
"z A V z F ' f.j.x.x.c.c.x.x.x.x.x.x.j.O.O.O.X.' ' } } D K K K ' X.f.g.v.x.x.c.x.x.x.x.x.x.f.a.a.a.a.a.a.O.f.f.d.O.O. .X.L K V V ",
"z C V D I ' f.h.x.x.x.x.x.x.x.x.x.j.O.O.O.X.' ' X.' ' L K K K P I @.g.v.x.x.x.x.x.x.x.x.x.c.c.c.c.j.f.f.f.k.g.g.O.X. .X.I I B C ",
"l B A A I ' f.f.x.x.x.x.x.x.x.x.x.c.o.X.X.X.' D ' ' I  .K K K K K d.g.g.x.x.x.x.k.g.g.j.k.k.k.k.k.k.g.g.g.d.O.O.O.O.I  .I ' A C ",
"l B I K L L O.@.j.j.j.j.j.j.L L ' '  .O.O.X. .K L I X.I  . .P X.X.O.d.d.d.@.O.O.O.O.O.h.k.k.k.k.k.k.g.d.O.O.@.@.O.O. .' ' ' m C ",
"a a K B L L O.O.O.j.j.j.g.I I '  . . .X. . .} A P } ..X. .' P P X.O.O.d.d.O.@.O.O.O.X.X.X.X.X.d.d.d.O.@.@.d.@.' X. .' ' ' ' B C ",
"N l V A B L X.O.O.o.K L L I I '  .' X.'  . .A C L ' ' } I ' K K L L ' O.O.X. . .X.X.X.X...@.@.O.X.X.X.@.@.@.I ' } } K ' ' D N m ",
"m N z K }  .L L L L L L I I ' ' X.X. .X.X.D D C  .' '  .I } ' K K L P  .X.X.X.X.X.X.X.X.X.X.X.X.X.I I X. . .L I K K K I F F N m ",
"V V N N A C C A A A A A A A C A A A A A A l z m N D C F D D D m m N N B B N B B V C C A A A A A A A D P P P L D F D K D D C z z ",
"C C V C A V A A A A B B K V V V V B B B B l l m z V V K F F F D C C V V F D D D D D D D A V V l B A F F K L V A A D C C V V l l "
};
