/* XPM */
static char *_4ab54d5c0084411bebcd9386cc6715a5lChY3tHEA63FZXJ[] = {
/* columns rows colors chars-per-pixel */
"133 129 80 1 ",
"  c #000000",
". c #080006",
"X c #0C070D",
"o c #111111",
"O c #191515",
"+ c #2B0000",
"@ c #202020",
"# c #561005",
"$ c #600000",
"% c #7F1707",
"& c gray25",
"* c #5E5252",
"= c #625655",
"- c #655856",
"; c #665B59",
": c #6A5E5C",
"> c #6E615D",
", c #71645F",
"< c #6A5F60",
"1 c #6E6362",
"2 c #726662",
"3 c #766963",
"4 c #7B6D66",
"5 c #716768",
"6 c #756B6B",
"7 c #7B6E6A",
"8 c #7E7067",
"9 c #7E7069",
"0 c #796F70",
"q c #7B7271",
"w c #7D7373",
"e c #7D7473",
"r c #7C7374",
"t c #7D7575",
"y c red",
"u c #A0590D",
"i c #9E7243",
"p c #81726B",
"a c #80736C",
"s c #80746E",
"d c #85756F",
"f c #807470",
"g c #827672",
"h c #867670",
"j c #877771",
"k c #827774",
"l c #887774",
"z c #827875",
"x c #837876",
"c c #887871",
"v c #887872",
"b c #8A7A74",
"n c #8C7B75",
"m c #8E7D77",
"M c #807879",
"N c #847A79",
"B c #847C7D",
"V c #8D7C79",
"C c #917F7A",
"Z c #917F7B",
"A c #99866F",
"S c #93817C",
"D c #95827E",
"F c #1D2E91",
"G c #2942D1",
"H c #6478E5",
"J c #858687",
"K c #968381",
"L c #978480",
"P c #9B8783",
"I c #9B8784",
"U c #9D8985",
"Y c #9D8986",
"T c #9F8A88",
"R c #999085",
"E c #A18C89",
"W c #C1B6A8",
"Q c #95A2E2",
"! c #DBCFC0",
"~ c #DFDFDF",
/* pixels */
"*************************************************************************************************************************************",
"***=:1111::;::;;::;;:11:==;11111111111<:-=;<11111::;;;::;=;:11111111111<;=-:11:;:::;;;::;=-:11:;;<:;;;:<;==-;:11:;;::;;::==-;:11:=***",
"***:6ttttq74qq74qq779tt7:;5rtttttttttttq1;5rtttttw73339q1;1qtttttttttttq1;1qtt737w93337q5;1qtt937w93337q5;-27wtt947qq47q6;-,7wtt6:***",
"***1tBMtMz99kza9kzaaNBMq119MNMNNNNNNBBMq2>7MNNNNNMf99seq2>6zNNNNNMMMBBMt5>6kNNf9fzf99aew6>5kNNf9szf99aft6>>4szNNk9azzfft61>39zNNq:***",
"***1tM627a99as99aa9aNM61239sfssssssfNM61239sfsssfs99fz61237sfssssssfNBq12379fsa99sa9fzq11379fsa99sa9szw213349sfsa99sfze212349sfs7;***",
"***:671>3accs99999aftq1>3pcbs99999aftq2:29cbd999999seq5:29jbj999999sew5:,7jbjp99999sft6>,4dbcp99999aft6>>4dbcp99999aft61>4scca993;***",
"***=:1234cPUn94999kt61234jPUm94999fk61234dLUCp4999fk61234aDUSp4989fz71233pSUDs7989fzq11339CULd4999szq21239mUPj4899szw21234nUIc943;***",
"***=->349cPIVa9999eq1>349jLUVs9999eq2:348dDUCs9999wq2:248aSUSf9989ww5:,48pCULj99899w6:,48pVULc99999e6>,489nIPb99999t61>389bIIba93;***",
"***->349977fkza9942123499779kzs9972123499977kzf9973123499977kzf9943123499977fzf9973113449977fzf9973112349977fzk9993212349977fkz93;***",
"***;399993>16tfa94>:379994,>6tfa94,:349994,>6tfa94,;249994,:5tfsp42;2499942:5wesa72;,499942:2qtsa93:,499993>1qtfa93>>499993>1qtf4;***",
"***;3999943215wzs4334999943212wzs4334999943212qzf93349999442117zf93349999743216kf94334999943216kf94334999943216kk94334999943216tq:***",
"***;39999997>16tfa99999a9994>>6tfa9999999994,:6tfa9999999994,:5tfa99999999993:2wes99999a99942:2qts99999999973:1qtf99999999993>106:***",
"***;39999azk7215wzs989kzs9943212wzs9999999943212qzf99999999743217zf9999999fz93216kf989fzf99943216kf99999999943216tka999999994321:=***",
"***;39999azMf7>16e999fzzs99994>>6t999a99999994,:6t999999999994,:5ww9999989fMz93:2we99akMf989942:2qe999999999943:1qe999999999993>-=***",
"***;399999afzk721249kzfs999994321239fzs98999943211379999999999        99999fzMw32137fzzf998999432157szf9989999432124999999999943>-***",
"***;399pccaazzs4>:39zzspjcs99994>;39kzfpjcd99994,;249999dcd   HHHHHHHH  dcdafMk92;,4fzfpdcjp99942;,4fzk9scjp99993:>49999accp99993;***",
"***;389cPUb99s943349as9jPUm949943349as9dDUCafzf93349994sDU H HGGGGGGGGH  UDs9sa943379s9pCUDd499943349s9pVUPj9zk943349949bUPc99993;***",
"***;399bIUb999999999999bPUm949999999999jLUCafMka99        HF HGGGGGGGG F TDa49999999999sSULd49999999999sVTPjszzf9999999aVUPc99993;***",
"***;39zzfa999999kzs949fzfa999999fzs949fzkf99afzzf9 HHHHHG HG..HHHHHH .FFF a99989fzf949szkfa99999fzf949szkfa99skzf99999azkfa999993;***",
"***;3fkq1>399999zzs99skq2>34999szMf99skw2:2799     HGGG  HGGGG.... ..GGGGH   999fMf99aft6>,4999afMk999ft6>>499szz99999ft71>399993;***",
"***:qt6123449999sf99fk61234499fzkf99fk612       HH HGGG  HGGGGGGGGGGGGGGGGH  9999sa9fzq2123489szzfa9szw51234899ss999aze5123499993;***",
"***:6q1>3pjja999999skq1:39jcs9kzf99skw2: GHHHG  HG HGGG HGGGGGGGGGGGGGGGGGF     999aft6:,4scdpfzk999ft6>>4scjp999999ft71>3ajjp993;***",
"***=<1234cPIb94999fk61234jPUmp9s99fk612 HHGGGG  HG HGG  HGGGGGGGGGGGGGGGGGF  XHH  fzq21239CUDd9sa9szw51239mUPj4889sze51234bIPc983;***",
"***=-:349cIUVa9999eq1:378jPUVa9999ew2: HGGGGGG  HG    G  HHGGGGGGGGGGGGGGGG .XGHHH t6:,44pCTPj99999t6>>449mUIb99999t71>349bUIb993;***",
"***->34999afzza99451234999afzzs9843123HGGGGGGG  HGGG HG $ FHGGGGGGGGGGGGGGH .XGGGGH 223499afzzf99942123499pfzzf99942123499pazzk93;***",
"***;379993>10tf994>;349994,16tf994>;2 HGGGGGGF .HGGG HG $y HHFHHHHHHHHHGGGH XXFGGGGH 499942:2rka993;>499973>2qks993:>399993>1qkf3;***",
"***;3999943215eza4334999943215wzs7334 HGGGGGGF .HGGG G H y3 HHH     ..HGGG  XXFGGGGH 4999942226kf94334999842216kf94334szf943216t9:***",
"***;39999993>17kf99999999994>>6tf9999 HGGGGGFF .HHGG   HF  G   $$y9 F HGGG   XFFGGGHH 9999942:2wka99999999993:1qks9949szzf993:1q7:***",
"***;399999943215ezs9999999943215wzs99 HGG    ..%  H  G HGGGGGG  $y GF HGG F  .FFFFGGH 99999942226kf99999szf943226kfa999fkzka43211=***",
"***;3999999993>17t999999999994>>6t999 HH HGGGG %% H HG HGHGGGHGG  GGF HG FFF        H 999999972:2wf99999szz9943:1qk99999szza943:==***",
"***;3999449994322249999949fzs43222499 H HHGGGG %%.  HG HHH  GHHGGGGGF   FHHH  % FFHH  9949szf942223799999s999943223799999ss99943>-***",
"***;399pdjp99993>:39999pdcNNf994>;3499 HHGGGGG %%.  HH HH    GHHGGGFF G HHGGH %% FGGHH 9ajzNzs972;>49999ajdp99973;>49999pjjp99943;***",
"***;389cPPb989943249994dDIVkzzs432499 HHGGGGGG %%%   H HG    FGHGGFF HHG HGGH %% FFGGHH VULzkzf942349949nPDd9kf943349949cPPj99993;***",
"***;399bUUn989999999999bITVakMf94499 GHHGGGGGGG %%   H H     FGHGG  HHGG HGG   %% FGGGGH EPjfMk94479999aVTPjszzs9979999aVUUc99993;***",
"***;39fzzja99999kka989fzzja9sf999999 HHHGGGGGGG %%     H      GHG HHHGGG HGG   %% FGGGGGH a99fs9999999szzzjp9fkzf99999akzzjp99993;***",
"***;3skq2>39999szMf99skw2>399999999 HHHGGGGGGGG %%  F  H      GHG HGGGGG HG     % FGGGGGH ,49999999999fk71,499fMz99999fkq1>399993;***",
"***:9e62224499fzkf99fk6222348999fka QHHGGGGGGGG %%  FF  HHG   GGF HGGGGG H      %% GGGGGGH 48889skf9skw51234499fs989ake6222449993;***",
"***:0q1:39ddpazzs99skw1:39ddp989zNf HHGGGGGGGGF %%   FF   HHG GG HGGGGGG    FF  %% FGGGGGH dd989fMzsfk6>>4pddp999999fkq1>3pddp993;***",
"***-12224cPPc9sf99fk62224dDPn949sf HHHGGGGGGGGF %% HH  FFF   GFF HHHHHG    FF   %% FGGGGGHH Dd499fzzw52237nPDd4889ake62234bPPj983;***",
"***==:349cUTVa9999kw1:344jPECa9999 QHHGGGGGGGGF %% QHHG   FF             FFG GG  %% FGGGGGH Ij9999fk6>>449VTIc99999k01>349nUUb993;***",
"***=>2499pjzzk98876222499pjzzza987 QHH          %%  QQHGGG             FFGG GGGG %% FFGGGGG zzf98475223499ajzzf98975223499ajzzf93;***",
"***;349993>1qkf994>;349994,17kf994 Q  %%%%%%%%%%%%  HHQHHHGGGGG  G   GGGG  GGHGG #% FFFGGGGH tk9993;>499993>2tka993:>379993>2wks3;***",
"***;3999942226eka4324999943226wks4  %%############ F   GGHHHHHHHHHHGGGGG GGGHHGG #%% FFFGGGH 27kf93234999942226kf94234999942226e9:***",
"***;39999943>1qkf99499999993>>7kf9 %%#             FFFF  GGGGGGGGGGGG   GGGGGGGG #%% FFFFFGHH 2tk997499999942:1wka97499999973:1qq:***",
"***;399999943226eks99999fks43226w %##   FFFFFFFFFFFFFFFF             GGGGHGGGGGG ##%%      GG 227kf99999999942226kfa99999ff942221-***",
"***;3999999943>1qk999999zMf943>>6 #    GF                               HGGGGGGG  #%%%#%%%%  H  2tk999999999943:1wk99999fMza943:==***",
"***;39994499943226799999sf999432       HG ++ ########################## GGGGGGGG  #######%%%%  i 26799akf9499942226799afzfs99942:=***",
"***;399psdp99943>:39999psdp99993      GHG ++ ####%%%%                %#    GGGGG        #####%% i >499fNNjs999943:>499szNcdp99943;***",
"***;389jDPc999943249994dDPnaffs4    G      + #%%%%%%% J &&&&&&&&&&&& %# &&& GGGG  FF         #% u 34999fVPDd99994224999fVPDj99993;***",
"***;399bUTn949994499999cUEVakNf9   HH  &&& + #%%%%%%%                %# JJJJ GGG  GFF        #% u 49999aCEIj49999999999aVTUc99993;==;",
"***;39fzVla99999999989fzVla9skzks HHG  J b + #%%%%%%%%%%%%%%%%%%%%%%%%# J &JJ GG FGGG  FFF    %%  9999akzVjp9999aff9899fzVla99993;;56",
"***;3szw2>39999999999akt2>399azMf9 HG  J > + #%%%%%%%%%%%%%%%%%%%    ## J&&JJ GG FHHH  FFFF    % W 999fkq1,49999fMz999fkq2,499993;:qM",
"***:9e721,3499999989fk751,3489ffa98    JJJ + #%%%%%%%%%%%%%%%%%%% && ## JJJJJ GG FF    FFFHH   % WW afw62,2449afzkf9afe6212449993;:7k",
"***:qq1:39ssp999999akt2:27asp9999999                     %%%%%%%# JJ    JJJJJ GG       FGGGH     !WA k71>3psa9sMza99fkq1>39ssp993;;39",
"***;15224jDLc98999ff75223dDPb94899fk  HGF OO &&&&&&&&&&& %%%%%%%# JJ&&&&JJ  J G        FGGGH     !!WA 2224bPDd9ff9afe62224cLDj983;;34",
"***=-:349cUTV99999kt1:244jIECp9999kt2  HH OO &o&o&o&o&o& %%%%%%## JJJJJJJJ  J G   HHHH  GGGH   99 !WAA 349VEUc9999skq1>349nTUb993;;39",
"***=;2499alVzf99976522499alVNka9876522    OO &o&o&o&o&o& ######## JJJJJJJJJJJ    HHGGGG FGGH  f98 !WWAA 99dbVzf98976222499abVzf93;:9z",
"***;249994,2qzf994>:34999421qzf994>;249   OO &         &                        HHGGGGG FGGH tk99 !!WAAA  3>5tka993:>349993>2wzs3;:wB",
"***;3999942226efa4224999942>26wfa42,399   OO & H H H H & &&&&&&&&              HHGGGGHH FGGH 5qkf WWWWAAAA  157ff93,2499994,157e7::7k",
"***;39999943>1qzf97449999943>17zf974499 H OO & G G G G & JJJJJ  J        QHHHH GGGGHHGG FGGH :5tk9 WWWWRAAA 2:2tka94499999943:1wq:;39",
"***;399999942256efs9999999943226efs9999 H OO & H H H H & JJJJJ&&J FFFGHH HHGGG GGGHGGGG  GHH 226qk WAAWWAAA 42257ffa9999999p42251;;38",
"***;2444444442;1qk944444444443;:7k94444 H      H H H H & JJJJJJJJ        HGGGF HHHGGGGG  GH 43,;2tk WAAWAAA 442;1tk944444444442;=*;39",
"***=;>>>>>>>>;==152>>>>>>>>>>:==152>>>> Q G    G G G G           F FFGHH HGGGF GGGGGGGG GHH>>>;=;22 WWAAA  >>>;=;152>>>>>>>>>>;=**;39",
"**===--;;;;---==-;------;;;---==-;-----  HH            F J&&J&&J FF      HGGGF GGGGGG  HHH ---===;;- WWA ;;---===;;-----;;;;--====;39",
"*=;>>>>3ll4>>>>>>>>>>>>5jb7,>>>>>>>>>>>2     HG        F J&&J&&J FF HHGH HGGGF            j2>>>>>>>>>   7bj3>>>>>>>>>>>>4ll3>>>>>>249",
"*;24447bUUb444447744444jITm744444444444dP   HHGGGFFFF FF J&&J&&J GFF     HGGFF      4449CEPa444444444449VTPd444444444447nUUc444444479",
"*;3999fNVVd99999ffa999fzVVj99999999999fzVV   HHHGGGGF FF J&&J&&J GGGH HG HHFF 99999999szVVba9999999999afVVba9999999999afVVns999999999",
"*;399szt2239999szMs99akt62399999999999kk6137         FF JJ&&J&&J GGGGH       999999999fz72249999999999fzq2249999999999fzw224999999999",
"*;3pfe751,3499fkzf99ffq51,3499999989ffq61>3489 QQHHFFFF J&&J&&J GGGGH     FH 9999989sfw62>2489999999afe62>,449999999afe751,4499999999",
"*;3szw1:37pp9azMf99azt2:24pap9999999kt5:24pap9 QHHGGFFF J&&J&&J GGGH     FGGH 999999fz6>>39pp9999999fz01>39pp9999999fzq1>39pp99999999",
"*:7e952,4dSDc9ff99ffq62,3dSDc94999ffq62,3aCDb HHHGGGGF J&&JJ&&J GGGH    HFGGGH 999sfw62,29nDCa4999afe62124cDSd4999afe751,4cDSd8999999",
"*:qw1:344cUEV99999kt2:244jUECp9999kt5:244dPES HHGGGGG J&&JJ&&J GGGH    GGHFGGGH 99fM6>,34pSEPj9999fz01>349CEUc9999szq1>349mEUb9999999",
"*;152,499sVVVf9887762,399anVVf998776227faabV HHGGGGG J&&&J&&J GGGGH   GGGGHFGGH 89762>2499jVVzs989762>2499jVVzf98976512499dVVzf999999",
"*=-:34799422wzf994>:24499722qzf994>:27kNf72 QHGGGGGGG   &J&&J GGGGH  HGGGGGHGGGH 42:>34997326kk9973:>34999326tza993:>34999323tzs99999",
"*=;,499994,157efa4,,3999f93>26efa42,39fzze HHHGGGGGGGGGG   J GGGGH  GGHGGGHGGGGGH 3,2499943>16qff93,2499993,16qff93,2499993,159ef9999",
"*;2499999943>1qzf9444999zMe3>1qzf944499azM HHGGGGGGGGGGGGGG  GGGH  GGGGHGHGGGGGGGH 4499999442:5tk974499999442:2tza94479999743:1wzs999",
"*;3999ff99942157efa99999fzze3157efa99989f HGGGGGGGGGGGGGGGH  GHH  GGGGGGHGGGGGGGGF 989afs9993,26qff9999999993,26qff9999999994,15qef99",
"*;399szzs99943>1qzs999999szM93>1qzf99999 HGGGGGGGGGGGGGGGH 94    FFGGGGGGGGGGGGGH   99fNk999442:5tk999999999442:2tk999999999743:1wza9",
"*;39fkzf948994215679999949ffs42>56799999        GGGGGGGGGH 9943> FFGGGGGGGGGGGGH FFF fzzf949993,2679aff98449993,267799999449994,16779",
"*;3azMfppp999743>>399999ppp99943>:37999  HHHHHH  GGGGGGGH p999442 FFGGGGGGGGGGH HHGFF zappp999442:>4fMz99pp999942:>499999pp999443:>39",
"*;39ff9dCSj999942,39998dCDc949942,3799 HHGGGGGFFG GGGGGH Dnp49943, FGGGGGGGGGH HGGGGF fpcDVa89993,24skfpcDCd9ff93,249989jSSd99994,,49",
"*;39999bUEm949944449999cUEC9499944499 HGGGGGGGGFFF GGGH PEDp4999444 GGGGGGGGG GGGGGGF 9aSEPd49997449999pCEUcszza74449999mEUc999944449",
"*;3989fzCCj99999999989szVCj9999999998 GGGGGGGGGFGF HGGH VCbp89999999 HGGGGGGH GGGGGGGF fVCna8999afs9889fVCVs9kzkf999999fVCVd999999999",
"*;399azt62399999999999zk6239999999999 GGGGGGGGGGFFF HH k7234999999999 HGGGGGH GGGGGGGF zq2249999fNz999fzw22499fMz99999szw524999999999",
"*;39ffq61>3499999999ffq61>3499999989  GGGGGGGGGGFFF H w62>2499999989af HGGH  GGGGGGGGF 72>,4899fzzf9afe75>,449aff9899feq5>,3499999999",
"*;3azt1>249p9999999azt2:249p9999999  HGGGGGGGGGGGFF  k6:249pp9999999fz6 HH   HGGGGGGGF 1>37pp9fMzs99fzq1>37pp9999999fzq1>34pp99999999",
"*:7eq61,3dCSj98999ffq61,3sCSc98999s  HGGGGGGGGGGGFF  62>3pmSbp4999sfw62      HGGGGGGGF >27cSma9kf9afe75>,4cSVs48899feq51,4jSCd9999999",
"*:qe2>244cUEm99999zt2:244jUECp9999k  HGGGGGGGGGGFFF  :244sLEDa7999fz6>,      HGGGGGGGH 34pSEPj9999fzq1>349CEUc9999szq1>349mEUb9999999",
"*;561,499dCSVf9999761,399sVSVf99897 H HGGGGGGGGGFF   >349aVKVf9989962>2 FF    HGGGGGH  499bSVzs989975>2499cCCzs9899751,499jCCzf999999",
"*=;>34499426tzs994>:24499425wzf994 HH  GGGGGGGGFFH   44997327zf9942:234 FFGGHH HHHHHH  997327kk9973>>34799326kz9993>>34999426tza99999",
"*=;,499994,>5qef94,,399994,>5qefa4 HGG HGGGGGGFFH HF 799942>27wfs42>24 FFFGGGGH      G 9943>16wfs93>2499943>16qfs93,,4afs93>16qff9999",
"*-2449999443>1qzs94449999443>1qzf9 HGGG  HFFFFHH HGF 99999431>6zf94449 FFGGGGGGGGGGGGGG 99442:5kk944479999742>2tz94447szza742>2tza999",
"*;3999999994,16qefa999999994,>5qef HGGGG  HHHH  HGGF 99999942>27wfs999 FGGGGGGGGGGGGGGG 99943>26wfs999999fs93>16qfs999akzfs93,16qff99",
"*;399999999943>1qzs99999999943>1q HGGGGGGG    GGGGGF 999999943,16zf999 FGGGGGGGGGGGGGGG 9999742>5tk99999fMz9442>2tz99999fMza442>2tza9",
"*;39999949sf94,16799999949sfa4,>5 HGGGGGGGGGGGGGGGFF 9994489942>279999 FGGGGGGGGGGGGGGG 499fs93>26999999akf9993>169999999ff9993,16999",
"*;399999pszzs943>>3999999szMf943> HGGGGGGGGGGGGGGGF 99999p9999432:249 FGGGGGGGGGGGGGGGG 9pfNz9442:2499999aa999742>1499999aa999442>>39",
"*;39999dVSVzff94,>39998smSVzkfa4, HGGGGGGGGGGGGGGGF 994pnScp89942>249 FGGGGGGGGGGGGGGGG cSVNzfs93>,49989jCms9fs93>249999dCVd99994,,49",
"*;39999bUEVfzzs94449999cUECfzMf94 HHGGGGGGGGGGGGGGF 994dLEDp499944499 FHGGGGGGGGGGGGGGHH EPcfMk94444994pCEIjszza44449999mEUc999944449",
"*;3999sbSSj9fzkf999999szSDcpfzs99 HHGGGGGGGGGGGGGGF 999jCLnp899999999 FHGGGGGGGGGGGGGGHH LVaazf99999999fVLCd9kzfs999999fVLCd999999999",
"*;399azk45499fzzs99999zk75399999 HHHGGGGGGGGGGGGGGF 99fz7537999999999 FHGGGGGGGGGGGGHH   6349999999999fzw63499fMz99999szt654999999999",
"*;39sfw61>3489fka989sfw61>349999 HQHHGGGGGGGGGGGGGF afw72>2499999999af HHGGGGGGGGGGH   G   489999fa99feq5>,449akf9999feq6>>3499999999",
"*;3azt2>249999999999zt5>24799999 HQHHHHHHGGGGGGGGGF fk61234999999999fzX HGGGGGGGGGHH GGGGG  9999fMk9fzq1>34999999999szw1>349999999999",
"*;7fw61>3dmVd98999sfw61>3amCj949 HQHHHHHHHHGHGGGGGF w72>2pbCcp4999afeq2 HGGGGGGGGH  GGGGGHH  p49szzfeq6>,4jCma88999feq61,4dVmd9999999",
"*:qt2>244cUTm98999zt5>244jIECp49 HHH         HHGGGF 61234sLEDa4999fz612  HGGGGGGH  GGGGGH    d4999fMq1>349VEUc9999szw1>347mTUb9999999",
"*;561>399jSLVf9999961>399dCLVf99 H  GHHHGGGGG  HGGF 2>349pVLVf9989972>    HHGGGH  GGGGGH GGHH 99899q6>,499bLSzs9899q61,499cDLbs999999",
"*=;>24499434tzs9941>24499434ezf9  GH      GGGG  HGF 23499733wzf9942>23  G   HHHH GGGGGH GGGGH  9973>134499437kz99931>34499437kza99999",
"*=;>399994>>6qes94,>399994,>6qef    HHHGG    GG  HF 3499942>2qefa42>27 GGGG     GGGGGH GGGGGGHH  93>,499993>16wfs93>,499993>16wfs9999",
"*-2449999443>1wzs74449999743>1qz  GHHGGGGGGG  GG   449999943116zf94449 GGGGGGGGGGGGGH GGGGGGGGGGH 44449999432>5tz944449999442>2tza999",
"*;3999999994,16wes999999asa4,>6q GHGGGGGGGHHH      99999asa72>5qefa999                            s9999999993>16wfs999999ss93>16wfs99",
"*;399999999443>1wzs99999zzs943>1                  f99999fMf943216zf999                            k999999999432>5tza9999szza442>2tza9",
"*;399999449994,16q9989afzka994,>                 q99999fzzf9942>5q9999                            99999s9949~~~>16w9999sfzf9993>16q99",
"*;39999999999443113999zNfa9                                                                                 @@@32>2499szzfa999742>149",
"*;39999smmd98994,>39afzNVmd99s94,>3499fNVVVzs994,>2499fNVVcp99942>24998pcVcp99943>249989jVbp9sa93>,499szVVba99993>,499azVVns99993>>39",
"*;39999cUUn999944349zMfbIEVakzf94349999cPESs99974349999jLEDp49994349994aDEDs49994344994pSEPdszk94344999sSEPj49994444999aVTUc999944449",
"*;3999sbLLc99s999999fzfzLPbafzks9999999zSPnp4999as99899jSPVp49999999999fCPCa49999999999fVPCsszzfa999999sVPDd99999sa9999sVLDj999999999",
"*;399azk7349zzs999999fzk74499fzzf99999kz94499999fzf989fzw4479999999999fzw4379999999999fzw4379afMk99999szk4379999szz999szk737999999999",
"*;39sfw61>39kzfs9999afe71>3499fzs989afeq2>24999fzzf9afeq2>2499999999afeq5>,4999999999seq5>,489szf9899sew6>,4899sfzk99sew61>3899999999",
"*;3azt512349afzzs999zt512349999a9999kk61234999fMka99fk61234999999999fz71134999999999fzq11349999a9999fzq1134799fMzf99fzr21244999999999",
"*;7fe61>3snnd9kza9afe71>3pbmd98999afeq2>3pcVjpfzf9afeq2>29cmc98999afeq5>,9cmcp89999seq5>,4jmcp89999sew6>,4dmbaazk99ser61>4dmns9999999",
"*:qt51234bUUn99999zt51234jPTV94999kk61234dPECp9a99fk61234sDEDa4999fz71234pDEDs4999fzq1134pCEPd4989fzq11349VTPj9999szw21237nUUc9999999",
"*:661>399jLPVs9999w71>399dDIVs9999wq2>349sSIVf99899q2>249aCISf99899q5>249pVISj99899q5>,47pnILz99899w6>,499bPLz99899w61>499cPLba999999",
"*=:123499747kzs9942123499747kzs9942123499777fzf9942123499774wzf9943123499974wzf9973113479974wzk99731134499749kk99931124499747kza99999",
"*=->399993>16wfs94>>399994,>6wes94,>379994,>6wesp4,:2499942>5qesa42:2499942:2qefa72:,499943>2qefa93>,499993>10efa93>>499993>16efa9999",
"*-,34999943212wzs4334999944211qzf7434999944311qzf94349999443117zf94349999943216kf94347999943216kk94344999943215tz94334999943215tza999",
"*;3999999994>16efs9999999994,>6wes9999999994,>6wes99999999942>5qes99999999942>2qefa9999999943>2qefa9999999993>10efa9999999993>17efa99",
"*;39999999943212wzs9999999944311qzf9999999944311qzf99999999943217zf99999999943216kf99999999943216kk99999999943215tza9999999943215tza9",
"*;399999999994>16w999999999994,>6w999999999994,>6w9999999999942>5q9999999999942:2qw999999999943>2qw999999999993>1qw999999999993>17w99",
"*;39999999999432113999999999944311379999999994431137999999999943213499999999994321249999999999432124999999999943212499999999994321249",
"*;39999999999993;-29999999999994;-24999999999994>-,4999999999994>->4999999999994,->49999999999942-;49999999999992-;39999999999993;;39"
};
