/* XPM */
static char *_845adf97f774a49f5451d7701d6004cVs9P6gYs0kKyJgsC[] = {
/* columns rows colors chars-per-pixel */
"64 64 72 1 ",
"  c #292A33",
". c #3F404C",
"X c #40424E",
"o c #424451",
"O c #4D4F57",
"+ c #4C4D59",
"@ c #4D5257",
"# c #4D5159",
"$ c #505056",
"% c #52555B",
"& c #555A5F",
"* c #525364",
"= c #555A63",
"- c #5A5D67",
"; c #565769",
": c #5C5C6D",
"> c #5D5E70",
", c #605E6D",
"< c #5E636C",
"1 c #5F6270",
"2 c #62646D",
"3 c #68676C",
"4 c #66686F",
"5 c #6D6A6F",
"6 c #636473",
"7 c #656975",
"8 c #6C6B72",
"9 c #66677A",
"0 c #67697A",
"q c #696F79",
"w c #696C7B",
"e c #6D6D78",
"r c #6A6C7C",
"t c #6B6F7C",
"y c #716F77",
"u c #716F79",
"i c #6A707A",
"p c #6C727C",
"a c #6D737D",
"s c #6F757E",
"d c #71737B",
"f c #72727B",
"g c #75787E",
"h c #77797F",
"j c #6D6B81",
"k c #6F6F80",
"l c #6F6F85",
"z c #6A7280",
"x c #6F7283",
"c c #6F7480",
"v c #6F7085",
"b c #707180",
"n c #707681",
"m c #767681",
"M c #777781",
"N c #707384",
"B c #727584",
"V c #737882",
"C c #727884",
"Z c #757B86",
"A c #797B85",
"S c #727388",
"D c #737488",
"F c #747788",
"G c #75768B",
"H c #7A7D8C",
"J c #7C7E94",
"K c #7E8188",
"L c #7E8493",
"P c #84848F",
"I c #818592",
"U c #828E99",
/* pixels */
"                                                                ",
"xxnsa777776:::OOz OO#767ttaaaaffff$$Oz  OOO::--27776380NBBBVVVV ",
"Nxnns777776:<:OOOz O#67777ttafff8$$Oz  OOO:  --377788NNNBBVVVVV ",
"NNNnsqq7777<<<<OOz OO6777777qqee8$$z  OOO< zU 377788vlNNBVVVVVV ",
"BBNnnqq7777<<<<OOOz O6776770qq88$$Oz OOO<2 zz 777q9vvvBBBVVVVVs ",
"BBNnniiq777<<<<@OOz O66777777788$Oz OOO:222  777q9lvNNNBVVVVVsn ",
"BBBVni-q777<22<<++z OO677776777OOz  ++22222,,77e9lNNNNNVVVVVnVV ",
"mmmVna<i777<2<<2@++z O66677776OOz  +OO22222,77qqkNNNNNCVVVVnVVV ",
"mmmhVa<i777<<<2<@++z O++6 66OOOz  O,,,2222767ttxNNNNNNCCVVVVVVV ",
"mmmmns<<777<%2<<<+++z O+ z OOOz  O2,,,222776ttvNNNNN6CCCVVVVVVB ",
"mmmmnss<777<&2222O++z ++O OOOz  O222222277e00NBBSSNNqqBCVVVZZBn ",
"mmmmNsss--7<&2222<+++z+OOOOOz  OO22  2227qr0NSBBSSNBCqBBVVZZBBZ ",
"mmmmksss77<<2&22<<+++z OOOOOz OO12 zU 26qqqNBBBBSSNZCqqnnZZBBBZ ",
"mmmmksss77q&<&&<<<+++z OOOOz OO112 zz 66qqBNDDBBSSZZCBqnCZBBDBZ ",
"mmmxkkss77722<&<<:++++zOOOz OO111>:  660qBGNSSSNSZZZcxnaCZBBDZZ ",
"BBBkkkk77772222=::+ ++z zz OOO111>>11100BGGNSSSSSZZcxnCaCNBBDZZ ",
"BBbkkkk9777<22<::: z ++z  OOO1666>66609kNGGDSSSZZZaccCCa6NBB*ZV ",
"jkkkkkk977<<2<:::++ +++z  OO1666666600kNSGZCZZZZaasnCCCB6NNBZ:V ",
"jjkkjjk977>>:::::+++++z  ++11166666009NSSZZZZZZZaaVZCCCC66NBV:V ",
"jjjkkjj666>::::::++++z  ++16116667000NNSCCZZZZZasnVZCCCCC6NlVV: ",
"jjjkjj696:>:::::++++z  OO62  1166700kNNCCCZZZZaasn<<ZCCCCtcBVV< ",
"jjjkjk996::,,,::+++z  ++62 zU 667txkkNNBCCZZZaaasnVC<qCCCx0ccVV ",
"jkkkk6696>,,,,,++++z ++222 zz 777ssaaaBBBCZZaaaaacVVVqqtcxc0cnn ",
"kkkt66696,,,,,++++z ++22222  777sscaaaxBBBBaaaaqiacCVVc07xc0cnn ",
"tt6679966,,,,++++z #12222277777assssaaaxataaaaqqiiasnnna77ccccn ",
"666679666, ,,OOOz +124222277777assssaaaaataaaqqqiiasssssaa7cccc ",
"666666666 z OOOz +1127222227447iissaaffeaaffeaeeqaaasshhhffqhhh ",
"66666666:, 2OOz O<11272222244447aassaa332348883327777ssh74fqq77 ",
"77777777222OOz  O<6  222222224472aaa3233233447732277777774336-6 ",
"7777777222OOz  OO< zU 222661666<1616662222233322262777667222666 ",
"648847222OOOz OOOO zz 6666111111666662,222222222222222222222233 ",
"74442222OOOz OOOOOO  <<<OO++++++++OOOOO++++++++OOOOOOOOOOOOOOOO ",
"2222222OOOz OOOOOOOOOOOOOOOO+OOOOOOO+OOO+++++++OOOOOOOOOOOOOOOO ",
"22 222OOOz                                                      ",
"2 z 2$OOz                                                       ",
"22 $$OOz OOOOOOOOOOOOOOOOOOO++OOOOOOOOOOO+++OOOOO    OOOO6666OO+",
"$$$$$Oz OOOOOOOOOOOOOOOOOO++++OOOOO+++OO+++++  OOz  +++66666661+",
"$$$$Oz OOOOOOOOOOOOOOOOOOOOO++OOOOOO++O+++++ zU Oz  ++66 666661 ",
"$$$Oz OOOOO###OOOOOOOOOOOOOO+++OOOOOOO++++++ zz Oz  ++3 z 3333 z",
"OOOOz OO+O#+++<:<<<<<<<<<<<<<<<<<:::::::::::+  OOz ++333 333333 ",
"OOOz OOO++++<<<<<<<<<<<<<<<<<<<<<<::::::::::::++Oz O$3333333yyyy",
"OOz OOO+++<<<<<<<<<<<<<<<<<<<<<<<<<<<:::::::::++Oz O$33333yffffy",
"Oz +O+++<<<<<<<<<<<<<<<<<<<<7777<<<<<::::::::::+Oz O$3333fffffff",
"z OOO@++<<<<<<<<<<<<<<<<<777777777766::::::::::+Oz O$7733fffuuff",
" OOO@++<<<<<<<<<<<7777<7777777777776666::::::  OOz O$333fffffttt",
" OO#@+-<<<<<<<<<77777777777777777776666::::: aU Oz O6334ffaffakt",
" O@@+-<<<<<<#<7777666677iiii7777776688885:<: za Oz O6666fhaafnNN",
" @@++<<<<<<<@777667777issssiqq777678888888<<:  O+z O6667ffanmmNN",
" @@-<<<<<<<6X66677999aaasssssi777988888588<<:::OOz O6667hffmnmNG",
" #+-<<<<<:16X67777999aaassssstt098888885887<:::OOz O6667ffmmmAGG",
" @-<<<<<:<666o977799kaaassssxxt99e888588888<<::OOz O666+afmmZAGH",
" <<<<<<<:6666o77779tkssnnIIILxt0eee88888888<<::OOz O66.7afmAAHGH",
" :<<<<<:<6677o+77ttkannIIIIIIJJfueee88888882<  ++z +..62ahmAAKGH",
" ::<<<::667770+rtttkcZIIIIILIJJfuyye88888882 aU +z  6662anAAHKGH",
" :::::::7799997*rrkaCIIIIIIIIIIPfuyee7788882 za +z O6662amAAHKGG",
" ::::::6797999r*rkkcLIIIIIIIIIPPfyyyq77888822  +Oz +6662amAAKKGG",
" :::::67799999rr;kkLLIIIIIIIIPIPfuyyq77888822<:+Oz O6616amAAHHHG",
" :::::77799976rr;kJLIIIIIIIIIPIIfuftq0778822222OOz O6666amAAHHHG",
" ::::67777997ttk;;JLIIIIIIIIIIIPffftq9007822222$Oz O6611amAAHHHG",
" :::667777779ttkk9JLIILIIIIIIIIPhftq00007822222$Oz O6661amAAHHHG",
" :::677777777trkk99LLLLIIIIIIIPhffaq777777222  $Oz O6661amAAHHHH",
" ::6777777777tkkkJ9JLLLLIIIIIPPhffa7777777:2 zU Oz O6666tmAHHHHH",
" ::6777777777tkkkJ9JLLLLLLLIIKmffaq777777::2 aa Oz OO666qmAHHHHH",
" ::7777777777tkkkkJJLLLLLLLKmmhffa7777777::22  OOz              "
};
